<mxfile host="app.diagrams.net" agent="Mozilla/5.0 (Windows NT 10.0; Win64; x64) AppleWebKit/537.36 (KHTML, like Gecko) Chrome/128.0.0.0 Whale/3.28.266.11 Safari/537.36" version="24.7.16">
  <diagram name="페이지-1" id="cdZJyjNb5iiQUBxnO_u7">
    <mxGraphModel dx="1461" dy="791" grid="1" gridSize="10" guides="1" tooltips="1" connect="1" arrows="1" fold="1" page="1" pageScale="1" pageWidth="827" pageHeight="1169" math="0" shadow="0">
      <root>
        <mxCell id="0" />
        <mxCell id="1" parent="0" />
        <mxCell id="vUG8Hz4g9KgQDWd3f6Ud-1" value="" style="shape=image;verticalLabelPosition=bottom;labelBackgroundColor=default;verticalAlign=top;aspect=fixed;imageAspect=0;image=data:image/png,iVBORw0KGgoAAAANSUhEUgAAAnUAAAHiCAYAAACOfDoyAAAAAXNSR0IArs4c6QAAAARnQU1BAACxjwv8YQUAAAAJcEhZcwAADsMAAA7DAcdvqGQAAP+lSURBVHhe7P15tGXXdd6HzttXX6gGQKHvCh1BAAQIEIRIkKAo6kmUqMaWrUSxY9ke9h/SyHMyEuvJyfCz7PdHnu3khZZtOcN24sgZEqVhiUpsiR1EgiCJvgcBEH1X6IHq+9u++Ztrf+euu+ucW7cKVYU6587v1qzVzdXstdbe6ztz7WZozmGJRCKRSCQSib7GcOMmEolEIpFIJPoYSeoSiUQikUgkBgBJ6hKJRCKRSCQGAEnqEolEIpFIJAYASeoSiUQikUgkBgBJ6hKJRCKRSCQGAEnqEolEIpFIJAYASeoSiUQikUgkBgBJ6hKJRCKRSCQGAEnqEolEIpFIJAYASeoSiUQikUgkBgBJ6hKJRCKRSCQGAEnqEolEIpFIJAYASeoSiUQikUgkBgBJ6hKJRCKRSCQGAEnqEolEIpFIJAYASeoSiUQikUgkBgBJ6hKJRCKRSCQGAEnqEolEIpFIJAYASeoSiUQikUgkBgBJ6hKJRCKRSCQGAEnqEolEIpFIJAYASeoSiUQikUgkBgBJ6hKJRCKRSCQGAEnqEolEIpFIJAYASeoSiUQikUgkBgBJ6hKJRCKRSCQGAEnqEolEIpFIJAYASeoSiUQikUgkBgBJ6hKJRCKRSCQGAENzjsa/7KGuGBoaCrfGzMyMHTx40A4dOmSHDx+O8PDwsI2Pj9vatWvDBZOTkyHT09NRzsqVK23FihWRJlAPaaqHsqampqL82dlZGxkZsTVr1oSrNlEnQnh0dNTGxsZCaEO7vZRBG9TOiYmJaAO6gDLkB4sddyKRSCQSif7AsiV1HDYicqUw0iZKxB04cMBeeeUVe+211+ztt9+2vXv3BlE666yz7Prrr7czzzwz8r3zzjv23nvv2Z49e4J8XXzxxXbhhRd2ykFE3ETaIHM7duywl156KYgYhO6aa64JQogueOutt0IgaZDITZs2hUAmdQw6Dggi7aCd+/fvt3POOccuuOCCaC/5EfLRXrVJqMleIpFIJBKJ/sGyI3UiMZAlXEhMm8hAjkiXBe3BBx+073//+/b888/b+++/H4SOeEjb6tWrg9Ddeuut9pGPfMSefvrpEAgg5f70T/+0felLX7LNmzeHvsoX8D/xxBP2gx/8wO65554oGxL467/+63bJJZeExe2RRx6J+h999NFoF4QMovb5z3/ePvaxj4W+yB/l0e4/+qM/CsFi+IlPfCJ0P/rRjwaxQxc92oeLqF8Ul0gkEolEor8w8luOxr9sAHkRRGpqEIb4YOV64YUX7D/9p/9kf/iHf2gPPPBAWNO2b99u+/btC4sc5O3xxx8PMgTBe/XVV+2+++6z733ve/bcc8/Z+vXrw1qHVY1t0Lo+EbF7773XvvrVr9p3vvOdKJ/2QcKwAtKGO++80772ta/Zt771rSjzmWeesZdffjnq3LJli1100UULjgk/5f2bf/NvgojSLlkMV61aFfWjg9TtAe1wIpFIJBKJ/sCy22uDsLDtqfvS8AMIDiQLEUHatWtXWLu+8Y1v2IsvvhhbsBs2bLCrr77aPvWpT9kNN9wQ25qUBdHDinfllVfa+eef3yFHb7zxhv3whz8MEgiIw3qGNQ0/9b355pth3aP8jRs32mWXXRb1UC6WOogdrtqOu3v37mjXY489Fvf5iSACygfkh/hxnLrnD+j4SdPxUmZa6RKJRCKR6F8sO1IHidF9ZZAfpCY2IjXEsRX68MMP27Zt24IUnXvuufazP/uz9nf/7t+1v/W3/pb9V//Vf2V/7+/9PfvN3/xN+8t/+S/bTTfdZDfeeGPoqZzXX389SB3btYB6RMyI41467n3D6gfOO+88u+qqq8Kihh4islWTLvJCIrESsm0LISQdUIeOj+NAF1IoskocaYSTyCUSiUQiMRhYVqROpAbgF5lDIDYSkR4sZBA6LHaQOu6Lu/nmm+3nf/7n7cd//Mfjfrlf+qVfsr/6V/+q/dRP/ZRdd911tnXr1rDUsd0KYYKssYXLgxOQK8qmDtJ4KILtWyx1kDLageWP++TYMq3JltrGwxOkcW8cRO2pp56K7dmdO3cGkZMuqI8PAbiKBzWpU1wikUgkEon+w7IidZAXSIxEljBZzgCEB/KlV4jUFj22LKVLfsDWJkQMgfRBtrh37dprrw0CBjF89913YxuWLVPKF7GjfB6CwJpHudTB/XE8dAFxIwxxoz340eGhDOrCokddEEZIHU/lQgwpFz2RNfwigoQ5HurXsQjEkZbELpFIJBKJ/sSy3H6FuEBwJDUIQ3h4qIEtUF4vAnmCVGG142GF3/u934sHGiBRAHKEJY885MVSx5OmeiUJxI4HHNguJR3QBl5l8qMf/SgIH2XwtCt5qZN8QPfDkY+21cSP9nE/Hdu3d999d9z3J1KGLsSOciCP6AHqQdAjTYJ+TfISiUQikUj0F5bt9qvQjhOpg0itW7fOrrjiirCOQaYgZdy/9pWvfCWeRuUpVyxlbM/KkgZ43QjvmZN1DPL35JNPxnvmZEHD+saWLPmx5FEfr0SB1ImMAdqiPIB6IH88qMFDFaRhAeSVKDwVC3lDR8dFOVjgtDWLPgKkg0v57fhEIpFIJBL9g2VF6kRccCEuNeHBX5MZdM4444y4bw6yJVIEMePVI//gH/wD+0f/6B/Z7/7u74a1DYJGGRCqs88+Oyx1PMGKpQ1S99BDD8XrTgSsd5TFPXXcDwcB5EELtlapS+SLNmkLlnhZ9G655ZZ4TQkvIubJWggm99dRFhbAmtjRBqyNKg/BT1k1matR90UikUgkEonTH8vOUleTNxEbkZo6HbKDpQ6L2F/8i3/RfvEXfzEscOhDsCBSWMb+9E//1P7pP/2n9sd//MdB0CBTkCi2UHk1CVY+9LlvjgciIH+UD6HDeqctXLZqeeqVJ2exzmm7lfZQpwiYCB/l8rAGr1ChPNoDqcNix1O7xEkooz7uNhTfKz2RSCQSicTpj2VF6oCIDoAkIYLSlI5169JLL7XPfe5z9pf+0l+yn/iJn7CPf/zjYSHjfja2XSFmvJwY4SXCkCvKhNRhrYOkQfTYIoXIcf8cJA8/76Zju5SyIGncK4d1j/y19Qw/IlJH+yCcn/nMZ6IO8hMHybzrrrtim5g6lBfI0qjjrY9TfoUTiUQikUj0H5YVqYPQyDKHHxID2YF01aQHvyxbuDzN+jM/8zOx3fobv/Eb9nM/93OxxYpFDqB3//33xwMUWOMIs3XL60/YTqUMypV1jq1Xvs3K/XRslULosNLxGhTKVN0iYIQB7VYa27UQTF6jAnEkH1+Z4J4/rIKUy7ESTzlqg6QukzBlIkA6iUQikUgk+gfL0lInQFwgNSI2AmQIPZE90rGG8WAC75DDavf3//7fj/fVEYc+W54Quvq9dpdffnk8+MDWKuCeOl5hIqsdn/DCUgcp04MVlAWoX8RLxIy2aFuWdPxY6r7whS+E5Y50XmaMxZAnYQnrGChLhBCoDNVBWJJIJBKJRKL/sGy3X5GayIjYSdq6ABLFfXVY4PiCxO233x6WOEgX251Y4PhcGK50IXVY4ghD5PgCBK9DgfxhrYNw8c45yJmelkWoUySsJp11OsLLjj/72c923lvH9i9WQ6x2KkP5gMidyqnRDicSiUQikegfLDtSByA1kCmRHvwQJ6xkEBsRIcIIYT0AgR75sMSxLcuTsbyfrgbplAPJwgoH8eIpVSx0PCnLx/71TjnIXv2yYvLVJI62IYB4tRs/4KP/5EXwQyghjty7p2Oi3bQXcBz1/XZ1XZSbSCQSiUSiP7HsSJ1IE2QHEiOCBHETmUOHhw2weP3Lf/kv46P+PFkKKdN2JhY5rGFY3XjlCHkgd9xrx1aoysGSd/311wexIh9l8AJjyB0kjocu0NEDEmoTbSEM6VM8cbSb9gLC+PmSxU/+5E/a1VdfHXXwRC0vHNYxkRegS3kIQJfjQQdQTyKRSCQSif7EsiV1Ikq48ksI8+oRiBevKoHUff3rXw8yxjvq+CzXN77xjXg3HMQOAsW9dbw/ji1XnnylDMD2Kw8z6L46HmDgYQnuv8OSxwMS6OBXOwTCNflUHBBZQ7jf75Of/GTn3XhAFj2ArsIcu6yPSlc5iUQikUgk+hfLjtTVZAZAkkTyaqAHAePetzvuuMO+/OUv26/92q/Zr/7qr9rf+Bt/w/7O3/k79id/8ifxsl+sXWzD8lF/LHVsdapMwhA3noaFTEGuJFj22DaF1LWh/OhhCaTNys/2KXUSBrhY+7QNKwJJfunIwqhj5/gA6Tr2dt8kEolEIpHoHyw7UgdEqmoygx8iBSBAvF4ECxsvH8b6xtOtbJ2y7crWLGFA2i/8wi/YL//yL9vnP/95W79+fcRTJnWw7YoVDyvali1bOuQM4gfRow4ecqB+CUAPoU2QNPIQ5mEKhdVm/NRzww03xEuSuUcP652IIW2ibnQog7bpWNUPik8kEolEItGfGPktR+NfFhBZQkSUkDaZwoqmV4xAothS5aEHSBzCVivfhb3xxhvti1/8YpA/wrpfjTIA5UKWsLaxxQrB4ksTvNQYQvelL30pSB31SB8oP6SLrWCsc7SHV5+w1cqXJETMAPlIhyhCONmGxQJIPbfddpt94hOfiLrVPvLqWOtyRAQTiUQikUj0F4Z8UV92+231IYvYSCA0ECyIGBY7yBgu981hpcNahx+ShzUP8gQBhAyRD9KksoiDlJGf8siHECYNax1EC3+dB6mtZrzLTvloHyQTUT7p4qc+9HGJJw5dLHfkFWEjXsBPPOUlEolEIpHoTyw7Usfh6pC7ERxQh9EhLFImksdWJpY3vc4EHZGmOn+7bCASJgIHpKc2gXZewpA18siyB9p6lK+2gDqdvMSrDXV9tT+RSCQSiUR/IUldg5oAQZwIiwApD2HlFUivSZTS6zyg1kGAdBVuo51OWOX0aktbBxAmnjhJnZdwIpFIJBKJ/say3H5NJBKJRCKRGDTkTVSJRCKRSCQSA4AkdYlEIpFIJBIDgCR1iUQikUgkEgOAJHWJRCKRSCQSA4AkdYlEIpFIJBIDgCR1iUQikUgkEgOAJHWJRCKRSCQSA4AkdYlEIpFIJBIDgCR1iUQikUgkEgOAJHWJRCKRSCQSA4AkdYlEIpFIJBIDgCR1iUQikUgkEgOAJHWJRCKRSCQSA4AkdYlEIpFIJBIDgCR1iUQikUgkEgOAJHWJRCKRSCQSA4AkdYlEIpFIJBIDgCR1iUQikUgkEgOAJHWJRCKRSCQSA4AkdYlEIpFIJBIDgCR1iUQikUgkEgOAJHWJRCKRSCQSA4AkdYlE4pRhbm4upA3Ft9OOFhbq/EfTEbqF5dbSjlN4dna2E14MS9E5Guoy8LfDiUQiAZLUJRKJE4aa6Ih8ENcOt3Xa8UDxgsKLxauMWqTTq952GJmZmbHp6ekF6XV+0icnJ8NVXC+QfjSdxVDnx6Ud3Y6l9iv8YWKpbejW5tOh/YlEP2LIT548exKJxAkBl5OhoaEmVEheDV1u0BkeHu6kE67z1pcl9AijK3+Nur4a7bIgaaoXV+SojoOk4SJqDwKkDxRfC6jbtljcsYD8iI5d5aneOrwUSB8cT3uOBcdaV60PlKcdL5zs9icS/Ya01CUSiRMGFlkWYC3C7UW3Dtd6oK1bp3XTq+PaaJclMgba9QqKR8iP9NIlTUSwF7rl+yBQeWpbIpFItJGWukQiccIAeeKSgoyMjDSx8xBREmQpA7WLjogY5EkgnnTpqqy6nFofkIbQHpWtfCpLcbLUUQZ5iFMYt4byqIw6nXigOMKUdzQi2IbqQHRcddlIfexLLbsuI5FIDA6S1CUSiWPCYoSANJEhkTr8CPo1WQKElS6dNkRmBOWXAPL1ak8bxNE2ldvechXq8up66jbXOrWfNgLikKPpd4P0cZeKo5WZSCQGG0nqEonEktG+XLRJBOk1qcNVHGQI/ZrU1cRPRAgoHSgNgYBNTU2FcI+cypIO6UgdT73UMzo6GvUj+GtiNzY2ZuPj4514dNptIw79NqnDBSoboA8UJ50a0u2GWr/W61ZOjcXKTCQSg48kdYlE4qhYCplABzIjQgVBAgoD9BSWjogVEClDpMNTpocOHbKDBw/agQMHQuQXwUOH8P79+yONsIgV5GzFihW2YcOGcKmTNIgc4bVr19qaNWvCXb9+va1cuTIIHvnUhpoYAuIog3gdD36OT30h1H1THyvxvaD8uG09hWsduWpDL0hXWEy3G+r8vfK266hxPG073vISieWIJHWJRKInjvXyIIIDWHDxSwSF0ZUOfogcxGzv3r22c+dO27VrVwh+4vbt22e7d+/uEDd0Za2DzNSEhji1hbh2PLoQOgkkbvXq1XbWWWfZunXrguBt2rTJNm7cGEIYsgcRFChTxE+o65IfqXUE6fVC3UcqQ36lC/LX6ScC3doNTmQdx4P6eI8F7eP5sI8jkTjRSFKXSCR64lgvD9LHlQgiVJA3yBjWtMOHDwdZ27NnTxA2SNyOHTuCyBEHmYPEoactV5Wr8gCkTAStbU2TPtY+hHpZzCFokDJ0KBtA7CYmJoLAYdlDIHVnnHFG+LHkYdUjXUI5bVIJ5CceEKYdwlIIhY5PeXG7laPwUspcKuo6apzIOtpY6nEc7/F2O6aTeTyJxKlGkrpEItETH+TyAFFiwRTZgZBBzrRNCml7//337YUXXrBnn33WnnvuOXv33XeD5EHMsI5BpiBVkCnc8847zzZv3tyJg1BpUdb2KPXRbgRSpDbgr8kkgsUPAvnee+/ZO++8Y2+++WYQSVkMIZoQQYje+eefb1u3brUrr7zSLrzwQjv33HPtzDPP7Fjx0FHdNZnU8audNbrFdYPKAuSRH1C+UMeDpZYP2nm7oVt5i+U7Wv3tvBqvbvnqOOU7WvltHO8xJhL9giR1iUSiJ4718sCiLJIBeVJ+yNT27dvtrbfestdee81ef/31IFCQKQge6ZAi3deGsA2K5UyChQwXaxy6WOdEmAB+hUWqsAoSJr4+ljbB03YubZELoUMgnyJ5xAPaB6GD2EE0JZDQVatWdcglAmhDmyy0+7adDtCR0F75BfJAZrvlBaq3na5wXdZSUJdTE9c2pKfjF2rddl78vUid4iTK1y7/aKjrWwra7UgkTnckqUskEj1xrJcHkSgWZyxcIkNYwSBzCGQOgodFjvIhQVjesIRBkrivDdKke90gSLhY5dQeufVCL5AmqUkCYREthLRuxAQLo9ougse28BtvvGHbtm2LY9EWrrZpzz777LDe6Ri4Hw8SCvnUdrCgtlJ3jbqd0tEx0K8QTwQSWm/5qm+oR/lUVh3WMdZp9XEDwgjldgNpKlPtUj8ST766fAinoOMlnnKUjzL0sIu2wUVURd5FkoHygzoOKF5hoLg26mOhDWo7qMupy0okTnckqUskljnqBayNbpcH4mpdFmYtrlrkWZyxcGGRe+aZZ+yee+6JbVa2OrHGYdViK/MjH/lI5+EESJAIkOqgXBZ4lS9rFSC9XuypG1Heuo3EKR9op8lVvPQREQ/ScLHeQU6ff/752DZ+++23g6BiRbzsssvsox/9qF1//fV2wQUXxFYxpJU2qh7VQVk10EGoD51aD8JD30EsuecQIikiR730adtCiAg6DlylUX67LvqXuHpbWyAv6cqPniydtJG6a+sprsgZeZkTiiOvjgsCrQdi6Ef0dWz0H/ODYyNe7VV78NdCmeiQl7DaDNRuxaNLGNAGtZ80ysCVPpCbSJzOSFKXSCxT1Kd+e8FSWvvyUC+agHQtjpSBZYv74iA93CP30ksvBbFjsYZ4bNmyxS655JLYuoSYsGhDSrDIsJBTnhZ8ykNEDIAW27q9+NvtbIP0Wkf567zSUZhj4jhxIQa0SaLtWQgWW8pY8CBcsqJBRDjOK664wi6//PKw3GHVAyKpOkb81Kk2yV+H6dcf/ehH9sMf/jDqwRpIOmWITCKQH+JoB31FW+q+JQ1AsBDaovaI0OGnrRw7eSgLXaUTT3noMa5YXRlz8nCcWFlpE3pYFiFudVsQyiUOMoXlU3OF9pFP5BBifOmll8a8URvVb7Ue5dFGykSok3jqVHvJQ31tEqpjQdChjjos1P5E4nRFkrpEYpmiPvXbCxZp3S4NLIZa2EnHzyLIQskCD+HAIocV69VXXw1rHWVDQiA5EI+LLrpogVVJpAI9lYkA4tqLq9rVdtGp9YDSBMLS6aaregHpaiPHLVIjkok+8ViZIHYcN2QWggOZwfIIGeHBCogJBIV77iA/EAnKohykPl5JDfrx/vvvt0cffTTqokzaw9Y27cE6eN1110XZ2i5mTOhnrKAI7YXs6P5B0qlHW5yQIo6H46WdspxSNwSW8aUM9KmHsqkH0g4pQ59jZBua/JQDYaMu8uk+SW1LA9Igc4899ljMGcrUE8ykYdGFGF988cVRBm0gnnajJ4sl7ea4OT6Og2NEh3bywwFddCDhHA/kjjbQHtqFaE6L1NGvNdpjkkicjkhSl0gsU9SnfnvBIq1NrNpg8ZOwsD/99NOxzcoCj/UGq83VV18dW5HXXHNNWOooi8WVBRTBL1AH6XVbaEfdTnQUh0gfaevW5bTRK438Im2yTtFG4iSkEadj17Ggz3FDbOmLp556KogteeiDT3/603bTTTeFFQ+SofooC6FcdGVVAowBOpCq++67L4gjxOXWW28N4kJdpEEasQgCSJ+shljMIDXnnHNOlAkp4p5GXNIRPZxCXRAj2sK9gRAq4iFur7zySowxaZTJPZAIdb/88sv2+OOPB1ljS52xhtTRToiaiCcEl2NHsNRynBA0tufZxoYAQv7JyzGL5EEU+UGALseGHunUx3Hj0nbINO1BT1Y72nrttdcGgePYOHaeuKZN9Af9QtmUAwGsQR0aB7mJxOmOkd9yNP5EIrFM0V60WNAACyNpEuIRFndIBZYPFvUHHnjA7r333vBj9cG68pnPfMZuuOGGsLKw8LKIi7CIIAl1HUgNwiJ8gtoni4rS1L66HPlrWSooH8JW1wEUT5zaxrFx7BARiAlWJCxBED9Z8yBRtA+SQR61lbyUA0TkiJdAkCAkIi7Uwz1o+CkLggVRFPkijfIYI3QoDz/tgCxBemgn7dH2KfmJh/yQn3bQ9hdffDHKoI0cE1Yu9EV6KZt00kTKCGO15OlmEVbqIS/tQpc+JT8Ek/sSEc0rSBciQkocc4vjA2on809bqlj8aDdpEDT6jHZA8jhudOlDxo360aMOyoE4cvy0E9AOpD3uicTpjiR1iUSi68LFYl0DHS30LKIswljlHnzwQXvyySeDtEAU2Br8+Mc/bh/72MfC2gOhIy8LJEK5IkK1tONUZzsOKFznqeOPJm30iqd8CenqE/yKF4iDMEAOIHMQB8gWcZASCA7EQsSOviBNAohvE2kAQaF/EcgR+mwjUi7WNOqhPCx5jAvxEBsID8SFdjJusnaRB8sZ9VEO8Vjn1FbqIA9lQoQgdFjYIFjoYi3jOIjHGoafdEgd9XKskDrVjXDsAH2eFoaY0ibqpw7KJEz9CG2jPNpJeZA6LJDMMfQgY7SFNlM+afQdfU/56HAc5KU8whBIrIQcK30K2aMMfoTQLoFyAMevMUgk+gFJ6hKJZYr2YtUtzKLGAidrC9YNEQVu2r/zzjvtm9/8ZiywbL1hnWNrkKdaWbRFUvCz+BKmDJVNWIs+QpwWUglADxCWHi7xEqVJAK7iVVbtShSu9VSnylY6kCVHhAK02wD5YAuae8wgXYBtWcgJBAbyA5FA6rz4cdX3QJY6CBnWJ/LQjxAV6hB5xKoGeSJNJIXy1PeyPmnLkXjCbMFyXx6EVONL+ymDuiFJ6EOwqBMihlUMwg5Jor3oQOwARApyCWHSsQHIJProYWGkLPoCXY6LtqhvaQukjmNDB9IGSaNdpNM3lAd5pi+Zg/QFlmGOjz6gHVguqR9dyuQ4uK+TuslDOfwQoVz0CHM8EFa1O5HoFySpSySWOVh0a7QXMsIscgiLIIsr1rmHH344rDEsutxHhWWOe+i0YAMWaREHkYoaxKs+0llQJaCuGxG6tVGQfyk6AmHF0Q5ksXoVr3ZKR+XouBAILaQDUoHQB5ANyBd+yAQigkjeujwA0YIMkgeyQV9rC1MkBDA+lMOYMBYQSqylsqBRHzp6VQgWNhEbtiAJ11uY1AXBgwxB8GgPW68IZXE8xGPxQgeSR5sgaOQjHasYREv36VEv1jTaSb3okZ9jhBgitF9toP9Iw9pGezguSBnthWSK4EL4aB9zj/6kTOIApJWyAP1GHu6t4zggrcxf4oDOB1yNYSLRL0hSl0gkAlq82ouYyBaLH5Yibmznpn38LKA33nhjPAjAjfosyCJ0ALJBeVooQR0nPyAsPeKQOh3UfiC9NnrF11B6W1dtqMlV3X6gPPQLLnq1rvykUQ6EByIDWQFYuiB22oqFUNBvEBj06/bgh9RgcWL7EHLCk64QFeonjjyQJIgWLqQG0sP9bdSLUA/lYD2D1CEQJZE6bUlCyHCph3ajA9DBugVRov3UgWVMBIpjpv3koQ6OjeNCB+ucSC366NBmyqR+iCT62m5Fjzook+NBIG6EZb3j2LS1z3FhzaPdHCf6tImyqQ892kYd9DN56H9ZByGKbVIHqK8ei0TidEeSukRimYNFSwsXrhY1XBY1FlOIAwsvT3RipeNpRRZVnua8/fbbY+sVCwj6EAsWa6wquCy0IhssqCyilK3yVT9+hHT51Q7Kkb7igPKp/aBOOxpUdzconvKQOkx7gNqJcHzEQ3zQ4TjoA+XFD7mg3yAtkA62VLF2ivSRVpervPSf7sejHCxV1EddjA35ISXUz3gh5KPvkbYfokV9EDYIGHFY0aiPOAgVpBHypDogc5An/AByBYkXqaNtst4B/MQBzQPKp/0QRtoPqI+5RTsoE7JJmRAu9SNt4ZhEFslDuwT8kF6sfqShwzFQL5ZB8nOMskKiw/FQPsfIdi1tos8BLvWSJ5HoJySpSySWKVjQBBavegEjTeksxizaWOh4dQVPILIQsmXF6yJknSO/yA5+LYq4kl46tXQD8Sy00pEfUB5t7ZamRVpp3aSdXocBZVOORHW1y1afEV/np334OVbSIDWQMPoMcsE2ICQEUqH7w+p6VDYkiTwQP8iPrHvokg9rGEIcdaKPUC/pqhOLFcSJciBWtAcSRV7C6KPLQxHa3iRO5UFMIYDcm0Y5lEk85eAnnTwQKdoN4eL4SCcO0ocOZQLycgzE1RY49HER2kEbaTv6lEt+4mgzRA3LG/EiuJRDO6+66qo4FkgsZaKDPmHS2RpmDotkCuhpDBOJfkGSukQiEei2gLGwYf3gPjpefsuN+CzSevccW3wiFtIHIiMIaQh+0rVYStpoxxGuy1gsn3SEWn8xqdEtrq4f4BIGiq+PC8hVvMqAPEA8ICv0Jf2LBQlA6CA92oZVHeQnDFkhXSQNQRcCQxwWOMYD8kI8pAfyIuuXBH3KQkdtQU9hyBd5KBM9kUHah+WLrVqIEmkcj+oiLOKGqB3kp05IG/HUIVLHsRGmfpE4tVPlkQ8/cSJzxFMmfcQPDyx7tI8+gAQikDbmKHWSh3TaRHtoP+noiUirPULtTyT6Afny4URiGYLTviYhsiYpDT8uiyXbg4888oh99atfDT2eFPyFX/iFWAxZYGWlQWRFWQx1ej8smkttY6/jrvOrX9VPPPWJBfSuu+4KaxYE5Gd/9mfj/kQIFTrKrzwih/gZD4CO9IgjDQHEi7CAuswadZzyCnV5QGXWdareOk3tA/hFVJUm/bp8tVVh1QGIgwgrH8BCx48Otl8hfpA1HhCBxFEWovKVB7/aIUkkBgHzZ3oikRh4aHFDamhRqxc4SAT3MHHfFy925X4qLBtY6bCSsEAjWGLIgz5QGd2knd4O95O00U0HqQGRgUzQZwDiAQnhPWlYiyAn9DVEhS3CepwoS0REUB0iL/gZE6xnItr4pScR2vGSNuEhrHJFzGq009v5JIoH8ktPItTxAv66PIS5yA8MtoMhxVjqsPwpX5tskod24icukRgkJKlLJBILwELHQojliG1BfayexZMbynkogu0rLZIQB1zy1CBdItRx7bTTDUdr3wdpv/JB5LiXjT6FjNDnbHFDpCHR3Uh4Owza4ROBpRxbXW9bX2lyj9ZfpKFb55NfqMNKZy6yPct9hvXrUlSX6l2s7kRiUJCkLpFYhjjaIicrHWSOByN4UhBrEsK9Vlo0IXNti0e3shXXT7IUdMu3mACICASYMKSO/sTCxJYh935B6uhz7rUTianJTA2VeSxotwf0Kmep5UuvXe7JgurAmgnoR7arucdO993JIidhnvZCr/5NJPoNSeoSiWUELbq11NDiphv4sdJxAzoLJa/RgICwWLK9hYUOYF0inyx23eoYVAHd4nsJfYcLRDQI079YmyAm9CevL4FIMw6C8gkqUyIwFm2S0tZty2I4WjpQfdKty67jjoZ2PuWpw/UcYxubeScCh1v/yKBd9CGi2wN6oVu/JRL9hiR1iUTiiAWNByQgdfrUE6SD7S1IR01GgPItN0J3vALoMxE8+o0b/OlbiB1xvEKGlzuLMPdCu9yThV7lL7XeXsfQzl8fy2Jlk0a/icQprlse6l6sDxOJQUKSukQi0YEWQLa19MJhiAWWOb3ignuYZP0AstBhCdHCWgtpvaSb/iALfcvWq+4/JA5iAqnTa0nYSoTUsQXLe+zQrYmJXIEyaqiuEw21X/5udZCuNOnXIh3QLqMdFtBv69Ugvd1HKos5Jise0q38NlSOykok+glJ6hKJZYhei5YWPUgdFjqsdSyG+gIBiyRpWjQpoyZnbXSLq6F8y0VELiAaIncSiB0PTfBACv0KqWYMdN+YxkyiOAF/tzolR8Px6B8NS9Gp0T4uXInCbdRtlnTLRx+DbvqJxKAgSV0iscxQL4zytxc3rHA8fYmVjvuWtO0KyKOtQ1Bb3WrkYtkdsh7V/UOfYgGFOOt1MVjpROo0TvV44W/HL4ZjHY9e+sczruTple9obT+WY+tVT91XicQgI0ldIrGMoIWt1yKnBRFSx311WDe4nw6yAcGDYEDudHM6UJ52eb3qqKFF+HSRY8VS8tbp9Ct9oj5EZLmD7OGH1BFP/0PsZKkD7brqPj5aX4Ne7VxqvMJL0ac9hLvlqdtcS69ye6GdX9INveKB2nms9ScSpxuS1CUSywhatI62gEHmIBPasoJs6ElDyAfx5Cdei6Wsdccipxu6tXExqdEtHRHw01/qP/VbrQOUTv9D7PTUJvES8rQJTB1Xx7eBXltONBarX2jr1O04WpvqtteiNKB+UJr67WiQ/lJ0E4nTDUnqEolEB1potSBqUcSSJKsSqImG8qCnhVMLYj8vjDqOWj4o6B+gvhXUb+pP+rcmdar7RLXjg6Cuv5e/F9r6tQjyd0tfSlio49S/icSgI0ldIrGMUBMJLXJ1nMgGafWWoLYKiYdkILLi4cpPHlmj6kW014JK/Okq3dDWUX/VfbgY1E91XvzqY/qNvtXTxQh56noQdOpy5K/lROFo5XaLr+NwOS6hrd+NcHXL287XKw+QbrveRGLQkaQukVhG6LWwKV4uRAEygaWIByYQLEfEi4BA4NCv/crXjWiwwGoBr/39LCK+co8m5KnD9BMETf0GieM+OuKkr34E3fpVkkgkEknqEolEoE0MIBaQuv3798erTXTDvqxx6EMyIB81qRPxEEQ6aukVf6KljW46H1REvo4mql99VBM7CB39TR/rqWPilKfOL7eWRCKRAEnqEollijb5AiIIIhqQuj179sRnq/ATjw4kDoh4iKDUaJMO8tZ1dqv/RKNug9pxIqFjWopIH/KGRQ5ijNCXxNeEDmsdAmrSCNr+RCKREJLUJRKJroBoaPuV96UhEA3iICYCxK5tVaqlFxZL6xe0j1Xkth0vgcAh6EDe6EeROvqWL0kg9DGEr1dZAvlqSSQSyxtJ6hKJxALUpAE/ViUI3XvvvRfbsLp5H4h0QChE9EQ8liL9Dh1Hm8z1ImPEi9jRh/QbLlY6viABoYPsEY9uIpFIHAvyqpFILFNAMkA3Kw9pEA9ePAy5gMzxLdLt27cvICno8CUEoHvulLYYsZF0Sx9EESBwhLHCqd+whNK/EDpcPWmscek2Pu0wqOtJJBLLE0nqEollhG5kQFCaiAikC9KmbUDIB8SD++vQJQ6SwrYh+hBA9JW/F1QPrnT7VepjaUsdX/sVJj/WTfoVKx39SH+uWbMmvgMLsQN1/m6u2pJIJBJJ6hKJRE9AFrAorVy5MggHD02wDct2LNuwEAuRC0jeYqiJh/L0O9pkqhfBqgkYoC8R7p2jL3fu3Bn9CaE744wzFhBkoPx1v3WrJ5FILG8kqUskliFqQrAYOSANggHRwGLH9uBbb71l77//frzqBJKxYsWK0MXS1IusqY66LnQJD4p0205ux4n4Quiw0NFnEOV33nkn0s4//3w7++yzo88F5a2hcDs+kUgsbySpSyQSC4gDZEsiEoILsYPAQUS2bdsWxA5LE+QOksK3YQWRO8okL4LlqXYR1XuyRPWcrLqOBvWjIAsdVjn6DkK3e/fu6NcNGzbYxo0box8pG72jtbtGXU8ikVieSFKXSCQWBeQBIsZ9XmzDAh6YePfdd4PYQfK4N6wmGW3SIcLRi2CdTOKFgHbcsdRX51e+Ok5hoQ6LyIng8UAJRJi+07br5s2bQ+jjetsVtMtOJBKJXkhSl0gsU/Sy7IhEkA4ZIcxN+1iQ2BaEeGBleuONN+yll14KP6QOtwb5EJUjYlOXr3BNsIBcID3pKk1xoJd+NwGqDxfUaUB+xddtVx6Avy5L7cBFyEPfICqTbVcI3fPPPx/kGKJ82WWX2VlnndUhdJSFv65bwF+HBdWdSCSWL5LUJRKJnhC50BOwbBOuXbvW1q9fH2FIydNPP22vvvpqPMGpd6zVeYCIClKnA0gLpKdNXkRScJVf/jq+W7iOB3UcdWAdQ6gXUDZtqutA1GaEfOjr1S3EAeIlxFEOx0L5uPo2LqSXh0zYun7zzTcjfsuWLXbBBRdEusqgD6mj3R9tLJaWSCSWJ5LUJRKJJQHigUBGuL8Oix3Eg5v8X3/99bDcQfLYWuxGmESogAiTyBMQqZEApdei+NqtUeu2RWiHayhNbQA69m5lICJ4NaRLX0B42a5+7bXXwoXgcQ/dmWeeGQQZXfoLqY8/kUgkjgVJ6hKJRE9A2kQ2IHOEsSJBRLgHDGIC2Xn77bfthz/8YWzHQlp4SpZXdchSpZv/RfQAxAVrHUIZteVLaBO/GnWcdLrFCSqXMqmTduGiQ5osa/glhIH0OY66veQV4UPQpxzS0Mfl3X5YMp955hl79tlng+DxQMSFF14Y/ag66Bvy1u1KJBKJY0GSukQi0RM1McK6BEnhHjAID+QDUrJp06ZwITVY65577rkgd1jsyANR0f12kBURJ8qFICIie5RRkxp0JYLahNAekau2CApLD6hMtYM06lR5+BHaQxiI5CEiuiqPNER+jomHINhqffHFF8OaiT5brZdeeqmde+65HYLI8QIdO31FfpWXSCQSS0WSukQi0RMiPAikBKKBXy732K1bty4sdrgQHixTbDNCZvi0WHtblrwSoQ5TZ02+aj2h1pHbRrcypUt8XbaOEQF1XulKBOnQL5Aw7oXDOskrSrBccuwvv/xy5wsc9NF5550X76ETCe6GXsecSCQSR0OSukQisSggOliUAOSFpzdFOiBJejkxT29iiYLoQWq+973v2Xe/+1176KGHgtxgrYLwAPJD8LBWYZ2iDhEk4kUgBREy4iRCHdcWEaRa2nnqMHWQB2uZLGa0B5c2AVnv0K0JHcfG1jNbrY8//njICy+8EHqQuSuuuCK2rLF06nhVNqAs6iStriORSCSWiiR1iURiUYjIQTL4ZBgi0gMpkfUKIoK17pxzzrFLLrkkBMLH6zsgOI888oj96Ec/iic/2Zrk3rL6iVkRGBE74kRwSCPcy4pFuvLXrvzKo7h6exVQLnVyTPiJh3Bqi7QuS+QLyyNEjmOBsGKZ5PggcvQXD0Fcc8018boSyJzKo2zaUx8fUBuJw089ikskEomlIEldIpHoCUgFJAeBbCCQG+JFOJQOICgQOUgM941xvx2WO4gh5IdtWYgP993hZ2sW0seXFbq9yqNbnXXdbUhX+eqwSBlQ/tqty63zAtoEkeNFy2wvY5Gj7WyxQua4hxBix/YrJJAHIbDOXXTRRWHB5ElhyhOohzCu+k/thMzVfZBIJBJLxZBfOPLKkUgsE+h0h0DUp35NeAAvxr3//vvtm9/8ZryX7uqrrw7BSgfhkKWLfJAdgB9SBjGB3JFOHZAUhHe0YaVjaxbihyWL+8xqgfxAAmXRqq1aIj+AOmqSpPbjyq88hEWgRJgQwkoD8uOqTvS1RYr1Dcsi98hBUCXEUR5bz5A4yCz9pP5R2YCydFzE0XcIx0saZPHP//zP4wELyvjiF79oH/nIR+I+PJVRo1tcIpFYvkhSl0gsI+h0hwzUp36bHNSkDqJ11VVX2Uc/+tEgXBAY7oNTnroc/BAjSEsN4iFFbFlilcMPiYE0KQ9lY+GC7GHh496z+snQbuRLbZBf8YqjbIVF5hDQbjfxtEdh2qeHH7DO8bAHLnHUQ9voG8gXbWfrGYGw1sdft4ty62OmTvyk0SdY++699964L4/0n/mZn0lSl0gklowkdYmu0LTQotEOJ/oT9ThCKHqNJ/eFQeq+9a1vBbniJv/rrruu8zoTrFBCXQb+msAI0iEOsiRyx3YmZAaiRHsgSJAirIP4sWBBnmq/LF0iehLFUVfdJupEKF+iOASShSUOwWpG+0ToJGojuhy72shTrLiEaZuOXfVSV91GoPKlK336BFKnB0vAz/7szyapSyQSS0aSusQR0GIEtBARZgEhXE+ZXFT6C/XYQVBENjTepDOmkLoHH3wwLHXdSJ0ISZ0XEAaqR/ND8cqDi0gPkoMV7K233uq8AoX2QeSwfmERgzjV27MQPYhULRCuug20DRehPOrBJR4XgbCJXOJCrrDO4ZKPY+bhD14WzH1yEDnqIo08HAf11nXX9QIdL1C80gD5qJvt17aljm1vkTqVIbTDiURieSNJXWIB6gWn1wLCgqUFJheV/oJOd8atJh5YuGpo+/WOO+7okLprr702iJXmhsiZygTtcjRHEKEOqwzaogcRIFOQJQgYZauduHWba6nTQF1fHUd9qlOuLHy1SA+iBnlcs2ZNCKQSQgdUJ6jLBWpXDdIQpdXpxHPMWOruu+++DqnDUleTOukKtT+RSCTKz8pEoge0+LQXj/ailOgPaNwgIxrTYxnLxXTbc4QwIrLTJj5KBxApyCP30vHAwdatW+3yyy+P16IQxlLGvXa8D0/bnVjsZK2TlUztUxtxVTd6svCRF4GkUR7l8sQu9eirD1deeWXcS0hbiK8tdCKQOibVRbwsgYRrIa5bfDdJJBKJ40Fa6hJHgCmhxalejAXitDgRr4U5cfqjJhYQKYBflwGNN6/pYPv1G9/4RsdSx4MS9fZrt7Enri5LIt3aD9DtFa92Kq0uG9RlCgoj6DKH0YP0cbyKl4DarzLlgrZuXa/KA2ovUN422vpA5dSWOl73Qj1f+tKX0lKXSCSWjLTUJTpgsWER1MJVC3GS2hKR6D8wniJ0kALCtZ9xZXwZZ8WLPMivsFDHa87UOpovKltzp60jIZ002ikyBlQ+cXU98iusvLr/jnjV362MdljtVFsUrt1ecW0ovtar9RVWnPIIOp5EIpE4GpLUJRagvZiAOg6/iF8uNP0JkQTGUESijqtFaIdr1PNA5Siu7aqcmsS08wiEa9JV69TtqfPV8UBpqq+ut5Ya7TTpC4pTvPwK95I6vYbC3dISiUTiWJCkLtEBC6CsIogsFtywrnREC490E/0BkQaNH+OKQDY0rgoDxpc4heu8QGmKb4c1XxYjZQigrvreuBoqAx0EUI/qUrrigeL0qhL9EJEof11OHRaIlytRGD1ZrSWKr/VrSSQSiZOJJHWJBagXXaDFlHgtTCy8hPV0YqI/IKKjsWQcRaI07rgiTr0ssoQlNTQ/JG1yI5BPdSLo1e+IIyw9oLJEoAD5Je12SJeySOMY2YKtj4s0XEAZoG4rZSAKA8pSfdIBSgfy13klNRRuuwJ1SBKJRGKpSFKXWID2IqOFrEa3hTTRP9DYMo41oQH1uBKn8GLjXeu09ShDIqIjSB9RunTqcpRfOoD0uu0I6HZMQDq1CO121Gl1WP46HdRtBW39GnVcN7dOTyQSiWNFkrrEAtSLSr24yI+1Az8LmSx4if4A41YTK40dYVmtGFMRJ41vrzFWOUB65EFqYiWy1hbSRMKUp66PdISw9Oo4BL8seISxyrGNq61c4kjXlyHQoxzSVR5xoK6/FkAZiCx8aoNQ6wLSu4H4o0kikUgcL/KVJokFaE8HLcBa8Hg57NNPPx2vX2AhzunTP2CsEMYSYcuTMcUvYgPwQ154vQZflOCdcLzShHe28V435dHYi/wRxt8GaZJ2GKEsxdfolk4dikeEbn65amc7r+KBdGvU6aBdHqjztfWPFZxTfFGCV8nwQX/6sn6liVDX2a3diURi+SJJXWIB2tOhTep2795td911l+3du3fBwp7oDzBejBsiUgd5qK1PCO+jg2Tw7dea1OEHInK1CPK30xUP6rDmVp0OFKd4XHRrtPPoGECdd6mQfj2v2+UordYB3fL2ArrtOvjB9N577wWp4z119DFflDj//PNjPOo2AMJ1Oe0yE6cHsBhv3Lgx7usEjJHGLpE40UhSl1gATQfc+uIDscPlI+x333237dixIy9OfQbGS+PYJkcQPOLYloRMsBBB3O+8886wzkHqsBjxNQbKqJ9UrcvED+o62nNEful0S691BPwqs41ar0Yv/ZMBtUHnUDfQPzpmiDSujkukjg/685kw8MUvfjFczjfpqnz8QGUi+BerP3FqoDHA5dvFt956axA7xoxxZ6w4zxKJE40kdYkFqBdlpka9cACROj6+zotdWehlvUmc/tCY4mpxERkgHj9pbAM+88wzne1Xxplvv9ZflGBRQgiLTFBGLxHqOMpRnNxufkFx1FWjrSeo/FOBbu3qBenJpR8PHDhgb7/9dnxz96233orz6+d+7udiK5x4+pjjQYir+xsQPpXHmzgSGiPGROcEn5e77bbb4lN0hDVOOVaJk4EkdYkF4EIEtEBpwVC8SN3OnTvjYvWZz3wmLlaJ/gLjWZO6eqyJf+GFF+yBBx6wr33ta53PhN1www3xnVRQL0wIeVSGyiFeYcUB4gFxtV86bX+NdrgN0utLmso/XUD7tNjTNlwEUrdv3z5744034jNh77//fpxfP//zPx/WUaym5CM/+fDrnBSxVplH66PEyQH9z5gwBpwPWF15TQ/XR66TWOzQARrHROJEI0ld4ggwJXSB4uIjAZC673//+7EdxEXq9ttvT1LXZ9D4Mqb1OGuRwQrEt1/ZBuTbr5AGPqx/0003BdFAtyYUespU5QoiGBJB9RBX+6XTy99GXVdbR2mncuGs21C3TSBdfYS0yRjEjQck7r333rh3ddOmTfGgxGWXXdbpd3QBeUGdv1c/JU4ddC7pOsmOhn784kqH8TqVczOxfJCzKrEAXHBYJLgw6cKDn3hEFhnitbAk+gciBW2CwHgSZnwJs/XHvXS4xLE1qC0/QH4EkM7cAIpXmkA+5ZUL6rg6vobSeqWDWqfWa8efDBG6xdVop9d69J9ewKwxwEKK6MXJdV76V+cgLiBN8SkfjjAegPHUWODW46awrqWJxIlEkrrEksCFKDE4YDGpiRioFx4ehIBQQOrQ279/f5AO5QFaoIhD6gVKaUgNdNoLWR1WeltHOFo6qNMX0zsRUF3HIkLdb7i8Rw/yrNcFrVmzJog1YwHQU5/WZbX7OPHhQOOocRHq8WqnJRInGknqEgtQ/7Lkl6R+TRJXWwW0IB0r6otbyqkXjW177JSm8cXPtioPSZDG1iBkg/kAiAPo1WUqHhAvl3iJoPReqPPUebvFdxMdY7e0Eyk6F3T8i4mOGV36Unlw6V+27fS6oA0bNsQtDljqSOf8Y0wQlYEA9Ek/Wp8mTh4YRyytuIyFxpYx0Tmg84dwjlfiZCBJXWIBtEjooqNFHmgR0YXqeC5K6Kd8eMLYIYCxxc+2aj2uLDxY6c466yzbsmVL3KiPpY6b97mZX3nRlb89V4DqAXUb2ugWp7y4bekVL6mh4zpVspT6dB4hgDisoJA57lXl1Sb0/+bNmztbrwhgbDRe6s+67MSHB8ZC76JjjAjrPJGVm3HUWGn8E4kTiSR1iQ7qxYELUS+Qnug/aGxBLzIgsgGRw1J0zjnnxA3ekAlec8JTzyxQ5FcZ8iNCXWaNtl7tb6Nu3wcRHdPJkF719Yqr03SMEADIMn3LjfUQAR4+glRr6xUs1m8qU+UmPhyIxDEOGqN6THJ8EicbSeoSHXARqi9K2h4SSKvTJceCOl/KqZd6+wdyRhi/LAgQDECY+7nOO++8+EQV99bxrjQ+HcZ9X5oLzA8JoKwaqpf4bmndoDy9pCZG/SR1XxGmP+h/7qXbvn17kGa2X9lyhUzT72y1Kg/6hPWCaPWV+ha/4lI+HNH5xfjo/OCc4kcS4fr8QxKJE40kdYkF4MIk1BcdLRr1gnQ8F6Y6X8qpFxYbXFB/FQIoXUI6268XXHCBnXnmmfGaDUgd5KO+v05oz4t6LoE6vhahHd9NNP/kl9Q6p1rqdvSSWhdowde2K4SZfmXrlT4/99xzw1Kq8dEYkYd+r+unT2uon1NOvWisEI2Nxg6X8yqROJlIUpfoivoChT/R/9DCI7THtx5zBFIHseDboxA7wH11r7/+ehA8bgoHLF6g2zypyYcITt2OOl0idEs7HUTHIVG82kwcxKutJ5E+Omy7QuZ4Px1+nnjlvXRY6rCOanxw26j7UX6FE6ce6n+NWRuLpSUSJwpJ6hILUF908CusRauOS/QfGDeJUMcpHhdSx7YRVqPLL7887q2DzPG1CVmVRFKYE1gh6jBliLwQL7e2BgLilG8xAe2wUMd/EOlWVhvE6Xh0TBwrx4NLmC03RGVIH1eClY5t11deecVeeumliLv00kvt+uuvj61X9Ov61cdI7adOhLjEhwvGoQ3F1eMkfyJxopFXgUQi0YFICGDRgdTxIfKLL744viiBBYntwieffDLIHSRPEAmBnNT35uk+MIQFDQsfAqkBWuBUt8roJrXOBxWhW1ot7XoF2ixSxbFzbxyu4pWmRVx5OXb6jc9I8eF+SB1x3L943XXXxVOvPP1Kv5EvkUgklookdYnEMsNSiIIICESMLUHu8/rYxz4W34DlAYo333wzrEvtrVgITNsSUbsIxKdthRJhqkXxJwp1uaAdBopbTGooTsRPbrc0gB8LJ9vYL7/8cmy7QpKxzGENpX/5vq4IsPoukUgkloIkdYnEMkQvstCOh1hAMLi3DivSxz/+8SAfkDisTE899VRYmnhqE8sUuryrCyEvZAaLHPrajgQieJAcCJ6Ij0SQnqTWOVYR2nF1WHFtdNPBFUGlbSJihPVkMcKx4wL6gL6CFD/22GPxAX9e8Ey/3nDDDXbhhRfGvXSUB1RXIpFILAVJ6hKJZYhuZKEmTyIVkBHpEsf9dRAQCB4WJe6tYxsWqx1EhZv92YaEyMh6xxauXqJLWXUdvUgL8RIIn8hfHX+ipEaveKFOR2iXjgUiR1gWtjqdPuE9dJC4H/3oR/bEE0/EO+mwgH7yk5+0G2+8MfqWPiI/EBFMJBKJpSJJXSKxjAHhaKOOg5RAToiDbGzatMmuvPLKIHbaKoTYPfvss2G1YzsR8qJXntTkR2GV342kgXZcLZSjNi0mbb02aj35pVeHu0m3NhDGCtc+RuL1Hjq2W3/4wx/aiy++GNY6XhPzkY98JCx0l1xySbyfri6329gkEonEYkhSl0gsQ0AYjoU0oIu1DRKHRQnr0mc/+9kgJJAZrE/f//73wwIFseOzYhAUSA4Ej/vGIDcAcliTIPwiM7VfAurwsUhd1tHKAbW+2lJLrY8AjkFWulqPPsOFwLFF/cgjj9idd94Z/cPXIm677Tb79Kc/bVdffXUQOqBtaqAHLRKJRGKpGPktR+NPJI4KFubXXnstXO79ueiii8JN9C9ETtogHsJSE0DpMuY8oclDFLjcTwaxwWrHFix+bSVKIIXoUYaID/GLEZduab3aW6PWaev3CuO2/bUItZ/26Vg4PgAx42EIvuPKgyRY555//vmw1vEkMa8sueWWW+yaa67pfK1DRI4nXvXUK2XiLtY/idMTuk7yg6bXdTLHNXEykKQucUxIUjdYqAlKDcWLWIDahZwx7pA6rHfc7E88T8LyGTEsdbgsaiIsyl9vUdZl9mqLcLT0Ntr6hJdSRjc9tRMorXZloeOY2X7myxucJ9xriAvR42GTa6+9Nu6fg9DxehieJIb80icQXPq1xtFIb+L0RJK6xIeFJHWJY0KSusFGe6HBagQgLvV70wjjx0rHViLC/XYQFLZaeTKWByh4F5u+FQvp0XYrejWBoay67m6ECTnRaB8vqOsGapvCdXvqOAgtZA7r3HPPPWdPP/10kDqOla9E3HrrrbFlzT2JvIuO84Y+pW9k1aQerJy4ikv0H5LUJT4snCJSVy58Po0b9+RAtQhH1HZUhaWgXQhYrKCj6dfpS22Q8hzXAXwgJKkbTIi4yC+3ljbJEfBDPpgHbC9ikcJ6RxwWKixXbEVCeljkRFQgeBIRJERlq9wadb1LgfTVdoH4uqw6vfa39Win2gz5YpuVp1jfeuutIHJss3L/HMcM4eWlzTfffHNY50TmiIewdQN1c8ykt+tO9A+WDamrT6vjPJyFZ2ZvLK34I0srMX4uhes4AW0+nTHkF5Gl9ulxguIlvX51LqVnF2+maqihUofmqvJR6iQUp1e+BboOX3I82KWmOY6rUaz0i96R+n7Zbnyo19YHxS8opIW6zLo/F8vzwaFpwsLMDfG4Z5xxRtzszeejEv0LxrbbAlPH44fQgDoOgYSQxjYrJI4X6/LqDp7yxGIH4cF6Rz62abmPjAcD2LrVPXl67YmkTebUFuJVryA/6e14tRXQRvK3ywZ1PoE4xYvMQeRYsLE+IjwEgUDsOG7Ssb5BbPlCBIv51q1bw5LJeVJb5gDtUxtVF+l1uxOnN+p5pjHk+viDH/wg5gXjznWS6yWQTt+PcRyG/4frhxLBbodUDjcQ1KrRUXSV7H7vy8YPStElhv+VVuLb8Ni5+fWUZR+9Uj6l+J8HFvCButABwcknddHJCMPV/WI1V3eyo7tOKQO008vA+aIT/xeUISzjNTxbXcRRaLJHtS7tDoiBx+PuXKcuL3to1uPRLjmKDgVQfqlj4aF4mz1POX6BEubbs4DUdcihRKhbSJlNG0JfqP3zeU/UdaO+WCWpW36oLxOcfyJ4gDDpInY6P7FSQO7YhuVFu1iyCEOOIHcQnwsuuCC2bZlLED0sfNxnBvmhPMqlPBEhCB9xlAHQQWqipnzKK6FtlFuXjQDVoTwAfYS6IKscD5Y55j7bym+//XZst0JYSeeYeDUJrynh3jleJIxlDsKq9lEvUH3y12iHTzR0zOBk1zXo0BxSP6pvmSP33HNPh9TxlLNIHZBeX/c/h9DMZzDLWueHMz+7Coaqdcp/UnV0Qjr+kgu3XhODM/DnipSi3kK77rqyLvs5He0pZc02ZRdeQM1+DXHN4ANRgEtd6IDgJJM6L7pDxlxiFNSD8z3ZJnVg4WTnxJkf6IXnAcMJoSuDB/gflTId3BWpK8kFnqAJFf6ILPnEmfAXUldSIXX4O8TOC4gaKjIWmnjxDbHwNLolJTDnU6tR8v/nj2txUqf8jT8aWelEHx6Zd2FfHT/qi1WSuuUFxh7ROYkrcgIIS4d46U07IcKaJRIEoeN+M17pQZh48kB6IHLMI4ietm+Jh4BB5hDuwUNqMkR+QBxhxSlcg3jFQdQISwAuba4Fyxtkjid6WaDZRmZrlTBEjvbRXqyPkDjk/PPPD6KKFVJWR9WrNtQC5B4NS9VrQ8fYxvGWtxygsZIfdOuvbn3L3L777rtjzvBjpdd1sm/7X4fcOXZWYf/jcOpDimSf55EQvnCJJkouPv5KjK4tKJRzPdZyVyy5ladAXRhr6ayf11FG0aEkyF1pg5fikSPOBzrZ6yV3QHAKSZ2j6dyC+V48dlKnJhcdQgykakJIQRi+YcpXArElW2dSESYv0SEeqSrmSZ3X4JHzJMzjvICYZnPzJK3J1hRSkzrlg/gdL6lDgLudPmjQI++JumZomiSpW35g7JH6nFQcIF5+uQA/JA+ZdoKERYvXekDqIHdsy2LpgviRjj4kSSSPbVmk3pZFRO5E9hCIE4KfcnApC0DgaAPxapPicCFu1I/IIodoq7UW0slHGyGekDeeYmWrVVZHyBx10y8S1Q3qeERxNWrdGu3wUqHy2jje8gYddf+3+26xPkOXdK6PbL/yA0CkTpY66YC+7v/olvm+8RnuB1THFAQZWxBZjtmjQxe38bn4ehhrPZEoFF0vIf6Kr0SrSHWhkxnPXtbcSG90isUOJdoxZKMeEe0hatj/wx0gnCJS16DHBF4KqVtQDlCyNx+yBWa9HA0kQKWQOvcoMqh5QUfX3Woa2XBVVWlaU0BjqSsgc8lRzMuhOF9NtMn1O3nma9AEQ5LUJU53tC8RhCWCwvV5W+uIdJE+3ZAnSB5Ph3LfHQ8X8MUFrHm6N03kTgLBg8yxzUmYG88RiJ5InOrAL7IncgaBqwme2sHrV+pXsOh+ObZayYc+9fEFCF68zBYrT7NyvxxxtEdtoFyVL5JJe4hDBOLaIrT7LXHqoH5vQ/Eap3q8uqEXqSMf86A95oOAuud8BofLMrVgqYp+9OOOQy/r9XxOVkY/R6rzpF6vO2sceVxiHY38BYXUUZaLV0rZCKUVa11RZ+cuOAFhzq+qjEFA/5I6gI43PyYQg+ijg5YOiBIYvDC2KvIYSR0opNFlKaSuOA700HdRfulEG4o/JmIHpbx5EaSjclwWnCmOaAMg3/wxnqjrhqZJkrrlh26XCBEXAT+i87b24ypdxEZ+3aPG4odA6LDm8fCBiBbkDz+Ea9qJGIRN27AibtSBK7/aJ6IHyKv4uj3EQ/YUB3nUvX24CFusPNmLJQ5hzmORg3iqTh1vG3V90gXK0y0fukBtb0PpS0WvtiUKFuvPdlqvMQPSZf7WpO4zn/lMx1LHnFusjH5Cz16r+qxeqjp9SWR1/MXncZHs14hO/qqPIsrPB/L5P93vzrofPoqsSR2+0PMSq0awc1eqZwy6n1/9jJNM6hw9Sd18tUe2gM4ubgddSZ1LZPYBdD+D24RIjWQGL0gdiOj5QSx5HHIdkMBq/ANRXswCEiRkiho8mjJLHRHV0XFpE0FHb1IHSpkFcmudprxIquI7pA5U5auIDwhNkyR1yw/dLhHE1fHd/Fq4EBYyieJEyKadVMmaJhInYXHkPjbuTcJPOvrtbVPKpV65sr5Rvp6yJb6uF1cEEXKG4Gc+Q+JwJRA7LHIIpE9ki/J0vPVxg3Y8UBro5a/1qadOA93KPRraZQi94pcbFuvLdhp91qvfNL+5PorUMX+WE6njqHr1J/F+lrpSh4rF/52e6GRzT7sMgtFnfs756UcJ4W/c+J+im0L4n/UYo4x28yKXe5WjkDpCg4OTTuooPrrsiAk8T9KObAKdjVsRlWDgFVQcZK/xo8EgtiFTa6AiPzHgeKo8MeCtQgqp419DqIhBJf5D5ssscycK8WTp87902/rz/UBKBwtIWoUoU6j91XElqUucQGjs60WoHUcYEakivk18lKcbIWqXU8cjIn08oAC5QyB9hCFvpCG6H44nUxHy6X43CBzbtZAybe1C1rCkiLxB/mQFrEF7ODZAmrZy0VUbe7VdZakMpdeo48gjl7wqW8CvcLss5V0MtU77OJcr2v1Yo1sfqw+VpjFSuLbUMa+4TvJDAWge1eX0KzjacsSQpe7HEqQKt/kr61bJxezzXojVqqydjlj7Sg7v0MY/D9ZSVJwae9kuVSmxMyd1suNSeEQWKes4iBzhFhkMnBJSB46cvPOEpFsTij4d3mABqWvKwtGgdyZOE1+hM1kcerxa82/BPKQYd+rJ2cnqhRxB6gLuiQCCDqh18DPxpOP1R6FH6hd/g16kDt1QJM98H9Z9laQucSLR+xxeCPSWqtsG+rUFQ2UhEA/SIFHT09Md8qYwLkCHMPfJ8TAGL3/FsnfppZfa5ZdfHuVC7BBZ6SSQM4nqrbd2BfmlU6cB4mooHRfpRuraYSD9mnSpTvmF2q/6loJ2+csV3fpfaPe3xqVGHZYe18duT7+ie7zjdTpiYd953zTBsva568L9bD7rmz/WrKBjsUJ5jlitYjfNM5Vs+HH9vy47dJSthx9m6c/OeteU5dloRynLER4KbKQyjKj2SrvvcWosdV0n7nzHdmtCyUNnN1iM1MVMYsI0cY4F2lUAwtaZcK12Sa87qeNfmZBRV521ChSdgvnohRNvoT41FJmPdYTOgpgKrh+Nna+rU7aj1AW4ADXeDwiNUZK65QeN/dEWoPo8lm63c7sXROpENAgjClMW6bKSKV55SBex48ELHsLAmseXHHh3nPTUNrkiWoQRlS+LHXFKVz01FK7jVbbyAbk1FsuLW+fppgu65V0q1IfLFe2+bIP0tk57XLqNEWSO99RxnYTUfepTn4rrpXRVbr/3f903C9ZN95ISK6b7C6mbXz8RjhyBykHqyM8fMaHCf1F+BAKxylNeqBRS51cITyn5VKYMc8SW/1QOkfKXmotCKA0EOKKTimO9yPSGl+OD3u2hioDXEydb81cjJlhHyoDO77EXtIJHIrI1hXQwX1ZstbalA/I0ovyetV1nU1pTVgktFcXEzV8icfKhRUkXdfnbixao40SgQK9rg9IBOipL+ljQ6tebYGkjTQLQh5ix/YpLfK2PUE5tsZMfHbZn8dckEFCuyGbdJrUREKd8iNLq9LagL6nja9S6tU6vvEuRRHfU43U01ONLn9ZhBGi+KNx2+xO03cWP4Yj1s0QvoHEAt1Yt/jrGEWsk4j+gJDFXJUdC5SJRZ6MaJcd/JZ9K8NnfxAweTjqp6w1179IRY1PjiIh5dBs0Yo7gZYugmgs94OVVCn7KNr6CwsuaCquKiZ/PhU9SA6VGOqh0oyz9ykgkPhzUxEALmvxKq+NEPIhjoROUBkSa6jig8nARWdSmmwclpF/rQdQAetSpehGFQV2mwrWe2oGfNNVDOiBMXcQBxUtX+koXFNdNgNooEbrpLyaJpWMp/Sy0x4dxr+ekwnKlBzRH+hf0RTi+HHFM5bhiaWqEdM6cjrjKvPi54RIWOiQK0vleCih9TXwTbvyR1/2lnNmONNpHoKy5vVIHC+rBDwFH71xeOMxnP0LiREAax0UnUXOONCgnDaUTP1dt2+qEkoRCKaiUg26j3jjhhpCnEypOpwiCdbiK5zjn/V3Q6B5pgSQTx8aJ3y6gTM6ST+1qoh2lT9p5Thy6XdwSg4te41zHL9WvcB0vdIsTeqVpnncrF39NxmrEebPIOdKuj3BdR69wHQ+6xSVOH3Qbl3rMukmNdljzCpE+fhG6Gu28/QuOqxybdsB0pByhCN2Ir3F8pivcxg8pm9+YKv0Ra2GEG79KCX9QufDz+pLhGRdf7wqpcz/9Tg7yutsBkSonJLRcBg8c3UkHc7kWoYTnO1YnAIgTY5Zf4lM2Mz1ls3PlTdHxNYmmHGSaX0QzPisohzyNRBk+2LP88g5dP7H4hIi7kJ5CfJzZexiZ8XKQQgJLfsac82428noeb4OXHqlwrVnXRTgGV4m8xV+1gfimOIEjjqNuyi46Jc/CvPgX/pojKVI97wL9kiXABWTG+6SkNZFLRKe8ln9wLkCJ40F7/LvNB+KWEq+wCBfQXFN8rd8Ot3UlhJUGCEtHFjuFldYW9JSOX+F2XqEdxt9ND7TDS4HKkxwv2uVIEr37BjlaOsJY1+Ot+cc2vuadSB16mrukKU9/opxrHG0sv0j4m/PPRVa5QuKGbXQWcb8vy8PskbI8T/taxRoea6+HKdOF4KyTNl96o3CWwsIXvK9J9HxDnm/I3WHEFUboY/qXolzCIUstnl9rdhU5MDglpO5YEaQLMtZM/OGR4QiHGRuBXIXM2ujYaAzaFKSMQY+BL8QNcNLIcjU85CcfohPQ48IK6H+6f4YyyUqeaa+Lcp3SeRvIT4nk8dng5QwNcy/PqOsxHymTME/qef0eWSagTx4kNvnBnOtP+nFM+cT0cqMZaq8HIjwb9wIRN+QKJb0IZK0QSZrgFxVvs1cahBVyi+7oqN5iH1M6ak0kBgHM624iyF/HLQbOl1oSieNFPR9ZS3T/Jv7OmlPpDQQ4jOZQeMFvubebVadZe3B8HYKEDTlBK1Y5z+Dr5cwUC62TkOFCfFn3MOTEq+NY1pwNDo+4rpcZa7h7ccPIAz9wRF9DnFkTD0+hUOryikNgd7SJplTikZ5GRU3jBwgfLqnr9CeeElBHMySa+PPXWiYNLgQoZgcZPF2kCI3yH4NO/IKTp6mmcTrAP8zkaL4DF5OrqbRMUsJNfQ7qOnjwkL3wwkv20MOP2t59BzydvN72ZsL6bxOXciz8kZMiS7mU1xDT0uIA/k446vU/8pSYDppmOEp7C7yVTbvpQ467U9ZxQn2QSJyuqM9v+XElAnNZIuT8Tpxo1PNOD9/Uccy5el72OziD5iVWypCyZnpsiCfGku2ekCZDOKxbHqBPOmsthM3JGRKfd2p2yWI5RWfOZjwP9ZCP3owdtyjb87BWE46FslRUSq6rjlzhGzTQTR8K1N2FpKmDISP8qmHbYzRisM5NOzMfGR22kTHiOUFc2wkYLH6aLVrITMSV/D6cxarXEL2R5leSLuplshUiVwgQZMwng08CV/XysBLOlTpHivWObeA4Ib08rHDvb99hf/ZnX7d/9a/+tb3z7g6fdMMuWMcgh/xCm/AiKbc5od3L5MWaVtrjZc6W7d5yLCPF2kabPTzqv/KIn/U4QBmQzlFvT5BPh+41jP6I/5i4DVGMY0Ov6CYSpyOYox9E6jKEbvGd874LFktLJI4FzDfNJRE6za9Bm2ccCYfDMUGwkPLHety4rKuscSJ0bKf52gwJGxkbjadUp1hbOU19bcMWMjs7GTJnvj7OTXs2F/fH9ztHXW9s2GZirWv6k61XX+eiv5tGQQibFrq438svLZqPRQYR3ounDxigmoz5GeEEptwPE4MHeYNgOcm7554f2L/9t//GHnv8cdu1e4+TolHPC6P3gfP8+/butzu+dYf9q9/5nXgR6eThySi7A42q687GvXSU7eGo009Enx2QO0jSEETSJ9x0c98dGB7yCTTsMwzTcSwcrsNf+B3NrwZmUdP0AOnTU4ftnrvvtn/3v/1v9thjj9l2J4hslZIG0STD1JRPas/P8QPSp33yUmS0kzJxPL7kLVvL9UUl2tI0J5FYruB8qCWRONmo5xn+BevagCHWoW7nFcuPr6NlC5QwpM3Xcl8zg3b5uoUBZ2ycF377+js7ZUNO8IZ9fRw+dMDswD6b3bfb/ftsZPqQzXjc5GGXqUNhcOG2rCCDWuNivUMI0B7v78Ly/K/4aQt5orVdmjwIODWkTp0Oan/vhJgkMVF8kCAnQVAYBQbfida2ba/aw488bO+8+44dmjzseljKGhXPd+jQYXvhhRftoYcetr179sSkCcIjVsTgup/4yMT/qhO/i1OoUI02MBFJj1RvS7Sn6BUySbsIueCnPoX5P7wlD9a6N9943X74xBP2zjvvxFauyGjZQm2kyVsj9GiHJ5U+oWw0I6IcY/MX/RYaicTyROd8jnNm3g90/oDan0icCHSbe4MFP2d8TZt/abDAsTZCdBArXBd2mTCa4PKPoEfPzUyaTR6yISdtQ4f226H337Xdr75iB998w2Z27rDhg/ttaPKgDU1P2tDstBfh61uU0ayyFCSJcFOnp/IHSJEAaQwaTjqpiw7nLxhy6eBOZ0bifDdzYcUqB9h2jAcS/GQgHutZaDnZCeNVU1Y9sDGezaCGVc4jR4a5UXXERkdGbczLnpnBpOtluB4PK4TfGT9bt5x4WOIgc4XVE+eFxaQdLje90j4mpecLEub1TE5NxkMVAY/3SHddKMPbShMJdvik1x0vOF0xUY6X9rsO28xTLmzDRj2O2KLlOEe8BS4z3ifTPBHUlKPFSE/2avs5kVju0GJaL6i1H9TnkNxE4kRCuy3ML/nb87IfwdlSpKyPBRxTLRhNHL4WityVfijrKOvlLLtShw/anBM327fXhvbusV2vvGTbHn3Ytj/3jB16+00b3r/PxqYO2YQvpBNkYxuXImPd9ohYaFlLPZpGOTCLhBGkaQvRISXo+cIZOJz8z4SFLKyCKQBUczMGPtgQH+n6YDhRIi7GisFxQlbubZu1P/6T/8vu/N4P7Ke/9PP20es+Zuede37ZcveJAll79+137Ktf/ao9/sTj9t/9d/+tXXLpJfHplj/72p/a5k2bQr75ta/bG2+8aQcPHXbSN2K3f+52+/xP/qSdveVsGxkfN+dONukk75tf/7p948++Zof274376dasWWfX33izvfTKq7bdy/x//p3/2i7feomtmnDS5784vvaf/qP9x//4n+zQwSmfUMN25pZz7S/+0n9mV155uc9h0r9q3/rmN+yJJ56yM8+5wDZs3mxbr9hqv/rXfsUuvPA827Hjffvd/+Pf2YsvvmIH9h32PhixW2651T53++fiG5YrVqyMHh0ehsTF1LXp2Sk/R7jfbjTq5CSLk8f11L9LgaYDeSGtuAggjc/e8KFqfSbs05/+dH4mLPGhoZ6vgDnLt19ffvnl+EwYH1bfunVrfCaML0rU9znVczuROFHgzQWsNc8884xt3749jAEf//jHbZOvOcxB5l49b/t5DobhBdeZUjz9GitTIXKs2fFKE26cg2kF23LheP1fvKZsdjq2XOcO7DMI3eyunXbonXfsRw8/Ys89+aRNjI/Z5ddcY1tv+JitPP88G163zuZWrrK5sZU2NL7Chka9P6P8KNIrK22hDaU9pVpWxM5qyBMXJDgajj1QOAWH1PRex+2NIzVimDyBk2B+O7Lcm8B+fLFwMa9ibsVY+eTqEMOCOGe8DD7u/fhjj9kd3/qW3XHHHXHCTTtpm/aTcOeOHfbwww/bt7/957Zj+47YUt1/4KA98sjjHv+4E6xX7dAhCOWQHT48adte22bvv/9+3N/ns9Jl1tMPuN6z9tY7b9jU9CFvx7Tt918Y27a9bvfcc68vMq/4L4xmUs02vzD8GDm/44EJb+i217fZAw884OW8GMSJLmBL9vnnn7fvf/8HtnPnzrBCkpN+4Hh1TeCoo4/Kv0Qi4dDC2c+LZ6K/UM81/PyYwEonModb1rE+hh8KVCn+Yi1rIgNljT5SgLvsaLGOTU7Z0MFDNrz/kM29v9MOvvyavX7vQ/bug4/a/iefsT1PPGXvPPiwvf3Aw3bolddsdvtOG9p/MPLZlK+7vKvOiwse16ynpYamPSWhSCy0jZAU/w8eThGp0wB3BynzqcVChJRf1Yx9eUAhTo6xsRgN/LyPbWSEp0T9MHzwRsKcyxYqT4CqNHSxYJWnRrmf7bvf/a79X3/yJ/Yrv/Ir9jv/6nfs//j3/4f9w3/0W2EF/Of//LftpZdfinvytr+/w/797/6evffeTvvlX/4V+5f/4n+13//KH9o/+Z/+J9u8ebPt818W+5y0eQu9vinbsetd+8Y3/9TOv+Bs+2e//T97uf+7ffnL/4v98l/+S17nXfbA/Y/Y2rWb7K/8yq/aL/+l/9x+5qd+xv6H//5/sH/25d+2f/SP/j920SWX2L333Wd/+Ef/wW686eP2D/7B37c/+IPfs6/8/u/bVVdeFU/bbtv2lrdtMo6NLVdeisyxYqXjYIPUcsI0EzeRWO7gWlHO/2K9BrW1BLTDicTxoJ5HtR9rnebeQIDDQljaK/7G+sPOUUcwxtAHIa5DH+BOz9kwtyw5oZvb7Wvozj029ea7tuvJ5+zpr91hex59ys7ac9C27Ju0A08+a89889u2x0netOvY3gM2NOVkEGJ3yOXwtBM8SOJ8PVTRGPAKIqkkzJPARgYMp4DU1VhKD1bbIv4PqxsEL+4xi0GaCXIGhwk6A5GDrHkErxQhAd0Rz4/wdml+EZQHJFzV0z7/E1+wv/Nf/zd26aWX2orxcRv3E+7iCy+0jzhxuvC88+y1V1+xV5zY7dy5I0zpl1221T5122ds9dp1UceqlWvsk7fealddcaWtmhi3iZEhGx+es01nrLGf/qmfsBs+dp2tXDVhw6NDdsamjXbuBRd6s0ZscnLaplxmfUJPTc6ExQ+LIA2jntdf22b79uyzTRs22M033WwXXngRTXYM2bnerq2Xb7U333rT3nv/vfhREmTWEb/4ohuabVcCYCndnUgMMHQtqSWRONWof1CAQZmLHeLK7pj/04uFh0P8GDurEYuRr1Pcbz416UTskNmBQza0d7/Nvb/dDrz4kr1yz7327He/Z2v3H7SzXX2Dr49r9h2w1fv229B779mzd33fXr33ftv//Es2++6OIHd26DD3SEXRsQg6k4OwsTJyVzoud5nPM7my3hYZTJwSUqepO+QdiahT43HniPM0KTk6Ex41d7C0FWucR2GF8nyxh+/JPPXCPWSQdJ8uKAfP4/Mhwzxw4BOuM54kD4/aJZdeZp+45VY7w8kT1sBRL3/D+nV2/rnn2Llbzra9e3bb+++9Y7t37fT6ZmzzmZvtoksutpHxiahzzInghU7Uztq82VY4IRzzho663sqxEbvg/HPtfSddf/ZnX7Ov/t//t33tm9+w++5/wN559/24d2/GCR0Tj+1WCJ2Oh/sL9uzeY9vfe9/e2PamPfboE3bHHd+xP/qjr9off/VP7PHHn7C9e/fa+9vft30HDwSpg9zSR7F1630Q/RS96Wh+lRwvOFHbFx3i6tfC6ISOk3qZo+6Lo0ni1IIFNR5ISiROAXTdxK3P+ToeaRO9vgLNjkW1scb5H2tPrENO6IZm3I+w1nH8kD6MDzNOwHhbxYH9Tsr22bSvd/tfetnefvgRe/exx23fSy/ZKk9b68RvNTLtxM7dCdfd/fwL9tYjj9mbDz9qh1553ea27wpiaJNTNtdI83mnzprPfX1s9dI+/ZUvUrHuNscxYDjJpI4ORZoOjj9cJkAjnsC8Vv+GFa7paLYXebp1dJz3wUHiZp28Yasrr9gt7/Z1Quc5p32MmDeAg5qd8okzNeVka9Z4jXG8/82F981h1YOa4NIKGsj/69essS2bz7RxXwAO7d9ve3fv8vZA4kbivTjkCUrjbeKp2jGXcS9jdHrahr2uWZ+se3ftsD/8ylfsr/3q37Bf+Sv/pf0XLn/37/6/7PEnnrR9/quDo+QddyMutIkm0zTqIfDG62/aN/7sm/brv/Z37D/75f/C/vNf/iv2X/znf8X+x//x/2t33nWX7dq7h9MoSF3pKBcPDA+N+nGPeIiwp0e/I65yjCBvfb+HLkoQOiyKSte7lwj3kkFHfaz0hYS+qaXdT4kTh8X6kzQWTpE6hdtbsaBvF9gKHMti/XEsUFm1JBZHtzlU990gzDGBI5od5oEEVmQP+bH5meZLtZ9r036czt+Gpv3YfXGe82ugXwg9ji1TJ2L72HLdZYdfe822P/G4Pfud79i+55+zDdOHbfzgPhs9tM/Gpw/Z2tFZW+t1rJmZspVO7N5/8il75tvftb1PP2fTb71rtqdY62YPHLSZ/Qec2E16HYUM8MJjPjvGmzSCyDnX4OGJaSeWhMvqO3g4yaSuG+jItkAg5BeqsDssjJwYXIwRrFwHfBDffe89O3hgn435POLdNbw7hIHk9R96OaFeC0I+becyCbFs8cgzryOB1u131r/XJw73y61bv871pm3vnp22f/8eJzO8S66Uw5/yTUPohp0E+qR69umn7X/5/33ZxlessH/xO//Cfvf//D/t3/zv/7v99//g/21br7jCJlaMe85pzzfp5NTJkft5czZPrsbxebu3nL3FvvCFn7Tf+Re/Y1/5/T+w3/u937OvfKUI9/t98Wd/xs674HzPy6H6MfkxsGDxsAcvLKac+GKF/0GKO314DKgXPYlQx7XTljPa/VGH6/hE4mRiKXNNJGMxAfXcXUq5ieUE1s/ysCLTwldEDGKdpdxXaYutWMgVc4eEKSdfe/fY3P597u61/S++aK898IA9f899Nrxrp62ePGwrXVa4rPLC1jg7GT3sJM9lla9va6embf3hKRt9f7s9+e1v28t3322HXnrBZt9714YPH7CRId4NC6HzdXra10K2eb3+uN882uZtoW0Nh4iGDyBOMqmj03p1XNCSRkDx64JS8rmfiwy+ZrIwDpCxtWvX2OrVq+y5Z562t97Y5gcy54MKNePFwwftueeftz0+ebinbczJVLzPxouA0L3++uv25A9/GA85EDfpzP71N9+2bW++Zbuc1G3YfKaddfbZtnrNKjuwb4+99/Yb9q7LrJMxiONB/6XxtNf7+huvxytPaNoB/7Xw1tvvxLdgV6xcZT/7pZ+zX/yFv2C3fupTdsGF59vExKg3nF8L/vPFf32MTgzb2MSIHZw8GGQMYsarQdauXWsbNpxh119/vf3kF75gf+Ev/EWXv2C33fYZu/zyK2zLOVts5apVQSrpDM3LYiGirzgiR/RTr75fGubHYiGIz4t8Qd0H8qtv6rBQ+xOJU432OU14MUkcPwa//8p6yyUtLmuaM3HYEDngAbZcIVi+1tn+/Tb5/vu25+WX7I1HH7F3fB3e/9qrNuZr8YSTvhWut8LX1JUzsy5zHp51mbFV0zO2zt31k57ma/S+F563tx95yN586H47vO0Vs13v2dChvV6P1zHrdc3Fnpq3ywnc0KiTOUgmxo5hG+EdabTc10wtl4OEU2CpY2jrhawdngfzQdtU9aIY4Q4pKxa388873y6+8AK7757v27NPPRlm3RFXYEtz5+5d9n//2Z/atrffsou3brXVZ6y34dERJ2U+0D7YDz/4gP3hV/7A3nrrHZvxXxOHfLLc+9Aj9viPfmQ7fNKtP/NMO++ii+ycc86xqUP77dUXn7VnnnzM58pBG/Ue27Vrh331//qqPfjow3bYfxVMepv2T07Z3sPTNrF6ra10GR3lPXez9tyzz9h37/y2vfPOG3Z40knkkP/SWDHkbVppq9evtL1OGiGJK1esiAcj+Nbsiy++YA8+eL+Tz9fiZJmenrOnnnravnXHt+xNJ54HDh6Mp3jRBfQZfUIYlydiycfTwcdLIshHvy92YUqCUlD3A/621PG9cLS+TiQ+COr5JT9SfgwWqeNrSSS6wqcGLwHmqsbukE+iIpg5eH8q3GnY55ATrTlfR+3gARs+fMgObttmb/ka/PR377TdL71ga2em4sXCY07oJnyNXuHlrvA1b2JyzlbNDLmYrXJyt9ZJ3jonfOsnD9tmJ4B7nnnSnvrzr9u+55+0mbdeM9v5ttexy0nkIecL3qaxcRseGff2jTo3GHNxd2jM18hRn9fN7t8AsrqT//LhTvGFqMkfA99BISfoQtqCXQ8Pud873YkRpt34AgQf9vU4BmzX7t323PMv2n/44z+xN95422acmI07A6cMJtjGDWfYLbfcYrf+2I/ZlnO32IoVE/b6G2/aP/vyl52U7XYStcp27NgZrz+Z9om5c9dOu+HjN9rnv/B5u/mWT9jatatt987tdu9d37UffP/79tTTP7LV6zbGRFmxcqWdf/5FYfHjO67//W/+hp133hZ77dWX7Ld/+3+x997bbuMrVvthjXv8hbZy1Vq745t32C/8/Jfsb/+tv24b1k3Yc889Yz+4+277s69/O4jlR67+iP3NX/1rtnPHdrvvvnvt3nvvt0kniitWejn+C+PSy7bax2680W79zKdsE9bHkRE/Xu+T5gsUELpCfIdia7r8Qin92JtKHIl6OnChr8kI99Pt2LEj3qPHS12xLOrlw70Iy2JEph9R98/Rjm0purUOGLT+Otmg/5DYTnEwZ9svH+bFw9ddd12kA/pY/d72DyrqeVb76a8a6oNebuLo4DrJO0affvrpeJcpXw/iOsnL2tWP/T/nvP1sn0GM3PVl29chbtvhNWMjTiyciTlZY8sVQje0f5/NbN9pe194xV6+9z577aGHbPj97bbm8GFbzQ7YwX1hoVvtxG3V9JBNeFmj0UVzNunrm5dkNjFhU96XB0dHbLfH7x0ftUO+To9ecK5d/GOfDBk991wb2rzZ5tautxlzAjfKWyh4QbH3NWX4f/HKL3fpez2AOUgY+S1H4z/JaFsq5i8soIT4v93DxOmiTVrh1itXrLQ1a9Z6mWaHDx6y3U7QeIUJ+/jE33TTTXbTzZ+wy6+4Iu6tI+u+vXvsgfvvt00bN9nWSy8NUjc5NW0jo2OxTfvpz37Gbv/xz9uq1WuCJPE263PPPiu2c7l3D8LEbQJr162zH/vUp23Lli125lln27XXX28bNm6Mt4XzhCuWtQMHDofZ98orrowFZd2aNXb99dfa1ssudj0+OQYJG3FC+pZfWC2I0cdvvMEuuOAC27R5k7391lvRNk5+9K7w47jRSeeW887xue2/QOgT7wf6w1vVsdrxJGz0ovcFRDgmbqQcO9oXHhYAXuD85ptvxsI54SfZhRde6IR5RUenjV7xg4CjHZvSe+nVi6swyP11MqF+o0/5Bc4b/XlR92FfNM4880w7++yzIx3UfdzLv5zAcUsUrl1Q+xOLg+sk8+49XzO4XkJyel0n+7pfuUHNVxtIUtkdYk1jvfEFDeNLs+06dKBsue59+RV7nRcJP/GEHXjlFVsHoZuetJUuE7NTLk7DvJwVzgfHfaEdnfM1jfXP/fQTn8r0Rc3XYL6gNOl+J5M2bTv37OBOdZvzNXV89UobcW4wPLHS9Ua8jWEu7JTB+o2RKNrpnGIQ5/UpsNTF/+EXuMHSR70EHLUJlD3vuDfMM0LkOEFIj9d34GMC+UWbMBY5vpUa33YdHvMi0YHAOeVxLxYshj3y+i+H17e9Zv/8y//MLjz/AvtxJ2+XXX5VWMJmfWDjSVpqYFHwOpk/Y95OPuuljweXV6dgMfTyh0ejtdSI8FMgPovChGECMsGbVPpgZop2OIse5bgnvQyeyPHpNTTueXlq1YkeE41WEB/krOSnH/Dza4iHirBWojPu9dDOmJfexin/pYPVka1f8pT31h0b6umgX/HleIaCyGGp48sbWEDWObn91Kc+lZa640S3U2/Q+utkgz5E0lJ3dHSbb72Q8/D4sWwsdb7WQZA4XtbkifFVvsz6usY94g2pG+JJ1x3v285nn7HXH3rYnvnz79rYjl220fVWHthno4f32/jMpK1e4WvW1LQNH+b+uWGbsBEbs9E4n4ecFM+OjdgBm7LDTugOO0+bdDkwOmT7Pf7gqgl7z8//mbPOtFv/4l+yc2642VZfvNVs/Zk2M8xn2XwdHPHyXZ8Fkyd2aT9d76uk+wdrrpcr4UkHndaWUjXUpQaTnYkeREZ+yAlZHCXNB9kZDiQGPSx0rhzpWFZnZyBj6JLmNIuJ5pNj08aN9l/+1b9qX/zpL8Z75rB4QYaYmOhTBKUMEfA88RULfi14W5kYMEUmAa8kiRcrksfrmjo8HXXGdme8qgTzs0+ecgsfc99/rUGMPByEFfKG3ljRjYNz+jlbvpwx7RLv0WkmXiQ3wAuZHW0WMU6maSe29FUQ3bivjj6rMh0HaJNEKH0/HBepMLF/wDqWO9r9m0h8UCxG3DTfliK9sFj5ieUHpkPMGV8XwtjgiLcv+BrGQxHT29+39154wV54+FF7/qFHbHbPXptwEjjuP7zG3V3pBazydZPXgkEEeecrtxZ5iTZLGY2BhzWctTHe6OBrI2aOEXdHfc0cm56x1d6O4X0H7LHvft9+dM99tv2Fl2zq3fdsiPv4WEtnWSMxuHh7+aPN/kdo0HCKSF0bpSOxPrU7tVw0CpkRykWmEYiVkzrIEGG5JZv03OvjGCZX/4NweZG2atVqu+76j8VH8devW+d5UeR9NVjZGHifMC7FYOtt8DzQOAjd7CwlYfmC1rnf1eNjxQj66LpEG4KPuY6HIXFMTLUMHx8gDpIY75Vzt8w0j3dyGSyQgkCZ0OXYin8eFB4JIdJrimrCtf6xgbz1xT1Ogkb45E2SukRieeKDXFeWC5ZDHzUrTyw68c5V1lDWU3Z4pqdsas8e2/Xa6/bCI4/Za0/9yHa9+bYN80oSJ2HDInGuOuZFDHvcqK+TGNO8IF87S7mUj+ECIQzY4SrJYRpxAunkztf4kYPT9t6Lr9orjz7p8oTtffNNm9m714ZnpnxNLGsrO2SxQFMG7YyjGCx8SKSuAf0ZRKyAE2HWyo2X7c4uhApd/ueetDEbH5vwXwgjPlA8HMDwuw5bmC4xv6IYzwPB8uEfGWm+v9dMFh4yKCSOSeSD7WG+JzfmvxzG2NINK5qnzmLto4zm0WhXHWYS+SRkC3Slkxxe/Ts7RZmzQSIhc1jMoiafkLyA0b3RDgjibOz3Rs1xfEDbnWF9bO6RK1ut/i8mMq1me5iHO3hnnv9icb0Rrz/6zuODGJLiB4/e8VxcVJdIm8KgJnXLERy/5EThZJSZWJ44kXNI530tQu1PLMSy6RsOE4OFHy+rVax1TtZmDx82Ozxp+9/fYa8/+7w9ctcP7M3nX7ZxX8pGw9jB+uyZyU9f8WAfxMy9oz5/p6cmfcl2gjeG3Y7kspaN+ZrP60hY16FmQ8NjrjNhM77u8iTF2PSQjR+as3eee8l++P17bfur22xy9+54WGN4mHWRXa3JWOvnfP3E8jeIY3XqSF2r79iCZBrU4ILEFiYdPY3ptYWy8JX0wt4hSsQ5+cL866M97ZNjxoVrG5Y4T43JQLl8c5UYn3rxxwuKPdp1eWLWJ4X/NybTMWWHLjqFEELWeJUIjN/VvPO8PJ9s/DLx0r2MUk7U62XyMuH4YgY3vnl8HLKXNzzC9iXvrSOSvnBdF8hZsYCVOI6XcJA914ttVc+PeTv0IK+uV8ignwQeN+rl8quJ4+UEOBEXeeqoXZWpcKI76J/so0S/olxvF0oiITAdmBNx2xHrpsf5imYzk5P25rZt9ujDD9t9991v+w8c9LVv2KZdJkdHbGp8zKYnnIyNjtssRplYZzFg+PUSY4mvY4Sn53wdpnwMF643MzUV6YUjDNuUM7uDTugmh8Zcxm1qeDzuncMAs90J5Z/fcYc9+MB99t67bzlRPOht5KMEXrJfk1mj440R0erBAmNwatD0XffrwnxkXDgIhkBsIrpZHEsCXkihiGFccGBZnXz+jyPDdQcSxEQgBEnje7EcOWQroj02SBluhBlqBlyFNAKiHbQLgUz5zMJ1IRzl8W4eL4/2h4x4DuK8iHiWw5XKXQGlPR7heTk5cL3epi6dMKHh/8VxNm45ifgjN6WQVuKJKbqlnGOF8rVJXBtJWBIfFuq5d6zzvNu8Pd5zJZFoY9nMJQwqfiqVtcfXnea0mpmbsX3799vh6SkbX7PKzr30Urvgqivt3CuvtC3ubrp8q6294AKbXb3aJkec4LEb5qSNRTlWsmYt5z2vWoJZd1lm+eRn7KCxWg+P2cjKdbbxgkvs7K1e9uVX2/kuF7j/7AsuspGJcTs0ddj2799rfFWqrNFNI32MBnWcTvrTr4uDqhHIUQF0aCG844uJq/hD5qHmdwbIHSZZp+gFgGpBtjDewtYbJZzG6udMz2XcI0p5RNEmqmHKBVnzyRbbvEw6Mvsk7LTD/WXPH4JIjtAIK2KwuyGe6EGzIEhgUDwXT6DWcijhKwpx/10hhKXlhQ6iH6dB6Jf6g7DGmVDOhkg6TrT7ttdTXcvp6dfEhw/mpc6vNrBad3v69dprry3nYzWn2/M7kTgR4DrJK3Xq6+Rtt93WefpV8w707dzjEPw4ZrlfjUPw9ZAH9vw/m9q3115/7jmb27PXxienbOTAoXgHHS8WHp2atqFdu+3Qa9vs5R98z2bffstWHzxg64bnIp1Xmoxw/3osvEM27Gvf9OxMELyxsXGbHh22gyPDtsdJ4OF1a23svPPswk/cYqNnn2NTq9cGSZwaH7epVStsdv0Km1wxZkPrVzvZu8zGVq3ypRSrYrO+a71vVslBuQ4ceVU8paATkUJAusNnT5Av6YJ5/7zPL/SuV/7KfWXNvHBfEV5dAunhQ/4QpNjW5wSDcEGe+LUQRGw+P3Uz1jHejVuIGOmNNNa68PkEZLJjdYPIIeUeQWiYlxy/GEqZmICPhur8b45zHjEJo2ECJI7wEgpOJBKJROIDACMGa9TsNOYGltARG3fydPYF59s5Wy+1s664zDZfdYWt33qZrbr4Ipu46MKQ0fPOscMTK+3w8KhNehlTvkTOeDkzvihPNR8EiBXVF0m+BsV93Kyj8RRspA3bzNCoTY+vtKFzzrexiy+1FZddbmuuvNrWX/UR23T5lbb54kvsrAsusM1nnW2jTggLaeP++5ny+i+vp15fBwUfMqkDH4CABOsKjwvEiWnAgBe3JmdB4lyDqcfkqe/TDM4FfNDZ0p32xGkmEBox6pAwBPMtaoWgBWFE4o/8qIbPoV8bHvbygraG38uIpro/Ki/ZjoRKlfTCYmmJRCKRSJxgsGj5OhjbrrEeYg8ZtiHufxsfszUbN9iaMzfbqrPOtFXnbrEJl7Fzttjoli02cvbZNrRxkx0aHXNCN2ozw2O+5kLoWM14TpW12lc/Xx/Lm2bdT33DZXXHajeDZZD78yYmzDZutOGzvexzzrXxc86zFVvOtZVbzrFVm8+yNZvPtDVnbPB2sUtGe0tbox73DyJOA1InxCwp3qXAR4bhkUCQmAJlGjibH5L4NHBCVkgdnxyZ9V8Fs07aPIsPKhuePD0b9+c50eKpnKlZ/6XAhIoymWmh5ToxvQpJjJTih5vRGiZ4vHeObvUETMfDYUqO+diRofhJ4vmjEUgcUUDHUuAumSOsOIE02lWlHUP3JRKJRCJx3GC9CVJXyNwwD/85sZt1sYlxm1uBTNjcmtV8MslswxlF3D+7ao0dHnZS5nnmRseNl45MUyBrqMfFbUy+rnEv3NTMlK/J01ZeHMwL+H2Fd//U2IhNT4zZ3OqVXuY6L3uD2Zq1ZqvXmPF5TZfhlWtd3M9K6WsyDz0Oj47a8NhYCJZAkb1BwSkgdSIdDfHoipgdReL+sXYHL1KGoiA/HihUK6ZD5W/gxXae1OHmTA6fPXUmIYkMrA/ymE8qXoDIQ6tDbKf6pJqbngoT8yyPQiMez/07CL8o9D46yByvNZme5Du1Hk/YeSHmZPw82cOLiCX1ZJr3eTEdYjePdlQcstApB1eSSCQSicTJAkYVDBdOwlgLY83zpZD1aHTMhiZWuEw4wXLitcrJ1Qp32QrljRR8l7V5E8SIu+XNFr4u+pocjwc26xsO1jle4tURX7JnnUjOjY/FN2FtxQq+HcrLaIvLhwXGPR6CSGlzvs77Uh6vHPM2soU7PcOtUqWOQcJJJnX0GIJBVf5uaBGQUDsWUqKyi9R/Ja4YdCkxiDl/PunCOhf+8uqPMj35QcAk9Tz8OuD9dY2gUSata3qxHYlS3NPEh/mOWCY2v2TiV4drdMLuuvCwRQfKF3krEI/TuPNATyK08iYSiUQicbJQr0vNfU1lVWJ9cyKFJQ4DCsaTISx5Lk7gnMX5P5G3cg96+D1/lOHrIGGMMPH2Cpd4X52XjSVwxpdRiB3bsHPjXuYYdbmMUX7jp37KJBNUB4MRVCBK1t/gwY/yZIHRRkTojkbsajDQR+vuppwuavNRqo9RLV+OCD7lIcgXvI2BjskXE8DhE2cYEjd12GYOH/T05l1z5PPMMfk8b7ycmMnm4ZGIp0xPIL8HRjS5RpExm/MwvyxmXI9d15j/VO/hchpEq4rEsfuEc7dMO2Qh5uNrKTgyJpFIJBKJEw/WmSBgvqjx5OqIr6kItx8NzQ7bHC8HPjzrrq943Afluljl2AmzmWmb5QlZXwV5RHEIKxrviXXVMSeB3Mw06mst75rldqhiARxxYjcU971PcUuUr6uxfIbxxTOyDvu/WPabxdZbVQii/416uaNOLHmnayzsA4aTSOq6IWhMI22UwV4cVV5XbbhPMzBExNSqRNSnmTA+4MOzMz7ZPOzFxNanS+Fi8V+z3eo6M3x6xAndocNmBw65OME7eNiGXIbDPWRDHj+0/4DZPpe9jUv8lE/KaZ9whw/Z5OTh+PpDkEiviF8bTLwggLQB8Ta20YvMLQ7lOdZ8iUQikUgcA3wNK294KHti8TACxpHY+XLC5ASKRXpoeNSGxsY82uNisW2+6DAz5XnZTJ2J25lYtoZH540b7Gyxmxa3N7nE50HZTnWJ5RoddNlRm53yshu3wzNwnfThp3zPRPU8/VreSDGYOEWkjg5GQO0/Hih/IS4MagxskLjyUsJg5c1fpLg6JAoRoePAsbIxyp3XjkC4fLLNHTroZO6gkzcnc3v3me3Za7bbXZchZJf7kZ17bGinpyG79ni6CyTvoOd3QsdnxygPKa308r2eqFvtcrcciSPIaXfUSb21EolEIpE4+cCogpQHEZ0wDQ8XIhapvsI1CtzeFAsYCxdWDNbBoRnPg5XNwy6zHuYF/QapGymvHCsPKrIsF2NIrO1s5c6xFVvqiHdVsnZTLmXxaolhF/yU51WHRN0I7SvkblABtziJoOeOtffo+cVQp/sAMUhDTKbmF0J8hRVxYucTqgjj7GQOcX3MviOQOy8hrGfTMz4nfCIgfIpk726b3bPL5vbstrn3t5u9v6PIu8hOs/d2mb3j8e+4n/C77n/PZcdOm9u3z/M7udu31ya87HE//pG5Ga9r1t1Zb5m71O91a97FfOc/UAKNvzhCJDX+BZB+IpFIJBInGWVV93Vn2NdfX8xmnFTFo4m+5sUDgpEOXCeYn3tZX1n4wojnOnzJf8xJ38SQzXr8rC+Gztc8DVLn5fm6SVbIHZ/+hK7MOdvj+QY+2UnZI6O+5pNn1BUnvBDKHHVdPiQ75u6Ya427AukI9dNm9w4qTjKpo+d6STe00ul5SaBKEyqduActxLViK7b4Y4aF+H/O+PnAfnwvtU5jZkxP2+SunfbWs8/aaw8/bK/ed6+9/sjD9ubDj9jbyIMP2LsPPmjvP/CQvX//g7bd/Tseeti2u+57jz5qb7m8dv999uJ999srTzxhh3fusmEvk/sFhmax1vmvDZrv7YjXo3APgDdQR7WAm0WgjphH79juKYlEIpFInCxglAgZGYlXhpRbm3xNxZLGDeeIx/E9dBbcuVGIW7kvbpLtUFdjo5RblaYhc1HmcDHCDI+EzLF2s4Y39eGf9vU14ihjqtl6ZV2NbVjIJWute4PIudR5YYdNeYOEk0zqgMhGWxaDdGieZJF8Pi6RwvhIyn9NNv9P0kQDkigZ8s4NmnZ40kndLnvjqSftxfvvtRd/8H17+b777FX3b7vvbnvj3rvtzXt/YG/d8wN7++677e17XO69x9685x5PvydI4Iue9qzHvfTYY3Z4x44oEwthEE39FdZZhAaFw/Sr2lkfM075r4nlD5CGry2JRCKRSJwc1KtMWdNcnDjB4+KtDiiwWMWCxVpXNIvFjgAEa6g8wujJbK6ShKUPix6pyho7bV4+KyTEb748CJv7Y6+2KYiEKB4/KOHy5okmSFvjr0DuoIB+O0mgq2JYKlG4N6LDQ4a7iNIQdCnNp4YPYNwz57MCchYPITD4pcAi8YsBGWl+TTiVcxVaNEp5k1PxUMTUzt227fHH7Pm7v2/Pfu+79pK7L979PSd437XX7r7Ltv3gTpfv2Bsefv17d9lrd33XXv7+d+1F133e4579wffsWSd2Lz36iB1ky/aglzvt9fhPkfijLbTZKx5iHzaa6v9Fc8tEj1ZFu3Hlj39KdSl9VEKKlUYikUgkEicXhXTxWCIrUixm/ucLcSxHrGtYzhqJ1c0TIGG+Js7xJmH2sfiqBPlcnaWu7M6W26WGpp3gYXCJcv1v2Gkd27QNsYs1kPLmyq1XTaTXj4tX66S3LtZRD3to1NPHRrQeDxY42pMMOk1yMlAGvMiRKClN/T6A8SOhDWX3yTM8MxMfFl7tstZlzdSkrZuctPWHJ+2Mw4dsA3LoYPjPOHzY1k8etrUua6ambPXUtK2enrGVnm/c3ZGZZkKq/KYNpSvKJBWYfI3PY/ErvBBKmU/trZtIJBKJxMlAvep0DGMdNIteQ76OhNatQrjaVCSscxhq3K/snW+7Ny4ouV2DhV2Lezj8p7JdmiQQTWpkENHnpI5RaYv+d7dT5UKipHQQA8tPBMgXj9Q4IRt1d3xmzlZ63OqpWVsz6QTv8LSTO5fKXQuJC5mxVZA5lxWRd9bGZnl9ipcX4mXXlTpKkP9bCceFk9G3iUQikUgsgp5LmBJ6rW/zazFr8wLN8JTYbitbELpIcDcyeiCEuHaOEo6kZYJTQOpOLjrjydjVbqQuRDsO1Q4gX07oCrHjSVWz8blhJ2pmqyfnbM2UEzx3O+LhVU74Vk7P2YrpWZtwd8KJIIRu1N0RiJxIXdw04AJ5dJT26reGt2MATcCJRCKRSHTAgic54TiphfcV+prU1cPo1KlD6CSd9DZnItKJFk/TzFvoGpnmyZm5MP2OuTvmepC1FU7aVjp5wxJXyBvixM/deHLadUcbgdDx0f7YekV4GodKIXUNsYuudzKXhC6RSCQSicSJQN+SOqjRAllA5gpRUhqQW+AhbbmK2DVS7oGD1JmNBrErW6njjXukNGTOdRFu8IybPF0KofPyw9+4/o/Glj+6P0ldIpFIJJYv4h63xo1wCSlwFDSZEoG+334FGtLgS3h8EjiF6oSVDuJpGP/jUeh4SrYhcbVA6PRi4FEnZaOzMzbipAw3ZA53NuIgb7xUmPvnytcq5iUIHeXX4vGavL3malrvEolEIrEc0FntfE0ECrMMLnktbPImBoTUtcH4Fuk20kwSp3UxWRpRhkDzBQp3RyCAQcL4tNdMuCFO1uTn4//DHtYHiUNId5IXpHGBNFUkEolEIpH4gMh1tY2BJHVllDXStb9C/Axo/IKrEQWhm98YVf5Zj8D+V8gc/vJ0TgkXISzBSucCmQsLXVMWbvgTiUQikViG6LIGll20pSOW0rqcXFcDA0HqjmUizM8CclU5ZUlDmuh4f7X7yyPU/O9/fIS4IXdFyFDcIHNRTkPmYvtVfqRRR3ogt14TiUQiMdjwtZQ1sY3jXv8WWVSXGQbUUrcIRLBiEoi9KYwUJ4ic/6stcNpePdIqh17tp4ymvKiPiAYdBUcd70hCl0gkEolE4njRt6RO3KgjTpDmw/P/d0Uk+H+hJq3GhWjhxeXeOCdl8eDDLMIDEYS94xTvUp549WyeFkX6H1u4se0KWlXI06QmEolEItF3CENEew11dNa2SK9c0IRrI4ZW62K9q9fu1irpCaTGVm2VPxISgb621DGMITERHM1uKARvwYFFcqMTkwtp/EL4S/zwUFCyeG8dDzyUJ1/d9TBfm5h/H1156nVkbsj9FsJ2a5A+L698s84xPDJfV1NN2PWaZIEJ3dUknUgkEonE6YZmLdUrxeJ2Jd2qFOnzOoGOu5CY4cb652tm+Wyr/3kBLIeddbHRpYzhYV+jFRZaweWKvt9+ZeC7uo0cgXZkHW78mqBI2ypHh5W4+Xi2XT1XuBA8dOpij4QqSCQSiUQikTgx6HtSB4LV44rQNe6SUfOrxl9+Z5Tt1CByLqoDQldedTIfV7KVuIU4MqZ7XCKRSCQSAwxfN08ETkwpg4kBIHUNoSuBY8NSM3XMvPMZRPKC4EVMN/ROKWbqJpBIJBKJxHLAiWBkkMMTRBAHDX1O6pzQHS8xWiQfSUOdPdgyB+eoyP/hkjSL6xHhhr8LSvamwPgvpKMbcYlEIpFILCMkITtpGABLXQNxphMBzTd3IWyzXm6RQugKqWvE1WZdMf58oi4+VT1D08hyB958VYlEIpFIDD6ObdUrt1eVdTNwRPZcRWsMDqkTqrH/wIC0IcNDNjM8bDNO6oqU+HB9Qs24ajx46+GORAE1PPIIdItLJBKJRGKw0XmqdSnwpTJWS1fvbjpJYicMDKmLIW04kkiVhhkC1ptstVApyIvbIW1eCc/A6pEI4gqIn7e+SdSmQG63JhKJRGK5IxbHE4yTUWYfYiBIXT2WIlOKa7ug9i9AkxBPzy5Qmjf+zicRIxEaP+StS3TBgkAikUgkEssH1draXiaPZ3WM4has18sbfU/qjhjLpcyKJc6ceFjCBbd+cCL+p2IXxc+nCnXI/QsTu+gnEolEIrG8UF4JVva+Omtir8Wxio8lmO1bPIkOBuqeuuBXHwSViU5F4Xb8nhThxhUiWwPoHWl0bOy21ooNFN0uJ5FIJBKJwQILZCPVWlmj0mjgNK91u1LcRtX4ha7FtYiAdFq0cWAxUKROKEM3/1digmbNT4IYW0LzQ94RT9MOqkqI3J7Ee+mE8pmT+bRId39Hh4zhVpkSiUQikRgIdFvbtGo6Ipn/agGN62pwsEjxxbS8Hqys0+171AOxMCP4KwFhtVOgJChv3BNfySCj70mdhrAGZIsDG/H/kfJ5/TJZIkMnUzPUYmQxKcqQoxIEDfGoYVfFr+ydudVIJ42iGn9JxEOZEgHFOpxIJBKJRH8gVrTq6dX6qdQweOAhnW+gS6+zHqIzH4cvQsPDoR5ZmjjKjbLJy4dhXSfWVo8otSA15uPgePEGi0o6JPKIfIMBuEifQkPeHZ1fCo6eQ9crezPZyHdk3lLv/MSYR/kOrNCkHFFInSORSCQSif5DLGtBrhbiqLaKyIJBRZhfSY+WtWgeTQvM64SvY8EbfPQxqQOLDe78IB7bcJZps3jZFTqFS7/KV/2KKTiGchOJRCKROI3RXlt7ErpOfOPxjOEjQ+MX7wp/8Ub5koKSUoidtBpElP8XUqJwOwbBxl9Lu4hBQJ+TupOLEzLmRxC7Bh4dkyqRSCQSiX5Es451SJJwxLo3T8sKuB1qLux1cRPUkcmB4Wobt1NH+JFZT0M8UtVRb4j7Z4te3D7lMuQVDREXUsKhhwwQktQtEfWkO2ZL7oJJM2AzKJFIJBKJI8BC2UMgWY0E4YKkeaQEYoLMxzmkj1/wcAiQewQ8wQngkQo9M/Q1ktQtAfXQLz4Neu32N7E4kkQikUgk+h7dFrVC3MIC0tlXbfyNOrEibsWahlu+11RcSJwTOnSrdOI61jgJaKoJ4G/CSi6+ktDJVukNCpLUnWj4TDmmb9olEolEItF3YI3rtYdZsyUWRZxGp3FDw73aHo03TLg74u4Iruvh7xC+KMcjmi3UptBG1I6FCD7pElq44XdS1/gHEUnqFsWRkySRSCQSicRSUbGnIGMN3Aupw9XX1Ms2bMkRaUeDK4q4FfH/cL28puigezCd8h4890f64CJJ3QL4FGgm0lLmUyKRSCQSicXQYlFiW+EUT/2/1GVN60gnznMhTfgI9idiF26RiiqiUeIHFEnqPggGd14kEolEIrEoaqpUS6DjqVDHuR9ShiWtvBS42Rb1hPYLg5EZZyvFP2czLrNDs667kAgG8HtZweciqP/LRwgiLfQahQFDkrpjQP17QL8cEolEIpFIdMER6yREqpCpGQ8FSYOsye9pkLcZ0pGGyIXfSwo9zxwvMnHdYqmrhC9OdIG+cCEB3TX7HwNB6hgwDVHxC/PxSwJ5K3Xu59SExJWA8LtC0SmxSgO1P4AiOEpzFrY/kUgkEonTEaxV9Xql8JFrGAQsCFe4wzbH58DcP+OCOzsy7ARuyKZF6NyPK50iJQ0SKAtfrKqe1qlTi3aszcVPCkRHm7AlvSUDhIEgdYBx7UaI6hiNXYx114F0bb4rF+lQtebvyGLn03kaB33iGr1C9kitEBUiKJGh6NRIQpdIJBKJvkG9ZMX2FRG+hlZrWYfQISMSJ3Yus5A7lxmX6SB1Qzbl/inPM+1CfBA8LycsdB435+Gw0nk4aJrrlGW1rKs2O2tzM0U6Lx92zfL0rOfg6Vn3xq14EXXkWtzPGBhS1wsnYqhi7Jk0PXDUOgZnviQSiUQisQjaCx6GD4+LhRQ3PDYLmSqpHTfE19qytco2K2keUZG4IlCXZlFWAQHi2GrVX0fLUcIdRKCTcWAw4KSuTJ4loxrxhZOhN4LsNYoxZZaSKZFIJBKJvocWQIhWszvVXnKDyDnzmnWJnS3CJX6OV5yEH0WnI3ONRHnDruJlu/CQQ9QT4eHY1Yq/CHvSAmJXQKuAoqMaFaFEUPsHAANO6o4BPkmOQLe4I9DoLEU3ZlXxJhKJRCLR33Dy1bGi+fIW1jf3aZ1zN949B3kLIa74h2Y8zcPlW6zDNow4YUOG5kYa4YnVRpyJRVg6/kf98yRRa3AEOj65pWX+NySfxy1h2e43JKk7DjAvE4lEIpFYzlhImip0iJYTtjqxigeFlhXSBh0p26q6A27YZjxl1t3ZoZEihMmKpW6oIXYyvRFPYpTv/6IuJ28ubPXyAhTW7vIilBIeRCSpOyYUdp9IJBKJRIJVsTF3QaDqNRJSFaFGItwElSfcxtrnJA2ZgcQFkSv+GXdnhyF1xDUPS3i87rsLGoMbfkdTDYiaeaed+zqEztXKfXsLVAcGA0vqyhMtTeAEoZQ3iNMgkUgkEonjgC+JZW3EehYxBR0TndbMxkUnDHJOyoYhbPNkDWvcjMu0E7hpV8SdcUJXnoJtxPXKq1AKCaSM8gSsxCtwia1VXCpswvEuPI8WoRtEYkfXLh98AJYXOX0CJBKJRCKRcHSW1ELoWCKHIHMhESjiBI7XmEj0OpPyKhMXD/Mqk0nXmxxBhu3wyIhNjuIO2eFO/JBNhW555QllBKFz4meu33l1SlQrF6dzZ16EOwkDiGVD6soNnB+MlX/Q/IlEIpFIDApiPfT/anokzhRwcjcHy0BGPXLMPWMjNudkbdplyuMOuxzqyLAdbOSQ6x4cHSn+Jv2w+4PoeTEQQIjgnOuYxxVrnddRif5E6ILUzeF6cmleuIMEjm1w8YFGq0fmBex+3j9oEyORSCQSiUVRWTkKQapWQrwu8bSp86546bATtTnESdi0u4fHhuygywEnbPtd9uEfHw7Z73IQf5N+yMkbRC8InpcHsZvyMikvSB3ld6ovLUEKmStkJ5rh7YwXEg8goQMcZ59CQ3YkmGfaK4+bIxsrXVeomEaKE3x+PpLCOmGfkNFt+P1/TQ6vIybO3KyL+4kLDUedPSJpDTv9PVuVSCQSicTpi1jGfIV1ideWhHXM42KNK4j72WI7tHGdfGFZmx4bdXI26kRuzPaNjtueMZfxIrsmxlzGbTcyPuaC62kTE7Zv3MV1yXPA8x72smZj29VXX9Xj/2qUp2A9kvZ6c0keRAud0MekDjBQzWAxbv5XnnKphXFcSOoIaTu2TAIEfxOOAYfaVRx/jps5XdwvUse7ckbcHfGyQmYhdPHcjhcThZSJFpPN81A2hXMCNCdDhBOJRCKR6DOwooVxIta7+bWsmCxY9wg1rtZaJ3Ojq9fYGRdeaJu2XmFnXH6lrbnsCluz1V38Lqsvv9xWbd1qa650/1b3X3a5rfX4ta6zznXPcNlw6aW2/rzzbGT1KjMnicUM5+XHmuttcIcWzbdqgR2xJ8pDltWxtMKnO2An/YtmxMSP4l00LjMu054w7cnThBlcRtMlaJTH8c3WzsQLlu8JPhliIng6nhGPLDY74nnqpgh+ZhDxI+i5+ujMnI3Ozrifh7Cd9nVInevySwIJwqhGF2IXLfBofuVo8rQlkUgkEonTCqxvjciI4SuWr1mxwrGyRSLrW/nP4QnDY2O2auMm23rjTXb1bZ+1qz77Obv007fbJbe5+5nP22Wfud0u/vRtdtGnP+1h97vOhbfeVtJd79JPfdaucP+Vt37aLr7uOpvYeIbZREPqsATyIEas5Twh62s+7VIbfO2OFR0vLWzapXW229rbDp/u6G9S51A3e5f76EHZipUsBs5DDFrxAYgUg8nAjtjctBM7J2Mx6hC1GGnX9gkx64RrctqpIQMZBRWH/6iT+opb4oMTum9k2MkeOjEB8LjALqMed2N2OVCKGztLEGiCgXoilbISiUQikThdoBWwoNs6tSBGa974uI1v2GAXXftRu/TjH7cLb77ZLrr1Vjvnlk/apptvsg033mAbPn6DnXHTjbb2huvcf6OdecsnbLPrbvn4TaF/6S232MU33mjnXHmlja1fFw9f1FDL5utnbYXoeVwlS0XwiGp9Pp3R36Qu+nieXhGMvX0XtkPLzZAlLNfZmg05iYvPjMy6zHgXYMqboQh3/V/c2Mn3S4ad9MV3TMp7rQtZ9DLcLVu6+iMPeRl4L8/LmYufB+7XT4UQ0pD4R1P8RPD4RdAvEymRSCQSyxBYSmJF6wbWryLxsuBhnnwdteFVq2zd+efZ+osvtLUXuVx2ia3eeomtvOwim7j0QpvYenHIuPtXXH6xrbriUlt56UW2+pKLbO2ll9h611/v/jXnbvGyVpbtV56CVXXlv/lgQO08sr2LrbP9tgY7w+hfMCziTowcfY93ZG42SN3o7KwLBK+51y34mZOzxjo3PDTq89EnApa0KY8j3gFhw5Q7PEaBsD1IXUPswtxWKN2MT2b4YLSBCeuEDo0Zb9CMJ8wFYXSBzFEgdRVlm/V2zczMOKnzYIiXiKdB/csgiV0ikUgkTjewYoVhI4hddxRTSJFZ3k83MmKzkLB1a83Wr7W59avNNrh/0zqzzett7uwNNrdlo9k5m83OdnfLJhd3PS3SN7m7cb0NbVhnw57fxkdtjvJc2HYNMuAy7wOlpdFab2tpb2yducxD6269/vYbYBv9De93jF1h8HIJx8epWOz8AMPvVMsJ3tDsTCF2Gs/C1xzeDcM+KXiBYRTItuy0zc5Mul9kzvOGv3yFeM4Lps4wwLmEsc/LPXh42qamClkr8ISw3lGUlzkNgySaeJ/oDZmrSV2viVWTvkQikUgkTiSWvsY06xUEiVArW1mD56Vg2IZ9nR0eGQvxFLPRMRuaWGVzEyvNVrisXm1Da9eYrVltc6s9DGlzv/EwxBqP93T0eGlxMbHEymyzvhhHGxoy0L3+glDDM7+0LkB73e039C2pKwNT/iK8YAz4VVDGLH4f+GjradOS4sK/mbDJMYoudIW7rgu1G3XviKeWbVxNH9duZgmkbiYEQqfJ1ZTjEtuwEXaH2dbUD5uMXwkhHvQya0LXC0noEolEInGysZS1Jtas+GMFi1WsCQksbo14NC/8xZ2ddq0Z8vuaiZ/boJzY2ciozTnRmxsdNxtfYTY2Htu0s6MTNuPxfCpszuNsbCLSwgAzVKRzyxMGmqhHdc9D6/78H6EiS0E/kTyYR99DQxQmXu/8EGKCos/fTxf31DmpiqGEmMUs8HDwL48LS96sTfivgBUjI+6OOKnzZO7Di7xFmDPsqM74nILYxTfrSPHJNTY+YWM+8YZ9kvLARZQfs3jaw94WGGPTBuZJ3KfXzBeRuyRwiUQikfiw0G0tquNiJfR1SxJ3FREX/7OcYi2rxBWGfBmcOTxlM5PTNjc1a7NTrh0ZnbC52xEPz3ILky+ysx6edvI3hW7cZxWPI9rI0GjcPoWMOLFjB46tsqinU29Z1r0Gh1o3/1dW4Xn0Ot5+s9r1PakrQ1Voko9nQ678vyB2RcqwulZjKfPZZDZ9yFVmfdCnzSYPm+3fZ3bwgNnhwzZ38JANT83YuBc46oNa3kHnneVFzE8SnzR0X1jkCjAIj7hCbNNOT3q5h8wOeZkHvWzcKS+bLdjDHj856ZM8bHtFmomjiVRPrkQikUgkPgx0X49Y/xri1MR0BfnKguxL5YiNjk/YyOh4bMOOjLmLtY1lOfbHIGwNcYOwxVbtqI2OjtnIyFik8YKLGd5aocXeidysC5a/krdpTTS3DjdtiP8RFBYe06CsufOMpI9RhqcME1azuAsOUhcSKoyYC4Ruxn8lOLk6fMCGpg46iXOydWCv2T6XA+4/dNiGJqds2H9NDPvkGfEJA6HTp0V4Lx2/CoZxifPJFfFee2zVzkzZmMu4yxBE7oATuv1N+S5DTh6H9u+3ISd2Q9PT/svCM1eofxXUk6yf9/gTiUQiMTiI1ciXpyBIuJ2FtkJn/fI01i+X4ZERJ2tOO4aGC6Fj3Y5y/A8DSbOVWhZuJ3fuQtbKq8IakkaxTXl4oxbC7IyRrSu8HNUToUbVK4/84T2SvHaLO93Rt6SuHjsNU/Mth3KPWyMMRwwJAwOhmz5ss4f328yBPTa7b6fN7dlhc7td9uy2uX1OuA4dsrGpmbDUGa47Qdyw2rmMNH7cEU+Lp2ud5I2GeAsmJ21setJWuAxD5vbucdltttPr2FEk4pxADmEhnJl2rum/PLx9EDeJUE+oJHaJRCKROB1QSJG7vvaF4J9frgo3k4tys3xFXPG6W25dgpTF2ud/LHm6BR0rHJkhdkXNiZ4TwyG++QqJgyAiI8S7yxoZEuqdNhR4OVFWSQ6VqKwQt1pK0pzNNmtzHX+6o29JHWBQOACE7zvwJQeBRyBKKIYuRnfq8JS9s+11e9dlx5uv25vPPGPvPvuM7XnxRdv30ot28KWXbPr1N2zcCdmEZxv1bJRdptr8H1Y6CF1Y7JzUcc9evELFZ+H43IxNzE7b2MH9Nvf66zb76is289prdvD1bbbH/e+/8rJt37bN3n7lFXvr1dds8sBBm4tXm8y3vSZ3SeQSiUQicTpCqxNu7Q8yVYvHQd58pYtXkEHKCpnzf3HvedFBWPKGPW7EdYZHfQ10/XgNSSQW/VgtydaUhUvZlFnqdB3SQyk8Hczfc3dkmtBPJK4NOEvfwoelsw3KMDNNipQ76UBsy7pOpDrrP7h3v732/Av26N332JP33mvP3HOPPXfP3fbyAw/YtocfsneeetKmd+8q98Rh2dPANqZffolEnT57Rt0/GvWX9+DxPrxRJ3VsvY7u32e7nDC+8dBD9rLX88J999qPXKjz8fsesFeee9727thpM1NTzKBSRyKRSCQSpwGOSmw8CWtarIvBvIq/SAkG0fJFc9ajJJA6hIcNZ33xnh2a7RAyZGZ2Nr7oVIrzDFHcnM14HEJaGG0oqymP/NPEU5drkx51kbPTLocH5kldCXOMWOQEHXe/GlW8O/oYMSg+XEGsGKzmJcM+pEH0OoPJLBrx8HA8KfOyE6pv/+nX7YFvf8ce/NYd9tA3vmE//M637am77rIXHnzA9r37tk0f2u+TZ9onxkzzIYhCDBHqhNiNenmjHsZKN+Rkbtj1x2anbcJJ3fC+PfbG44/bU3feaQ/+2Z/ZfX/2dbvn69+w73/jW3bXHX9uLz//os1MV6SxgiZVIpFIJBIfBsrL8Qu5ETpEh+Vp1tcp7gmHIPkaO4e4P9ZI12EJ41vsoer/F4IHAXPxxZl38fvqalO+ZuOW3TUnZ7MzIZ2tT3RdZvyP+CkX9ClPZG7S194p1mvqQpc83o4gd5RBM0M6nkb8HyTShXv9OLZ6/SVO4X4heP1N6hxMp+hqHwNcplT5+cDUKQNTUpyAja+wM886126+5cfsCz/5/7CN686wER/MkWkebHBChoVtetLGPe+YT4pRZ4bw/vijiNiz91J9gEd9sKPzPD9jrU+IDfuvjvio/+Rk3Dc3dnjSVnpzVo6MxBbxypUr7aZP3GI33HSTXXDxJTbh4aFmMtXoNoE00RKJRCKRONEQqYHQidBMNy/MV7zWIedvNsya6OHZ5k0OHuiQMcqKMiK+rJGkx5rqazQChl0P3ZlZJ2YzkzbqZY5QruvNzE41dfo622zJksbyOOvr7LSv27SPukd9jVXZtIk8AU+cnJqMp2Yhn7Q1jqGpd5inckdHw682I9R7+PDheXJJnj5A/5K6Vv8yqEHofFAbfu4RiKtiGuZdNiPjtmLtejv3okvtI9d9zC6/+mrbeObmmJwQwbgnzifeiP8SCGJGGQ79Gpjx8rDYcUMmNfBH+UwwimAi+XTrWA21PQuZ47Ng6zZusEuuvNKu/tjH7PxLt9qaDRvisW6ROqQX+mVCJRKJRKK/IXKDK0KzgNiwVMXCx9rKysta2KzAvvYVwlaIHaq+bJa1EX8j8cYIj4+Xmfi6G485er6iW4wk5GVtnvM1OT4CQP2+NvNqML4SFeV4HeWe+tIsud7YjhWOVsT6Shu9zbSztJU2eh7IZ3V80W4SWv5+AMff34CRaYRiEjCZyoTiL8iXD0h8SHh4NN5YPb5mnW067wK74cd+zC50kjW0YqVNux6WuLHxMZ8sTJhp7xyfDE3xkLppJpPPwKGxEZuc818Qns4NnShFE/gvJrmL1xcvIR4ds1kPT7rGOZdcYh//zG12oZPJNU4mZ3lrtv+6CP0KvSZQ54RKJBKJROIkAIIzwhOm1TrE2gM5QrCMBVEiHRXWwFjH3O8SayFfa+IhQvePuh6kCxn1tQ4Z8zjieRgxvt7k5RMeh0g6gYtPehLnZVO8VxgkrnxqcyoEkjfha/ZE7IJ51Z4+6jWOuASB9PJoJxa30bFRG+GD/5Tv+tC8qekZm/F6yvZssUiir3WWPhgfHz+iL0539D+pq/q6sHgGpJC6GnC/WR/Q2bExs1UrbWzjBlt/8cV25S2fsBtuv81s7Rrb578WDrhM+aSDAGLZm2W6YOXjkyVO1CZ90A9zzxzl+GBjmJ7yOjE+8z26Qz6BDhHnuge9nIMeN7x+nX301k/aVTffbGddepmNrF5rNrHShvkcipe9sKUcQjumoJ8mViKRSCT6CyI1InFA25G7d++2F154wR577DF76aWXbO/evUGKfGEKvSlez+X52AaFCIFZJ06zrhOv7XKBjGF1Y53WNiir3Qx5/Y8tVqx8xMVTsV425IzyRDZHR0ZtzNdf1sPpqSmbmpyMMiFylFsEcjNkY+j62k09PIAhEvfKa6/aI48+EturlEtZ2oLVseMCSGG97Xy6o39JXc1v8Ee46nT27xXvEgY9bL2w9RXjNrR2tY2dudE2XX6ZXXzjx+yCG6+3Fedssb1OxA6Njtvk8JhNOaGbHfIJ4QRv1skXFjfu1Jtm0H3wEUgdRuBpT5tyncmRMTvs+Q+OTdguToZNm+2sq66yi264wbZceaWtPutsG1kDqXNC55OonBBIIpFIJBIfLoJoNQRm0gnT22+/bd/85jftP/7H/2jf+ta37Pvf/36E/9Of/qk99fTTtmPXzlhfWcfIxq1G5NaqVlxiJPp/3tU6GJuu7mV3LdZXiJinzPlaqrvkC8kM21yEIWLlDwWP8X/4RUp5cTHlQxaxxnF/HeT0vvvvD6IKYTt06FAQ1TfffNMOHDgQcaAfDSn9bakroxheEBMrBkFSBoWoiPajHR7z/8adoE04UVu9wkbO3GBnXLHVPv7TP2VnX3ut7ZtYaQfHV9qBoXE7MDtqM8MTNuPEbmaOzdhhr6OQO35XTDlxnOaXhZO+adeZ9LRpz394xeooZ9fYuK2+7FK7/FM/ZmdefbWTxnPM1q214dWrbYitVy+HhkXbGpT2lgidXDrB+nGCJRKJRKI/AGECrDmsN1jjHn/8cfvH//gf25e//GX74z/+Y7v77rvtD//wD+1f/PN/bnd+5zv2+uuvB5fC0gWmpqdspnm4oljYyhZqiIe1jnEvOaAuPgfGbUgzFOQkDELHDthhLwcjChRr0onWtCeXe+K8DNfh02MjXi/lklWEDkxNlYcs0Ati54DUQeBeeeWVsDju3LkziCvkDrL6xBNPRBx6gLZyXLI89gNGfsvR+PsSQeQAlrnYdmVcYftMmNhZ9yRXagab+eQ0jPnjBM8nmM80Bo5BWwEJczK25/1dNjc5a2PDY1EBnzPhiZt4zJoKXJ979NiOxYJ3yH8RHPb8kysm7MBKJ3M+QQ+tWWuXfuIWu+ATn7Azrr7KRs/cZENr15p5uo06oYMgUpRPbJmZj0bajpZ+sqB6+eWDufq9996LXzP02YUXXmgrVqzo2bYPq82JwUe3ucUCwYV8165dcXFmvp555pl29tlnL9Dv5U8kPii4TkIc6uvkRRdd1PU6eTrNPc4d2k6bIHf4scz90R/9ka1bt85+5md+xv7aX/trdvvtt9tnPvMZ+9SnPmXnnndunFsbNmyI1ZZ/5Nu7Z2+UyT1pPIUaW59+XrLm4SLUcfDgQdvjxHHaiSDrIN955Z13+/YfCEK5YsWqWCPZMh1lPSa/r8MzM81a72Xv2bMniJmvoL5Wl61i2rBv/76oR+C4GItxX+c3n7nZrv3oR+3iiy+OcdmxY4d99atfjXE766yzbK2v1fV2rHA6jVcv9DWpE40rxC64exA4/iB1Qej4nzgfGJ6swWCr148UI7GTOydnyMT4Clsxscqm9h+Or08cOsDdcUzUou2jG35+cmCxm3b/lMukE75DY6O2f2zMdjGJfVJsuOpKu/iTn7SNV15pE+dusaF1TuhWrzKbmPD8/qvEJx7lDLMl7GUsZbJ8WBNK9XKiJKlLnC7oNreS1CU+bHCd7EdSB0RgOIcgS9/4xjfCgvWFL3zBPv/5z9tNN91k5557rp1//vlB6FatWuUEaI0vZUOxdfnDH/7QHnzwgdjefPbZ5+yll8r7WHlQgeOn+B8+8cMo8/3t213n2bAEPvXUU0EEJw9P2qOPPhZxTz/9I3v1lVejjzZt3GwjYaixOLe//efftpdefNHeeecde+yxx73eJ+1FD0PEXnn1FXvo4YejLbSDcdiwcYPXPxH340H6Xnnp5dC7+KKL7f3337f77rvPvva1rwW545rBtQNCumnTpr67VvQtqWPqIdxSGbdVel+X2+iCxrmn7LkTx4uI43FoP9maz/175lmbnZr2QXJm778O4mGI8ZU2sXKtrV+91vbu3mdvvfV2mHWZ4NMzU3HDJRMCwsibcSa9hkNe76xP1v0+aXc6uds+MWZnf+w6u/rHf9w2XvNRG9tyltka/7WxdnWx0vmvBAhdsdDRTsrjSOahiXO6TCbVnaQucTqh29xKUpf4sNGvpI62xPrm5xAWtDfeeMPuvPNOe/XVV+3Xfu3X7Oqrr450gMvDCmesX2cTTn527dpp99x9t/3BV75iv//7v+8E6wX7zne+bXfd9V1bsXJFnIPnnHOOzU7P2b//3X9v/+Qf/xN75+137KGHHo46vv61b/j5ussO7D9gX/n9P7C7vnuXPfjAg/adb3/bNqw/wz5+w42lfS6vvvqa/bf/zX9n9957r73x+hv2XdeFkP3gBz8Ii+Hd99xjf/AHfxDbxOi8/PLLdsPHPmYbPY2HOHhw41//639t/+pf/a/2Uz/1U/bcc8/Zf/gP/8EeeeQR27ZtW5BDyCZtvvbaazvHTL/QhtNpzLqh77dfMcs6v3I0Frn4gywVN/5HByl2vSB0YbnzwYoPBPtf+WyEu8MjNrJita1YtdpWrVwVN4EeOnzQs5fXl8TLFl0O+4k76fknfWIfnJiw3U7WpnzSYJ1jy3XjVVfZ8KaNNrRujRO6NWb+K8HGGwtdvMnYhckR88WJqbdHv5KAJs7pMIlUf5K6xOmEbnMrSV3iw0a/kjqdO7SJ8+aZZ54JixnH8Iu/+Iu2ZcuWDsFBJ17n5YAAQoT+7b/9t0Hc/ubf/Jv2kz/5k3bLLbeEVe/bTsyw6F1zzTW+9M6FlY5y2cb9yS98wX7iJ37C1qxeY2+9+Za99NLL9vNf+jn7OZePf/wm2/baa7ZmzRrbcMYGW79+vY2Njtl7775rf/RHfxzbpFgPf+7nft4uvvii2ILFOkcbfvmXf9njfy6I55tvvhHn/3onoJQxPT0dbYDM/YW/8Iu2devlURbHAIn7pV/6pch74403hr76hGM/ncarF8oI9SHoWoQDaKibd3gR/y9ipBOIgP8Xgo7rDo+6jHgBTrbGnXT5xBvyQRw552w74yNX23mf/ISddf11Nnbe+bbfT8i9fnLu9fz7XQ6OjtihiTE74GRtu/vnfMKfed31dv5Nn7BNV37Exs/eEmX5bI2nbefGeE9eVX9wTAhmtM6jaeBgYRCPKXF6YClzq/6RBOpwOy2RONFgjkr6BWov58f+/fuD0EBGIUciNToedDiNdu3abdu2vW7vvvuek6ct9rnP/bj92I/9mH32s7fbzTd/In5gYfXbuWNnfAGC++vY2rzmo9fYJz/5Sbv11lvtBidQkDcI5Mc+dr195jO32Sc+cbOde945dshJ47Ztr8V9dyyYkGasbeeee47rfMLzfzLcK664IraMsdbddtttcd/fldz+NLEinuDFEkh7kXIcEPC5+NF31VVXxVYrRorrr7/e231zbDEfebyn/3Wjb0kdoKvZZx/xw+DFhoXQcUiF5okwxR10xIvAccNl3HSJvkjdeJA63lfHE6oj522xtR/9iF39E5+3s677qE06QdvnE3u3l7ZrbsYOjo/aoZUr7cCqlbZ9YsJWX3GlXX77j9vma663Feee72WcEe+nG1q1wuac9BVDoLcJae6ji+/mRSPLxGmfNB8GjjZxlzKpP+xjSCwvLPViW+vJzXmaOBnQNVCiuad5J3SL+7BAO2trFH4E1O1UOg8rELV9+464VQlCh6xatTpevL9+/Rm2Zcs5tnHjZpuamrH33t8ehI4HIlb4unmdk6fzLjg/7rc786zNdv6F59tFF19oZ559pq1as8rGJ8Zs0+ZNvkQP2a7dO71Gtj9pC/XO2gWe94YbPhakkwc5IGQXXHBBWAc3btwYFlKIIv79+w/YoUOHPT/vuvP13tf++E5tc1wQRaDxqvuBcgA60ldfnI4oI9bPoHMlQvs63VjIgthJguBV4YhzGR21uRUTNsd9cBvPsImLL47t1Kv8l8OcM/r9a1bb/tWrbefEuL0/OmwHnABedfvtdsmnPmVrL7/CRlzH1qwzW8FTrmPxxYh4P160wZtJ25gsTJ4wXyOnDzSR25P2aBO5TjudJ3xi8KALcSJxuqKen93m6ul0zYS8QGogRxMTE/HwAK/8YEu5Jj+QHVyseWzX1tuU+HVMbM/ih3xhoUOHcnBrQYetUdIkPPhAeaTVIuAnHT3pCiq39pNel88xIMpH/WzjUq7y8moUwjre0x3zPTCAWDAA+CPcuCF++NLBZWB94Gx8zGzlingFyciZm239FVfYOTfdZGfdeIMNX3iR7XBi966TuqktZ9vG6z5qF9zyCdt09dU2toUt1zPM/JeKjfKUKwy/1BNtUV0AQldNwNMdOpmQRCKRSAwmWKsgX7J4QXJ4iIB3u0HWIEOQOLZVebAA0sO9Z2x9EgeJQ2ffvn1xXyG6EDp0RJ6ooyZXCCBd67bWGsI1WVO88rXXJPQRxXcrUyBc61EexK6NWu90R/+wiuOEBvMIEF+LMOITwBn/EPfY8bTq6tU26mRt3TXX2JVf+Albf/11ttOJ23tr19jqa66yyz//Odt47Udtwk8AW7OmbOGS18lhzIE5n2BI/FUg0FjvTkfUE1gTWnE6aYRu4aWiXXYicSzoNXdyPiX6CcdyzTzZoC2QMB44YEuThxzuuOMOe+ihh4K4IbxKhAcLHn300SB1vO8Nax4vIubVJtyPB+HjKVLIEve5cc8a4NykDhEo8uOih2VQ253ooUO83hkn0XkvYocoDqh8IEuc9EkjjAtJRQDHjA5kFGIKmUVfdcv6iB85XTHwpK4NH/bG4y4D05ESXeLdhXD5YM76L5bZlatsaMMmW3X5FXbxpz9lN//8l+yWX/wFu+L2223DR6620TPPtLnVq8p3ZUd4PQrdqgJBFNi4/QtN5racCJyochLLE7qYJxIfFpiDtQjdwm10i/uwAJGRtepzn/uc/fqv/3pY2XgJ8V//63/d/vbf/tv29/7e37N/9+/+XRA80iB1X/ziF+2tt96y3/zN37Tf+I3fsH/yT/6J3XXXXfHSYh6c0BYp13qRK8JYBSFzhKlX5ElkToSMNFxIGg9uqDzCEq0jyk+49gvEIXoABOLK07rbt2+33/7t37Z/+A//oX3nO99ptH31btpSl3G6ou9faVLjWDrc6QgZmlAXRJpPCB9Mny025IM/4hNvbM1qW715k51xwfm28cKLbNVZZ9tQfKB/RWzbDkHqyFOyFy4XfE4Rjjl3dQ5X0eBETxomLjjWcqWPKz9lYUpn4vOUEhNdrzQRPkg9icSxoJ6bAD9zlEVBrzTh17ZeaSLUc67On0gcL3SdBRAWrpO81BaLFWTjaK9+AqfLXNSxcH3nQQNZ2AiTtnr16rC8nXfeefEKEB5OgNhBjCA+nH/4eXiBV7lADC+77LKIowwRwU9/+tOhQ5myiG3evDnKRJdy6EdeN0Id1AcBJJ5+veGGG+KJVwDho//oY96nhz7A4kYcpJMxoN3oqQ08JUsblJd2ILTj8ssvj/YD0iWnO4a8Q0+fnwjHAZp/tI6uD7HWj3f+Kg23DottQdD4JMmU/0o4fMDPWG6a9F8SJLNV6yRuaGJlIXM24rrK7xj2XwPDntclXmcCSG7eiYc33vXTJJ2MCaNfRG0sVpf6q9YhjhMHEzvvL+JeCU5CTgpODrCU9i9lvBKJxdBtfgrMd4gcLxzlA91cvD/ykY/EQiGQT/NQfsUnEscKzR9B18kf/ehHcZ3EGsQntc4444zOnAPtfGCxOag5e7JBPWobBIpzimPguDi3ECxrK1f6uuftkT56In48XAEBg5yRlzRE1jQdB+Wjr3wIOkB5EEA5gDBtESiLPJRBvPxs6+KyTqkMULe53RZtBVOGRPq4lCf90xXYkPoax9rB6IdU5rHOqUVUPMDQCNuoJOIfG7Uh7rFbudrd1Ta8hteVrI2nXOdGRotFj95Ue3Aar08Hc2pVhPTmAY26DScLmoRt6QUmL0BHfqA8xHGCKA33WGSxuhOJ4wHzKpH4MNCee+3rG2FJG3VaL50aR0s/ERCJ0rWa9QMBhCFIWOogdQASJGImQZ8f+pA+oHTy1+UTD9CXHxIlEC+CBsgHiIMwSmgTOmqv+kl5VbdE7VQblK5ysdhBICm3W/2nO0prlxE04AH3lnfH4cdtCycsA+kuPcXnxHygcYcq8VF3XU8PBtgW/9+dkIjxSYVulI+LxoePeqLXOFqc/MciwmJpicTRcLQ5k/MpcTJxvHOvX+alSIzIEOQGolOTqDpNcQBSBCHqlU4fSKiHePmRuo+UV1CZtQDyqI46vobKrXXqNpC/Pj5Q90M/oO9JHQNST4BugERJIkye+HMQx2AdIcSjwYDyK8LdYSiZg/pm3e+OT4tioCMu2tHodiSUQkruRviHBZCQ13eqJ4z6bTHRCaaTrBZAm+u4Xrq1gG7xtSQSvaD50Z4nxzNvcr4ljhe95k09p+RvS6+00wU1maFdIji4iNpKnCxaNRkCtRWuFhE9ysClDnSVD8tfvYbgVz3o4AdKl45EIL62woFahzjaQpvVDnRrKJ+ORbqnO/qe1AntAakB8dIfehIhBqqWAOlIQ87mXNjH57uxTEAXvtcaEwdNypz1dLIXluf/4XqtvKfOI6m/jZM9SerjRTSxEdrelnpy4yquDdqN1GUvVYD8dXvqOPkTiRo6XzT/hNqfSHwY0DWrl3TTqa9/S5FTAc4lEahu55nSaH+9PtTH0962RKQPSEMgSghplCkLHyBOdSm/pG6T6pIuQEcEUnnxo6M2S4DqFFQOrsgqZfQDBobUHRN8oOpBOwJEhfggDruE64M/5BL323m3kS+k0sVFPwR/SSsq5a/4Stypgk4ECROZiY1wUyiiiY8Qz1NHPOHKjeY8Rci7e/gVRX+pz9CVq3LlV5iy8NdQvYrHJUx8XUYNwqQpXZBuWz/RH6jHE1dj3B5noY7DL6nDyluf29Kpz/t6HitfHZYI7TBYLK4tif5BPW66Xun6hOheMqB0zR9BY96eZ23RfJUL8Levh9KRSBe04+o8td7RUJ8fNUkCdVovkNaWGu14kTFAnIiYpE5DatR6tQh1+7vptNOEdrjdD6c7So/1MYJLNdILDIfER6cMUGvgFig16RC4OZ5gHfHCIWqj3l1IPEThE26kfEduyCuPZx9GyeP5JU0xAAeJ6CZeaScTOqnbJ7wuRLoYKR2Xz8Hw9BZPbvEh5ldffTXeP7R3797OhQyoPKAyya9wu3wEHS6ICGAM6vZIjziVL387TenEJfoP9ZjWYc0jja/GWiJIF1FaPY+Edj7mnM594tElT10OcWrDYiIdoZ3elsTpg6ONC2PLnOBaxY9cETmEayRhdEhDeCq0nkOAeSZSQFx7XtV+6SOUU+sKxOu6qnxIW19xtU43tONVP6DdbUKjdImsZErDXxMzhVVOXV7tdiunDtdxCktqHfnbZSkdwfKmNipNut38oB0+ndH3rzTh3rYOmnvUFkN9sItro+knifHotPu9m4bmmCguc54zXjDsYKCx4JVN2C7kklr8hPZ8Sho+hZNDJ7REk12LGBcBwEWJd/9gmXv33XeDxPFYOmEuXjyOz2djeGcR7wDjosZTULxUkiedNI1wKZMLHDq8JwiLn74byDuBED1BpRNFbUN0YSKNk0/pOrHw03b89UkJan/i9EZ7HBWnsQbMBeYfYeYCQhzCxRmgz3wWmHv8EOGzRsw93mXFa00oQ+WqXkR1UiZhzUMgfVD7a6gcgbLa0DH1KiPx4UBj1R4XzQfmCXMLP09G1nrEM9eYYwi6a9eujac+mbO80oR31ZGP6yTvfNMcU73MM80NEQ3VrXRQx6FDfDsMpEdYZQN0kMTgo/9JHc3nCJivS5i09cEuru0Xev/z32XhR4YhdUHsIGmeu/xzjlfSi447joVlo19OukDTzoU6JwcaXtx6qHVBgnRhgePiw6dfale/RsnHvQ68uFEvi+T9Q5A83lPHhYzy0OXixlYtlj62bRH8kEYuMnxLkJdIkpfy9B4joAuPLny6MAHqrP1tMgB00ZKbOP2hhQlo3DRPSWNeIaTV99+QhsucYx4zv5hHWnhfe+21eFedSB0vJK3nR03qENUJFFdDOtKTTjfdGsonLKab+HDA+LTHhTjNP+YKYa41um4y7/hxy4vY+eHLNZQ4rm+8uJYfrHwyi3iucbynjh+ylKUfqpSPkE9COiA/old2UL/mka6LiqvnIGHKJIxOnSY3MdgYiJcPCydy0lJqIXW+eETIT5I5P0GgYu7ONlVR5XwLoG5+QnkEyQutdvPkg3cPg6a0kwpOcEDf6IRHuDiJzLH48R0/rBuEWQjRkUWNi5C+h0c+Fs/zzz8/rB+f/exn46JFmrZsIYVY+vgGIFY/8lI/7/+hzEsuuSQW2ksvvTTe9E+c2geoTyZyQDxSX8jwC90IHjiR8yFxcqAxr8cXaI4i+JkLmg/oEcf81YLK/GOuYlHGIsJtAyJ1V155ZcxVymZOaK6pLsUpvhtIo06J5mhdlsoAdVhxiQ8f9ZjX6DbuxEHgcBF+ODDXuM5B5vjhwPdN2dFgl4PrkH60sqPBj2LmKn6ROs0dgD7laR5TJnWQTh7mMtdGfjQrj+YTYV3vaBvniaDzg3iu1e1jzfk42EhS1wOUivhvtA5pK2TNL+JNOOBVdtJDfHHyNoV/QdcuJHVK8d9SoXuyQP/UfcTJzoWKCwlE7umnnw7hogJYENlO5YKCsJXARYJ0FkouYhA/CBqfb4Gc8YuSMrHKoaetCMDFh1+butDwaxSQH2sdBA/BL6sdedCtyRpx+IlHiEMAFzTp1XPgRM6HxMmD5ifjpfnK2COMteIZZxZPfiRgJeFHAwshfhZa5ipzkk8CMR+Jw73mmmvsox/9aJRFOZorlKcfI7joEkc5LKQsqMzT2jqIMBclgDRQzzfFAeLrtKOhnTdx4tBtrEDd5wJjDTGDaDHnmG8IP1h1ewrXOvLqGoWfa5jIlD43dfvtt8d1lesf+bhW4jJ/+eHLj2Guncw/8pKPz1oxl/kBrV0NzgnVpWOQS920GRDXvh7W6BWf6H8kqVsElMxXv1RD19I9ktOItCK+aHiG8Hfp2jlP4IXHSjnZpA5oMeMk56LAhYoLyYMPPmj33nuvPfvss/ErkosH1jNcvpdZL2gseFzIsOZhAeECRFlcaGSx4IKFy0WJeC5iiO4lYUHmIgYpJD9kUN/1gxzqnj0WVMohDy5C2xHaogsXYaDjkx4ukJs4fVGfvwJxInXalmLuyBLM3JU1mEWVuantV+Yxc4g5yVyAmPGNSD4Txjxh7ovAiRxSjn6MoMP8Y/5zHjA/mcNapOs5JhHqMMdQH1tbbzH0ypf44KBvu/Vp3ecCBIsfv8wPrHLPP/98zDvmCvMHYsU1jOubroOkMU/1Q4EfxpCzm266KeYVc5k5zDUQUsccZG6jS320jXKZb+RlJ0PEjrlIXVyXNR81zzQnFQaEdY1so1sfJAYDA0HqTuYEhT+og3pVo61YUN9Tt5DUsY3r8IS5IScnEXfqSB3QSc/ixUXq29/+tn3nO98JC9zWrVvt5ptvDqsGFxEWRi5cXGjIj7WNBZGLEd/UhNhRBhcmLkIspiyg5EP4ZYnLhYmLEBcudEUMud+EX6ss3OTl1yz3PUHuuIBx8dL9UVrgRR4BbcKP4Nc0rhdcofYL0u+Wljh10DjWfgQ/RI25yrzBQoKVmHnDHNK2PnOLxZI5xFxlnrEQUwZkjDl1yy23hKWOMacsFmYtrJRDeZA7FlbmD+WxgDIn9VFv5jMWPOag2opovoF67ml+td1ui6zyC9IF7bTEiUW3viYOEQF79NFH7f77749vXnNN5NqkD8xv2bIltlyJ4zrIj1aujS+88EJc5yiDOYoeBJByReQoi/nEfGOuMr8ga1zrZIEm/znnnBO7GcxFrtPUB4mkPl0b8SOaX7pui/wBHSvhnFeDi74ndccCDvVYJzPvHFYHzWdd2GVeasS0S25Opfgf651fKsIDqRMgdScTnNhAx01YpO7OO++0H/zgB/GrkovFddddFxcMfh1i/udipBt1ARcYbUWwIHLBw8/FhAsSpI6LEwss9UECSWeRlYWEixX5IHRaGNVG3Y/CBUy/TLngUT8XK1xduOppS10K14umjrnbmEu/W1ri1EHjgMs8YPwYE/zMm7fffjtuD+BJQhZJFjDmJIso8wWyxZxjrjKvmV/oQdxYOJk/snRQNmUy91gwWVSphznF4ocwx5irCPVwLmgbjLmJBY8FVXOunm+ax0DHAdDrNt96+UE3/cSJhfoY1P2s8eJaxw/e7373u3bXXXfFDwrmw1VXXRX3aDKnmIPMnzqfrL/8+GX+Mt8oS3ON6yPzV2SOH7+UwzWUayzXY+rlhwzXSuYiacw9iN1ll10W85HrI3NUdctFOB6kbhvQcSo9MXgY+S1H4x9cxHxuJjUkaqlzmSyNemSJJx+OFMosRc4XTMoCzBfi/+a1lfNkoT6ZuagQ5lccFw4WPy4cLGT88mT7k4uPfuWxMGmxA4TR5YLEhQkrHBcafkmSFxcyyIWKiw0XIywjXAyxiEAEueCx2MryhlAuCyz6bF9wEdR2mNqvhVeLKPGS9sWpvnDVbjcslpY4tdBYIvj5QcDi+Nhjj9lTTz0V84i5B7liceMBCKxozDvmIfORHxayeDCHmVPMN8ie5iDlkgY50w8JWV5YYJmTnAPaSmMO4+dHCfNW54HOC7UZ0G7QLQ4oTlB4qfGJk4Nu/cwcYOzZdsXyxvgz1yBVECrmDvONa50EaxzXRggb8wthPiJcF5mn/EjghyvlMOdE6JhX1Mm1kGsfc1fCdZn6mbukaS4yj2k7c6w993StbKM+1m7HnehvLBNS10x2vMc8hz0DeYLQ+S9x3knngm1uXlBRwcSUeop42N1y7qA1/xfhiD950EkrQge4GLBY8R4vfhFyMRKpI56LCBcWLgoiU/WFAn0uQiywXNSwlrCgcgGTLmAxhaDpVye/Wrko8WsUaIHkQoilBZCHhRxLCxdUymIBpT50aA9xHAvHBFQfcfLj1v4a6gfQTkucWrT7XwsRYyuLxUMPPRRWDxYytufZSkWwVjDvmD/MDxZTLZzr1pXtLOYY+WQtZn4yXyGDWKchhhBE7iVl/pOH+U07yCerC3OX+cj8JI25yHynfI5B7RZ0XJqnhJFuc09pbXSLS5xc1H3OdYox58cvcwBAwpgnpDGWjDvXJOYgwlhzvWJuQOyYa1j3uL4y37Dy6TYT5iDXT661/NhgrvPDg2smcx/yRnkqm/poj24b0LVUbaYt1I0QV881UB9bL3+i/7GMLHUNjnn+VhniJcMFfEWi8cHciovoBCG6OPF/E9u0ZT58Ks4nLSyc9EhN6rB+cFJzgWFhE3HiYsECxsLGRYfFcMQvFqTN+K9J/10Y38ClbPIj1FGHRcZYbMlHOjLt+fULlDBplK8LEkI51I2FRRc5wsSjq0VU9RBWvYqv/b2wWFri5IPxFDSGAvOP7SfuZWLsWQBZDHEBuuRhPmhOMJdWrizWkfXr14VFBesKiyoEjntGERZW4tHTPOOHBC4LJ2SOeOqA5FE+85Z5SDpzEqJI+zXvAS5SHwthtVV6QOm48idOHbr1eR3HeDMPuFUFUs8ckEVX1jIsaCCsdCsK8QKMNXNL1z/mLBY5SB6ED5LGXKWO+scv12NcCBvl1+SROrg+EyYPxA5hzqJHeZTL9bAX6uPTvOvWD4n+xfIgdYB5e1xzt8q0wOuBOBmcXMQ3wjg5Sor0cCRQkPD7fwtPrMZzkgD5mpvzRcf9w/HFjSGbmp6yXX4RkaWO9vDrk1+UuveDuJkZblYvLyiemS0v4PRCvIShIHhBviB3OgjSO8dTyJYsGrrA6UKmCyJ1AV0M6wuTLl5c4FhMcSGCkFL0JO2LEmHFtdPaOFp64tSgjMP8WGjsIXXPPfdc/LDACnf55Vf44jZhB30esJAxsUd9sR0fG/fT0PP7uTjmfubQ6jWrbf0Z623jpo12ppO7884/z84/73zb4mSOOBbhWT839u7lKyrv+LnwuhO7t2OR3Ldvb8xP2sEcY0GljdS5Z8/eWOx37NgZbZSeSGV7UdXcBiKA9fyUEF+nJU496r7nOrNr9y579ZXyYNfw8Ij/+L04LMTT02x9lltZpqam4/rImxLIH/PAdZkLwyOjNjY65nOt7DQwd7l2MleZFdTGnKAuEUVdG5nzzDfqAJTHvKZ89NEjDz8umIdcG0UCAXqIjgm3Fs036Usv0d9YHqSOydpIe2IfXZTV/RQVf1C0RkiUiw5O6LWFNImHGznZgHSVbWP/FxeSOZucmgxrw2uxrfCmn9QW9xKxXcAiykkOERufWOm6U7Z7Dy943WeHWUR90VzhF6hxfmliHYkD8SpC8JeLFfUM+0WIX7crvaxN/iuVbTFZPLgIcdHCj6uFkQWRbV3q5yLIBQ9d2isLCeSORVaii5JAH9cXM6G+eCmtrZM41YiJE6JhLG65p475yPsUWaywdlx+xVUMWhCrffv2x8LK95cnfK6UMhh7J1Y+z4hb4T8kyKcHKta6nx8X/A6bmSlfQdm/f5+9+847vnDzdO22mGMsmLFY++IJ9KNk1Bfo/ft5IGNHWG/eeefd0AWypLDwirwBXIQ4RPOvLcqDX6j9iVOLaZ8fe5wwvfTyS7EFy9y6+JJLbOvllze7FqNO5rhNwK+PPhcP+DzgBwUyMsZ9mbrnDbLPj1QInI+vzz3NCa6HzBmsecwb/aBlTkHScLk+Ug4gXfOMvMxPSB0WO66P3PtJuVz/KAfRtVAkDwGakyKNihdy7vUn/v/t3Xm3Jkd1JvoXNFKaBRqRmIyNAdtterq3v939Uv2XV7tXr3bTgJkMCJCYJIwYNc9SlcSNX8R56uxKvacGVFKdYT+lUGbGsCMy4om9d0Rmvufs7NRdF4TkywitwKETdylqjj3JHyG4V4wLY7EmN0XwykvrQ4ns1Hmk4FEVxWCnwk7EXXeun4r4xLlPTOX11nC8XhsG8K233h4K7+DPLA1HkfO23TGbq1TKZKSLvpnhHQop75owsBSTfNoTBcPIZrVJITGk8lFk5HHwKDCPyrSRwlMvOZQcuN4qKPKCtLO2t3HjYTgyJI7GOjt1diQsDjw25aQZa/zAFc6fHWVDvBz926bD9vYwivDxwXu71HgmLAN5YPiG8bWToky4BmvXYzl1QjiJZ/Kqn8x33ll/MzmLDu0Mdyf/x424dq6M8rCM/SH/wk/5KnebozcOnJ0XXnxhPtH47e9+Nx25Bz71wNSJdBBe3P6JoZsGZ86PhbLF7+Ti4IoxvGPw1ZgbQ2GN7ceG3JV+y5D3zuCtNPnoRu+ICnhMPqfOgje8zSIYX+jROIOucZRT5/3lLExmPUO2PECGvELalHh1uA7ncmycLLRTd81A9BqOO+LUmaRrApu8r7z88nxX5De/4dR9fL4r4h0jyoAhfXE4TPfcs/6ihJ25m2+9ZcqhUDz6cqREGE+9wIjFYFEYDOlNN63HEHbzKAvplIuduLlrMpRSHDtlKCwKjFwKJStS+e20CMpTQB7HcuqE5Ke80g7XW6WkDmhldTyxhmeNkbHKTp2vDzlZ5wYXv/CFL04uGXPjjAscujfeWDsaMUzAgE7navBwnO7eGzKNfEYfL28aefHs3Fi4ZId4yV18JDOcBGl265SxI0M+I62tuGjXxLn82ia/UI2leEFc2up6H2ebqzcOxt+YeqLx22fXE4189Wrhy2myG/eJ4dgZR5ydenHw0ZEOhIzrGu+hI4cc7yOPmBEfTh0uevGQ3nMdpxBwW9AudUlXLjpPwCOOHQ4KFhy4KH84NueE+g/aFchDRuJqWuPkoJ26UwxOGENmssaUmajvDkVk4q8PJZ6dE9yHEn536eVXXt796eCnR+66a32uf/tQHvfeuxwqePXV9Z7b6947GsbW3Kd8hIvKY+Tj0FmNRuEJFEpWpPn5E44jRcVw2+lwLt8ytudmPm3zLgvHUxnKyuMvu4155GDVSiFqR5TWPrSyOj4wFIfDgSPLuAg45ks/PyeBGz6AePTTn57nnPrlWK2x9jg2xgxuu+3WyYeVznjFiRvGbxrWw0edDKi8dgDDR44bw8xw4xpOy7/wsTkX1o7z+usnaRMn1C6yc2XkI08e1wlkpe0gDuRLPUlrfPQwDvTQq4NXa/H7m935cf3oo5+eOsiurN26F8fxnrvvmeHuoS/fe/e93RuDLy+9+NLUZcY14xzn7dZx/eexaHjvvfUXecQbc2kCzuAh59FrMXhOTnbsOGlx1ECZ6D7y5M0ut692cRE/AddTZ+BetY8c5wmNk4l26k45huo4OFuTFygrE71+/fr445+ZjpP3QpYC+NjuoQcfmmlTmQwjSBFQCJQHo+cR7Dsj7fVhSMljUCkdysEjLYoiiieKQnrigJKhwLITx9ljXDlylGd+y8kK2Tt5lJwgn7LkUbAMsPb55fZllA//+kStDxLfuPGwI2Z41pgwLsJyaBhFTp3Hr5wrOyJfGHww1nM3+cUXZz588RMmMX7Kye81AYaTaHyQN2Nvd7peK+ccvxlInLz77nsn1/EJt+Q5lLscM/wjRx6cZJDNLzs5+ekJBvbivBgG3THtISPBdeIO27mOjY8Gtb+NI93iL5n87ne/nwtkH0r4nTk7ssbX4hdXcC/OWJym1w52bYXs3BpfTp16Fn8OfxM0Y48r0qMb89WsRQRksUEvy68udeMt3Zif55FfPlz0SNaip/JQfeqp9SaucXLRTt0pxzAXc5KuibqCx0WvvGSn7pmhsNbjV4rKLoiXwN988605uT/96cfG5L91KqQ3D1aJHh+cO7fe47ALB+eHkrE6fe3V13ZvjbLn3/FYltE7MJ4jqD4tmBf8rHGgXBhExlNgoBlHzhlnzmNhX+VSbNIpLkqTwouRZTgpJUrMj3oup/PQqQsO+2GdN248cATWeMT5XsfsNlx8/DrG/Yt//TeThxw6446ndpRxEpcYOOnyK+9dJ9fT+A3u4m8MlyqdKzPJOMItt3C4FifxScAnRhsYVPNhyhz8u+nmPL49/FvHOEymNminEMdOG+MAVGhf2uU8aJ5+tKj9bbw4bVn84sfnPvfZqZOMp4Us/cORom/oI+NLZ84FxhhHMvL4np704ZmfhBIP6sNJr6oYdzIAf/CBXNxKoPfCc3XgJt3IibPwFehyC2BcVF792soRTRuVwUHp6hVWW9qpO+lop+4UY07N8b85Wb3fIQycf+fCfMy6PtVfH0rYqXv0kUfHxF+OGcX0+c9/YRi3c3NH7qWhFOyAvDMctjvuOPjYYRivW71rNxSCMi+95D23l3cvj+A9J6A0bmE0h52Sb+7gHSgN1zGqWWnmsSwlJVCYFBAFVRWOcwbWKphxV4/VrJ09baO4qnLap6j2xTU+WhiDNQ4cmcNdK4HhzONXhumOYcD81hy+GPfsMuMjvnLEcIixY2xffvmludhwzqgugyvcPI2qsgyq/M7V6R2pcZh84pzhFA6Sq973RrkLYw5cODDOPiJibBlXee12W1gwrmCXxCsCnFNtrgsYWPd+2A9pR41vXD/oWziqXzMGMB+/DkfID19z7CxiP/+5z+0ef+zTg1drNxjoK84S/WgXFxeXc3/P5Aw99cYb65WVvHOJf1M3jrw4SZ+pD5SR5hrvndOP+MhZoyOn/h114BnO+f1Gi2DpeEhn5smG8trqtQDy1OdVluhJbYkebr6dfLRTd8phpw6Gqpr/h6msXl7v1Pn6lWGzuvO4M49RKSkrUhPfz0L4eYg4UpQX5WA37ubhKDJq9957zwyMFsVgl8J2/wu+pH3xxanMlI1SJeuW29YXrVnNSqNkyMiKVPrcKRxKiUx1ax+DbweE0ad0laXM8uO0ylYFtU9ZtQK78cjOBBgPwZgLxpgzlK9fz40Fxle++nczDQdwwruejJxzfJTGAN45nDBO4HsX3pu/y/jmm29MPlq0yJt65Q8qH/ApuymMYhwx706Ri2N333P37v5hNM0TiwnG1Q4zI5/FiLaBOu36qM+cks6IuhZSt3qF9EPjw0Ed64oaT08aM3+gn540Xsb6wQcfml+60kfLQfr8dPqN25tvvj11GZ3lK2kLjrvvHs7T4NBKX3/qS8BHMsT7yZOl75ZTH244gnPp2bHj0OUVFQHv6D+8pDvjoDlGZ2fxi5PeoSYn+cLBo/qlcXLQTt2pxsEE/fNy6caMnUfGilJ6+plndr951m7Hx3ePDWVFOayXzdfvf33mM5+dhoxDJ3gsZdL7GQef4r/99nrU6gtCjphHYBTK/CHYkc8HGW+99ebuzTc4ZOtHNRnq/PyEn5PQFgqQcnOuHOUVZcP4UkoUpUA5kUHWdBpfeOGiwqXkOHUU3j6nrl7D9rrx0SMOzD4wfHn8arwZzi//7ZfnMgVH8cKYf+pTD4zz9SOtAh75HUXctStnl1ocGeEPvmVXTv3rsSzOcbLME21abcMtjiKO3zVk+qkfhvGT939yzhkLIg4dRw33tNM8kF857eQcWIS4ZoCVqzyvcJ24bVrj+uCofq3xcep8KEHHgN0wY2dxgEvyc+roPmNJX+EVneZ8OWPrK2lhfTi2PozAWTwUcBNPnDviIXlLJh4e8kLc5OLBbh1HjoO2nMKPz3rVT1+SZR65D+8GKs/58yfLlNMmZQSo9984mWin7rSD0Rr/pvE6+Pfuhfd2r7z86sE7desRFqNEWTGWy6l7bz5Gmo+zhrJYf3op77KNFedw0l7xo5vDsWIwbx6Kxk+f2E2hbPIbTZQXJ85jCYrwT396bihDOyXr8YOyFA+lRomqN4pF2Rjq5BEoPgqLsrKzaLdOXQy8x3MUnUdqUVTVcahKqxXYjYcxSDBO4CjEqcvXr7joh1+lccwYz4ce4iA9OuNwwo6wH4Nl+Bit+w5+lsdPSOCRd0Y9lvW1rPzL8C6HThntmB9r+BmUMVdWg4aiHOUtVjiK06EbDtyDDz04X1t45NFH5q5cnDi8057wSz0ew1qAuAe7PUKMcPKtui/dnUta4/riqH6t8fhCv3DqfGjgmp7Mu8cWlfQXPem9TmNvdw7wVVlHXKAb12LABw9eW7ltfgHrIzPOPn6spyQWK34+Zy00okMFXOVIOhevPsG5dmsfrqlTPvMnOjKvAciHu37vEY+jJ8Uf1SeNk4Xe3z/l2E7UNXmnnbqoKA7DUh5goh9Odj/Surb+897Q5z77ud1nP/PZ3ace+NR8Idgv6zO+v/rV03Ob//z5d4cBvGuubCk92/12KCghhvfZoST/MPLlsSwllNUq4wpx5hwhbZKeFab2VaW32nt4z0nLfTWOF+r4ZOwyzgmQMU0+L5bbjXBuEeH9S7z0UQ3HyQLCosUOC27dce6Okf745KKdNQZNecb6Jz/5ye6HP/zh7oknfrz75S9/Nfj7p/nOFIMNqRu/lNEGixuPYv34rDbGoMaYMvj5SAKvlcsCRt56vwLZ4hrHF9E5xsmiFMJRzpFFBP7hF545B++yeUUE1yxG5KVHcdZ7y34mBWc5Yxx/74o+8cQTI/xo/jUVrw7gj3RcojMFfMIbxzhzyZPFr3Lhm3rpzvBs3cfh6w/Nv9OBdurOEGKcgjqJl3GZZ/M8yitpPm6g1OxGMIgUFoft0x47feqT83GXvzhhF8Ru3O+HInP0mJcYu3x+zJjiI8+Xsl4eZuQoJYqnGjsQ71rYGj15hKTXNIiM5GucHBw1ZoZ4DvM8rjFnpCwU8MpO7cMPr3eM7Kj52vD5YSTt9tmtUO7OO+6aj2u9F3Xfvb4AvH1w8Pxwvl6av+nFoNrR8GrCH0c5OzLe1fMbZQylv6jiqO5bbl0/T+Kc8cRlhjSOXV4TYHDDbQFyj7nPffe7L65xfXHlPjZmdI8F48G4HaTM81l+PRLlNHHOOGw+UqAj7Yp5NIt7+PDcc37qxt8WXh9L0Iv33Xvf7lOffGB37z33jcXHnfOv70i3ULYosTDAKTyKw+a8OnUJ0aO5lh7dedjeQ+Q6vGycfLRTd2axJnlWmgl14kcp0GKmvHjKa+5S3HPP7sGhtNYfuP78dPDsXMhsl+KZZ369e/Kpp3ZPPvmz+RtPfibFIwcKT3l/AHv9AOehs1brjgF07ViVVJA8NVQZQZVZsb1ufPTIeG3HrI5prsf/5znuePS6OHv40w927B5++KH5sxN2QXx96KtsxtEjNI+gOF+fuP3c7sEHLEoe2z326cd3n7z/U/PRKmPpUb7d5p/85Ke7X47jc8MpfPv8cNaGEX11OHT+0opdEkZVc7QbJ+PU1R0T53WnJPeZuVZR43K+7ZPGB0f6NLyCy/fz2pWL7pnl5jhmfIRDXZpFhqcUDzywHs/btfOUAleff/65+YEaPlpscNa8c2ehgY+CVwo4gvhjYSwfnRpu1QWCNmlbvc55va/EJUDlHMhf06GW2RffOH5op+6Mwnx8/8RcSsDkrqGixsfBs3P3yHyU8PmLj7c4eYwqJWPXzg7IH//4h2Hk1qPUIWGowvcrC/kprRhD1xW1/n2hInK38cFR8Y3jDeOKF/lLESNijiXHzm6J95fs2uHh5z7/uQMu3j13P+zCedzqi0Y7IMp5H87i5K+/+KXdY499ZvKWofTYzO6dnRWPwOau8sEuSHgrTsjuiDgyzQ3tEZwL1YBWyF+5GN42Pnpcvu+P0heXjp2x9J6b3WI7dX4q6jOf/ex8BcWjVosPr7q88MKLu1/84pe7n/70p/MLb3ybi45P+GL28LcOBfG1bc7NgW3YB3lr2cq1ipqncXLRTt0ZxJq6+ybwiDPhzfmD8OeD+S/aI9j1p5bGivQgMFS33nb7fPnXzzt86oEHdg88+NB8mfjhRx6ZDp/f9prvGXkPxLsokb/+N5QJ+Tlfu3KMZJy6a1E2RyksqHU0TgaM1eF4HTrva5fh4MvRi9d2StZPQ3gM5rUA79k99vhju4cefnj+NA8+vf7GG/Nxqx0Qu3jrvbe3phGdf/JpflxxbsbZlXv99dem4za5uJqxeHpgSNNGwfWWs7XNIC1xR6GWb9xgGKYaCgzhpcO4Mi0uHj6Svf++++cO3NSLDz+yu8+HNefOzfeRX/NY9vnnp1PnnTofoeFwPoDYVhquCeHbRR4OZ3Gq8YN/W4R3V+Jf4+SinbozhmkspkI4iDjAVAhOxjz/85jsCWPm8+YGUUYY53HqfO1Kcb07FofDRO0+fvMtu9tvPzd/w+uee+8ZRvShaUwfHUb13FBqZF9qGG31q3cpljzO0A5OnfA+hVUavb2+ElqBnXzEEDGWdsDiyK14qmyNsbg4dl4R8HM9AsfuvrHwsIOCX3bgvMD+1FM/mzt3nDyy/Q3Pe+6+d8hZf9bOO3eO+DZ5NAIWzwXKgDh1wpavQq6vFX9Jmcb1BfVkFC4eZ+zARXVy8WTgUmcp4/6xwaPbbv/E7t7h2D3yyKd3n5l/auyzw8F7dCyAH5j60Q+8/+n553a//f3v5t/eVhOHcIX1lXT4FF6Ea5Ob/oLPVMYjbTT2QGNr0cU2pV2Q8xq3D/vKNI432qk7o9g7Pw+UxV6MAiZ1DGkMqzAn+yi70jl7K07aUkrrM/9pHK0kh6IJlpJaCiOhKq9qIIN96Vvsi2ucbIwRH+Odrw7x5P1j73rrYOGgdzl9QOGX9L/whb/aPf6Zz8wX2e0k46nHq77a/v3v/zB3lQN8xHWcZTw9BnOM7PqaQG1L5XPQnDytuHScneMgXuGO6/AyO3eebHiX0y8I+OFqvPTIFY9efdWPEq/3MXFtH7+ci6tc3McvcyaofExex73lSlwt1zj+aKfuzOJSo2MSexSwb5LLMcPMX5y6gyCOr6b8uBjpPpsfimw6cCNqGGDxU/aIyyOCw7pWPkjcNlwOuYdWPCcRGf/Lj3GACuFE/Qke5XOOm8sRGxhR+HjbrbfPl9fvvWf92S/v3Hkc5hUBrwzcMoztG2++uXvxxRfmcRJ+YHJ+8LdSa52rbzl1MazBmieHcwsqh5unJwXIdnBacDHKOBrKEWbcPMeXoSNx0J9EvMkC9+PYcgk/OXdeB7jzrvVD1sL87bqRx3vHlS9x2CqvXM/AoXv30KkrxQbGhf8ujZy4WP4g7ag8jZOHdurOLC6dsHOCUxAHE/2SCV2UyfxhVkorimsE8XbgLrz37pTKCCrukcKFoaCmb3eg/N4bhpAxnn7dgVFOXTnPyvNQUa109eS4LzROGoytMeYQrTEO6rgHRtjjf/AzI3WnLg4eHsSp837dfCxrgTGyffxjfszVhxT+Vuvdw5nzdzM/Mx/N3jOMKkm+cH3r7beQbFwLC8ov2Yv7mqH++mVkkLYnVISn2zwJFc3pGwvDMUbl4OpSiB20GmFwZB5XmMQYIU6d8LGP3zzL4Em4Mrk0eXS4q7d4tXSZ8gJZlRuXcALnZ6h6cuVb1/P00jIDyVtD6t1C2haJ25e/cePRTt0ZQibwdNyGMtg6cPP/B+dH4eLkN58dBoNuunk9ilUysiiom4YyWy+zL7HCKP0+ZbCKrHLBbOeBY5cQ2RXvl7Xy1Hhx+8rui2scY4wxxbU1tuvvZWZRURGjOV82v3X9Yn74Iz5O33o94NK/NbwosRYvxCpn5+Tdd7N7sozshQu+0PYl9+KzID6hcnYbLocrpTc+WuwbjjGK898Wxo6TX8cej265df3Mid05vAum7BGmLh75cWg5dn7M2qP+fCz2fu7MuoRRLo5i8tR84WYcxhq3Pb8aVNmN44l26s4I6sRdCoES8PL3OEZFjSzr7FKlsLDi6qR26gtAcfMR1TR44g6Ui6JDmUzB8he5MtZr5WaZgxBlRakJW8W1RS17FJLmni6Xr3GjkDE5YmxG9OE4G8fKz3W+xtaunN2Pm3a3jJDdtRi2ygMG9CbvgY4jUUve4h9juvId/G/8N2pec2fmkm/tvghVbo4JUDm3TWscRxyMsnEbYV0dYEZdEjPAeVofkOHVGtrFMX92zmNZkUvcWmA4R7NwbV4fcG/mIeGAIpU/sHaKVwgHL9WRR+/AwbVyb1t/43iinbozgEzei5PYpPf9HqUwv+MbUZJm+lIGwvvn/IpfSmMpovPn39tdeJe8kdm7dOMo3qPY9Y7dQcmDMlPCOFlKa53vg3hKKk7d1rGrWLKXIc415H6TvsW+uMaNhPG49FFsHSMss4OxxvlS/sRpW86ZMJy5wUcOXXblHOUPj3DQ0aNcwTXOyHNYj3egRtnhHJoQc3dkzBu8ZqTtpviq27t1yU9G2pNdwci9HOQJZxvHA4bMuOW4xh/7Svo8Ln158y3rJ3XwLmOZPDTtKu9K2kE6XTj14UibvCx/gmxwxxEu4c84P8x/6NQtHkdHDvmriolaPm07bOOS1/w7+Win7oygTlZTO5N4Xowk6QlbjNiDs8NyUUzzo4jx78KFZdSUn6vSA1mMrEpmGcrmQAmtxxTZ3UhYWOmXKqtZ9qDuYNvWbXpwVHzjZAHP8MC4c9LwIl+fXuTPoETeVcrCYUZPjq9zXKiOVmR6XWBdr3LLmHpf9HAnbnFu/RUJP0QcRE4NIH8cvFX2/RC/L43MxnHE/nExXt4hxsfFoffnS9zcvaM7D64XR9ajWVEe2wLevTMf/y8+XSJznLquOlJIHvPFeeVk0i/mOTivaY2TjXbqThiOmoTbCZk8M//Ff4fx2flyzWkbJmf8G+lDGc2lKPkUifQDexP5U8bc3fCnmpi49Rhh/o4d5TQUluuZz6OqcbwYRnkOYf3hVhLmoUBaVVT7zhnC7L74E0/+vqc/BZW/q7hkL6MJaQMcZWAbHx5q/y9wZhZXjOdKOuDCGB5s8W/ubkzmwDiOsbNLJubPhnGO5Sg3/i/vjJ//Zu4ZvBIgMI3zMdgkrp03dY+8Mg3kCM5nm/Euc2HEC+K3vMz9hZs5F6DyEHItPXIgcup5roN9cY1rg/4+qn8XDsZwJF3k1Sb/fPdyMkLa+N86vQSGOTyY5XBjxB8+xj8IVbb/Dsq8z0E8OL34oc7BAnnJL+GgPFTupS1JC5KWui6pc2DL38bxRDt1JwyZeDECroVqFGDGjetpEBPG9TsXzs+v+/IHosVx6OZXhUN5fGzkG4WnQrjwzvndexfeHXEHQgdqfXbnqCeLyuHKrcddw1hWgzYfBxyUmSH/DtJh6YpVSS27L3BGBXns1ngBmWPHqfM7Y35E9ve///107OziyBfUOqEqqW1o/OXY15f1WOPHKIxzOxLipI8wWeW4jOnhwuBgzFAVh/BujP1Nt9w8nTR5cf5dxm6kG2nh3RF/YXD7/ODiXMLc5KOeUQeuTb4d1Ot/B8CM/KDrXOiMtCF2NkqaOTHnyAEf8Ur58NTixjUO5mdPwrcg1+F1ZNQA22uoaY1rR8ap9qMQ/TPjcGiM/Xw8XxyrmteipOLwcbsr6cocyKCjB4ksKkbN6xUVdYwcOHr45GKUSPtGCGtmnSN58m/8U/Ld98bifOjh6P8V7NyN+ANHTzvrzrS8XhlwzH1kJ7n2CThPCLZ5GscL7dSdMKxt+vWujiNkgjnWCTcdtfGfa4blxZde3P385z/ffetb39p9/etf3z355JPzhy7P3XFud+7cufXbSbffPh0lBf3Cvj9w/vrrr0+5AuMzlQEFNI5vvfXO7p23KQg/XXKoKFWdds4X0We7KbmlWOQlZ4VVJiF1SYtBFO9cee0U/GUAfyj7H//xH+ePd8r37W9/e/dP//RPu3/+53+ef1NR+8VD5Oc8bQ3qeeP6wrjVI2Q8xOFJ4vxZOcasjoc8s+zgkJ/KYZRG7sP4AyxZa16892dGdMgYcR+/ieFaRqs6YvMvpFwyl2IYcXTxdLVz1VOqmiBTuvZYKIWjkLqC8G3e46xjLTDUbYGinLRVz6X3lOuUTVzN17g61L4HfZjxT9r5MW7vHOieBH2fscIZcW+PBbIxB7x7d361ul4JeOedt0e6vw1c37dcenDqRWPu3xjCOYxlLNU16H0JVyY3RlltkDVpnLfJ6YNHv8Js70hb75guueL82TuL3t/+9rfzT5JZ2IsHctMPs65SLnpYXOZq7qlxvLBGsHFiMCf7wFaZr4l+qVIw2d9+6635ty1//etf737wgx/svvnNb+7+7//9v/OPmov3Uu9dd941nSTl/bFpv75/x3D0XnnllekUyeePSjOmJrIdOhN8GryLK9ipgcb/D84vQQzVId0uKqQDmeOOZiBqtn3ERzlFUYmPUuV83nPPPfOPtf/d3/3dDP6AO+Nqt45z941vfGP3b//2b/P6pZdemmnqWu1dcJ6Q63psXDu23Az2xdf+Trqj68W1C9PA4l7YBYrJgx8MDmdsUugi1w7T54JjHDlp4lf6NKdT3pQ70ua54wy4vfi95Qy4vriLM+tYPN7ylQE0x/BWmh1k82n+jc8335xx2hJjuubCYRu352lf4y9H+nON4Rqz9KtzzrkF7dNPPz0XvpwgHLPYzViujyGWY/fKKy/Pha/zcMUQRX7GdGHVgV/zqciAkV1sDEb58f/DBcVhmAlyOB1iJwcvHPDO7tw45hcJCOQE+skeOp1+pN85dj/84Q933/ve9+bC1xOO+mRDqPeir9yz88P7K21qHCvc9P8NHJw3TgAyiaKYBDDpcu5oUtpBe2konH//93+fyuk73/nOdOz8vUtOGkfuk/d/cv6B6QceeGBOeM5Sdg0oqmzTz/ihxNRz8cvAkcefBJvIBB9hbf8vY/vWMFwvvPD87vyQo6zdNUrTH0u/+647L+4QKutFYYpS3eq1ihQfBSNfVskUlT+rQ1kJzslSzrt1v/vd72ZwLo5CVlYAbRFgn2Kqfdm4dhzVf65rf7s2tsY4HJZul8T7kbj747EAefv8O/MP7X/xi3898/izXq+99vrk0/o1/vV7dIzYzTffQvDkIrl2Txzno6wRnZ844eRxvt55a72P+dowdgxpfrPulRF32+23znmxdq+J9Gg1uxUfm/OIbG2aMkcdZNY455w4CyTcx1N8zVwTUlaY96Ghs77D+V7PE6DGNy4PfZW+S38bH3A0nsaKQ/fEE0/MRbAFsTH1Z+U4Rp/61ANTB3LK6RZ6C19uv+1wPKPHcGQNi/rw8XAnTd3DA5sf3KzF9wtL3lj83nHujqk73xrcxD/6Th3KEIcj6rULaDeQbPc2w6p21i8f7pIhqNv9Pfvss5OPHLzwT5sXr1c/CYl3dH2x3QcQ37w7Xmin7oTBxAoymRzruTwcsj/84Q+7H/3oR7vvf//7U0HZeTOxP//5z+/+/u//fv7NQX8m6bahjEzUpaDW3yekRG699fYpiyFS1pFSYNQymdf7JlFSdicOVokDnLu33h5O3TDOlNZo/e6OO+6cilO46+67Ljp16o8CAcqM0ows8fJRUMrYpXOk6Cglaf6m4v333z8NfWRqs5Wo4B60M0qs9lvqSVzicwR56nXj8tjXV9s+rP2e8WJsnnzqqbnLakfhmeHYeUWAQf3cZz83ucDhtzDAB87Rbbdx6hilNa7ZQSbedcKKY5wOdlEGHyw+OHCvvPqKFl00oC+/9NKUf+ddd0z5oOyhU7ebbYiRJgfCL1AnGeG2OWZu4mMWHNLiCKTcbNsIkHYHroPEJ66mNfbDOOl3YwzGz04VZ8ciwg7Wt771zd33ht4UZ5eYbqE3/f3gu4fe8tQB7+igN95YuopMujRjYPzow/kof5zHITJm8shFR6qfPoxT5507T0roQPHqO3du6GNO3dC3ykZ/uZf5bvSQeZELI026+8NlOp++zMJXwDUOncewFr90o7aJV47+DMfT3siv8WlH4/ignboTiky0LaI8POJ5+plndv/67X+d79ExIA8++OB05L785S/vvvCFL0wFdf/99+1uufnWqVgYVDKjDCgoE5hMyoXymApkKqa1ShsFxvkyQBTUaNkMFNmFC+8MZffG7oXnnh/K6u0pm7KiAL2LYqeurkDJmzJHeXnUCdowjetw1ihXZeLQRakkj3T5sroll8K266MPGFT5KS3pq779kE+Aiwrz4Lpx7UgfQu1X3MOrl4dh+c1v/n33058+ufvu9767e2o4dowOLtx33/27T3/6sfm43Z/6Ahwj5vyF83MXjmOEA2SvXRFO0eF4LY5uwshzYRhSRs37pcM0Xtypw5dbb7tl8un229frCZBFjbZrm/aTFcgnaA9ZOJmApwy3+SnMHcLBT7LIVAbSV+EneeIi23nyuA7qeeP9qP2mb/HO2HPmfvazn83XUn7xi18MZ+7F2Zfe2fUUw98LtiNM7xgjgf4wvsZzOVfvTB7mMWigPvxIvTg547Rl5ItTx4E8f95OHT25dureHoviu/JEg56cO8VrgaB9FsvK5pErbmpbFsDhnbZGb9KN2g3K0ok4qB9cux9QjzrCQfLrNSRP4/ignboTBhMoymE7mcQLJqVduiefenL3zW98Y74fYjJ/7Wtfmzt0X/rSl+YfNM9jS3/sXBkTmzKiMPxx6XPnljKgHCil7NhRhPMl3JHPr/avutd7KaN189qu3TtDQb3BqRsOFaVHrhWnFejbB48VKBdKiPwoK05iHEhxMYyU6jKwy9kMtFlfkMMYW5V6VEIRyyvd7o/dEf3iWt36QJmqpICsGhJXj4392HIz10fBuDMqz7/w/O43zz67+9ETT+y+8931mgBHXDoO+qP7Dz74wDSwFhvLaN06OPLWfF/Sjpmxxw9124EzzvntL+dCjGsWIt47Pf/O+cnr6VyNuNs/ceDUDbm3jjoY1dtvX7ttbot8527t9dfX7jVoE9mr3o/POYeL2SnBR/MN1JUX1h2VIZcMR/wON12vNu936sLfmt7YD32UvjVuxt0YeKJhh86Ro/7g0B/e06UzP/vZz+7uHbpS/hXenRykW6b+umXor8Gnt4aus9v7JidrOHbrbw8bj8VzsMOXa49dfczjHWU68eLj1zGec/E7d+oOH7/iBvWq/Yt/f969NXSkfOR59cDHF9pUHTjllMn8iN4X6FW6ObuU9CRuiqP3lZ31FoRjQrjXOD5op+4EwgSOkgii0IGB4Lz4QOBnP//5jGdQ7HJktWnCmuSUm3eQTNw4b4ysHQQTVpBPehw8q7lXx8S3s0Kp2CkZU704SH+ejywoNu/SMY6UlTaqezp1o9ydQ6FMpTjKqZfiWWG9hyR/nDmKKIpNnhho4fA+1iOsBPetvEeylJu8WY0ysnYutUfeiiishKCeNy4PfWX89iHxDIfdKjsj3//e9+fHLThrfB599NHdV77ylWlYHzngrfE9f345TLiAO+ExPnCwyFMexMurvnAFMo7KXBhtsItsl+7V116dnF0ybx5z4MXJt7vuwtPl1IHydkTIUyc5AS5pG75lAVLnWgwtTgriLZY4doIFGMdBHeH6lXiXdoG8V8rfWBw0fvSkjwV8VOUxpLH66le/Or+o/+rgXhaHnDpjqcwbb6yPIsCY1jG+cGEtSI0p3WgneOqjgzGymJDHkZ4cq4g53hzJ7NRxzu44WPziskUFTpE/f15nwBi7B3V5d/rjY3GtDfLhHb0niMscEJRzrU14WHcgpdH7HDvBPbo3+dxn6hQfOWlL4/ignboThkxOIchkcxRMOrtSXvB95plnpnGww2HyUgzyRAkJN48V5S23DsdtxFFaHDDKhNGlfCgAuyKC/PIwfnZJ1mPSN4diWR81DH00Jvto1MhjBRplJZ0h5MhFWd1xYPSmshpl1ePcH1nXRufZ6aB0XMsD2iAPxZLgGhK/2r3euQIKy+6P++PQcXKjsCpSPueNq8fV9pfxe3uMw2+HIZ27JN//3u6ZwVdc9e7c3375y7u/+uIX5/lDDz88DRTgk7IZW49i/dH+UfH8SQfGVB6GEubP+rCd45/TMVOmYfSqgF25+fh18PyVV18eDv/L83pychjJOHV33rmMo3sz7RY/1iPeZeDXLjMexajilXPlw01tdh2nD7edK2c+eMfJXLFTgqPKJD183Df3hWB73bgU6Rt9iCMcaa+n2BnGG2PyN3/zN3N37qGhI/T/7SOccxy84JzNV0su/nzIu/OxqHG9fXBk/QWd9Z7e+bfPz0WtsZx/cWfo0jE6M31hjSU9a/ynnpzjvht6cr2mQlfi0+TBqOeSd+pG8Kg3H/eYI/Im/yFnVz0pJ+CiPNUBdG1u4Z/FkXPpFtTuTxllo3sTIMfGjUc7dScIJqYJVZGJlUkLnDorLV84/eY3v9l9Yqz6PGo0ySkbq7uprIYiMFk/dpOPI26Z1+vxwHIM8zMgDJidijhczhkaeV4dhvDVV17dvf7aq9M4aoKvZB0ptDc8Whttobg8qr1jGMj1VddbF3fqtAHI5Dh+4hNr5auNFMpUpkOm9PSBY+LcU+5fm5yDdJBu9zG/uyeP9wkff/zxi45ukD7cHhsfDPoxfWl8BI/mn37m6d13v/e93Q9++MPJy7/+67/e/T//7/+7+5svfWnuktghMVaHBufVuZiwo8Ghm8b09sVlj1qNNeedQfT4n1On1vl7dFYco14LEo9nGVWBYcR1YVjI3SduWwuNl4ZT53i447Hm2bBr814seLwkLy75OGt5IV0ZHMycVca1vO5HvuzYycshtRizYzQfBQ+5dlKyoAm2RjUB4vw1Lg99S7dx6ix+7RbruzzRMI7TkbllPQFwHseHjnrrzbeHznttfjHNkePQ+WKV83fLzbdMvlnIvv76a/MjHHy0iPAUgmMYXq6dO+/UHSx+p1N3+O6xwLGKzjX2fvfT+fzR7QGckkeb62JCPF0XnaiMeyQ/jp04/MLFPA2JrlR3faKBg8pUVO7l2LixaKfuhMHkzKSETCTxAQeKcXj2t7+d74swGAwHhaWcdIrEZIdp8Bib8hhWoECsRBkbE10Z+RhQwUR3pBjUL5/dDsbRroN61JGdB/LuGsonyooCiQICSkO9FFrqkBZFlOA6/SCo35F8aY7qU6+dOX2hTfrCuXZx6Hw0QmmlvADb88ZfhowR1H4UjxfTqXv66fmCOkeGYeHAeX/uTu+xjcUIDgDehS/GODtb4aR3QMNdeeDN4XC9NhYcuGbMM0eUF0AcruAH7mqlRZD3pF56aTl1y0Fbu8fgyMFz9DhYG7U9RlV+bcocU5drQRlHnHOMfAaVYRbvFQHtVU5/kKkO19obnpNV21SvG5eHPtSXnBdOHf5x2ix+jYmxE3AJp8SB8XHt7wSDccJDC5L16H4tSI2XssZDHvqTPlp535rxeSKhHD6vpwg+KNuNtiw9uXbqljNJP4+R3t06FjO3DSfvtlGH9mgb/i3nby2AwxNQhzjtci7NMRxyDfKr08JXW3CXg+ur37z+kLzhtPJBPW/cOPSy7oTBxNlOnsQJJl0m3jg5OI4JOyaoF8IpKjtoL7344u4PY5X622efnRP4jdffGNnfmxPfJ/Sf/OT9872mBz61PjZ4czhsL46VpF03iokCoGh8PbteYP/UUCrnPFCY7yb5bbo//PEPu9//4XejnJ80eXMogmUMgSKjNOZjsFFvzt1DlGIUVL03cF6NmgDa5P44lx4fcOC8M0NxU6iUK1zSRwVbeTk2/jIc1X+J9yjJmHh8xGBwsI233Y/n/vTcdMi8TC4/Tki3eyf4zTrj7V04XLNTPCJ2dwwH6f777t3dd+89u3OfuH3w4fx02BhtL4LjgzL4hwPT8I3jYNd06MKh+bjsvcWTlW/lnfkHvATPkWRwtYvRi/PlXnKP4Vk1goJr+eRnjPM6gDnHyeNoZsdRe4KUzXnF9rqxHxnHjGXGBsf0vXHhpNk5o8PokoyDfNP5e8Dvez40dZ9yccqee+5P04Gj5yxO7x08vG/w0RiL87j+T3+yG2vB/ezQUX+Y4zwdvdmWwY9xnLvJQx+mnRd15TinY7VZvdkddnSt7dLCBcecb+8Zoi/p9Cy+cVYZeXNe5YTTFUlr3Hi0U3cMYJJsJ8q+OKgTNul1wuVc2pyUI6wft3x7PQbwtd75sTJ8cyih557f/ebff7P7/W85Xi/MnY33hjK5+aaPz0ejjz7yyHynyZEDR7FxlP44DCOnkHPoJx/u/+R9u08/9ugMnxzndjXeOf/2UF5/2P36maenAvPTJreNlen6HTFto6Q4ditcuGAnbz0Ss/K06+KY+wpyX+LTFxTeMsTrMStl7LFKHDpGndJVjlIWIAoufZaQuMYHw7YPw9eMm2s57EDgV5w6BsZiA8884rIgUSY7Et4PfeSRh6exxJnnn39ucHkY0+HYfWw4iOeGo3T/cLIeHAsNC5Tk+fWvnxmO3a8nh/FkPsYdHMafQbvRlsUlj3aXcVv8AOeHRk5bPI67czqX2q1dHILs6Lg/bRbqfedaPbV/nOM8GYyzPBwLnF51HvTXgdyUzXmuzwL0Qw3XgpQxlhYUznHOUR8aPw6SOM7Ob59dv+MWx864ScOrhx95aPf4Zx6fzp0xw6nlqP1+LhxwxkcO0h8butHC16slHDv5fv7zn+2efvpXQ0953O4jHX9Le3FBPUJ4J8y/a3xwPu5i7tjhC4fR/OHQgfJ4kcVFuOF+yQRxceiiL91ndGXt15xX/iZU+Y3jgX78ekyQibOdINtrEzoTKUHZGm/icma8U+eRo4lo0kszsRksSki8iW2FRmExIuSIX47VegyrLOVhVwEoAsH7It5bAgokSkR71OGcofJL6zF68jDaylOeZMujjDT1CZEDznMUolzAvapL+8l134y2VbP7oqDcI1DMFJhrj1/9Vl/9eCSo541rQ8YsR9h3btxwwCsCHsEaN68HCHYejKkwOTnyM6TGKeVxBZ/Wb3f9eSxW3pzy8EDeOEi+7I7hU55MhgsXPOZkYC1ylMOV82NxIb+f3pGuHrxXdrR+cgNnw13x0tWHk+HoPj5pe9ovzlzjCGiPR164KXgPVnvMA18A25nU/ioTUs82/izhSvdeuQeu02f6H+/s4Ap4Y1yNozR550+VDF4YJ9fy4ATIx7Hi4Bsr8XSLvHSROvBDWvhIvnOQFx/lp6+MO/0snx0+9eK0sY/80YjFyaFTzx18wENe2rQcwXWP4Kid2i24ztyzQ4hv+iDzQXvCQ/ny+NXCxb1UueQ1jh96p+6YYauEtjCZ5Em+er4P0igoCoTCYCw4O3HkogRM8Cg3O1zzS8D33h0K45a52nzoIY+HHp2Ph+yQmNsU1wvPvzAf41rlufZysE/sXx0Kgmzv0D38yMPrpffhQEWpJGiXAFE+jgmBcoK49IFyjD6lSCFRTNrOqXNOcVFS8kVJp6/SL1uQ3fjgqP142T4d42BMfVyTMc14MWrPc3IGJ383nD8/jWPXjiNnJ9mOHV49OI52TsCjW0ZqPpIdvLAzcs89PkhYrwk498GOnWPvzNnB84qAx2CutUG6NuG/x7DCaOiUHw5JZ1AZYMcYzArX8lXOAt6be+YcY57XBHC2zknQD1vubuUGST/N2N7j5e55X1ri9F2FftTP+p8ewx3882e4vJpCz/1+6Lhnf/Ps3NV6/bXh5L335+lQ+RF13Hr88cfmrhwuGhY60KNWwU6cXTcfUnxycBEfPZ71uBW/7A7jHX27fvtTO9eY09uZE/NHhqUdjLt2hwMXuSJ+yPU7osk3yw5euSf3ZxHhPgQctLCY+nvoS/kgfZU6Uk/OL9f3jRuH3qk7RqgTp06YOoFq+vY8+SgBk9YunV0Q8XmkIM3EdqTY7DJkZ8TEptSckyNNGUpmfZXqE3grzfW7YPOnSQ6M08svvTwf81J2HuV6rOursPvvu38Y3QcvflmlbvVwKhnDrDQdtVFbrEzVbfVJGYF7qMYxDh3HjSwKSTsYdA6eNPmj6MhKPrAC9bMF2pUVqND4y2BMoPbj9jxwjj/GDkctCl599bX5cYRxku5o/HDKo37jCZw5Tt1tgzO+OLxl5Lv1Zrshn5ht8MOvjCnZOGJRwWH02N/iBI+dx2GTb77/+YffD/68NJ0+HJSHowfZmcvOBL64zu5fHLr0QSBOqOm4aA7g6HoHa+3Q4a57lIbD5qd67SbbvVQfGfok80AIyBZq3GnDtn+PwlF9kP5PevSkBSkeAl0kH35OvXEwds6ja7ymIp9g/Of7c8O5v+fuuycncdPHZxw5nLJYmL8/N+TTpRYa0i1Q/EUIr8j4XUS7YbhHFxpjjiV9jD/0ocCh89NTFhP4kfkC2szpu2nU4UeIfWU7X78Z8e4Vv7Sf/rWIcO9Z/OKdfOqlI/HTPXv9BgejJ6GOw1F93bhxaKfumMDkqBPExMnkqUcTD6LYg3ptMjIYHr/aeTMZPf6khDhsJrA8gslOcVAOlIo8Jn+24uVZjt3hC7jykGfnjWIR1EEZWPmp0+/jxTB5CXwqpNH+yKZIKDB1CgwkmXnUkPvY3pc2aS+FR0GRQ6a6BNf6SBltVka92qEM40kGp26rrGp/Nq4O4WaQPqx9WeMSjItxDEf/9Mc/zr/kgGvScJRTZvyNjzjjJxhnMuSV7ncWl5Eb4WAhol1kMFrKKB9DjF+4gSe4I6+48NC5XRXGjxGOQVVn2qM+QZzy5Au5vxogixCcze5c3mHCWZxMPgbXNc7+7d/+7dyNNDfqXNii1nWWsOXf5ZD+yVEfc6A5dB594o3xjw6kz4xpxlu8a7ylwxxdR/+FG67lx7HwGQeNtaDe7NLigPbQpZx3R21wX/LgCz2ZOshzLk/qqGNvh84rBzzI+Xe5B8fVp6145p60gUOXe1BX+tE9qlM+XKQnP/e5z825oW5Ql3sVGscPPSrHAHVSQp1kOa9x4NyEFSiNpLtOemAymvzJI5iwJrTJaxIzlCYpRcGokWnic878hhPFl9UbpeInUkx4Kzk7Xs7FKR/FJi+jqiwFpj71iAdtko/S4lwxXHYkKBb9kXy5L4qWjBh3SorhJlOeKJr0Za5zv2Q4l54+cS4OHHPeuDL29dW19J++zzgbG7sXHmnNj3oG13BzvvN28AjUzrAdNR87zA8ehvNjp8NveNmR++Tgn7/V+djgoh+OFWeHZO3g/nEabpz26JUs8gWOm5+y8PiMYcU/fKn34lo7w53wChxzLr1yMLzFVfdkV85cWI+ID39oOPOi9kmuw+PIbLwfGQNBv9UxgVynD52nX3MNro2vcatOEA5lcSAPvWMM83Mo9Jxxpvs4XPSZ1wO8rkI34hW9aqyNuzI+3KFf7QjPD8luW3+SztMQdWiT+sbJfOrh/T36ko51jJMnb3jiN+w4dPg6fxx+8Nx9CHSndmuDUHUiOG7PawD1NA+PN9qpO8aokynIBBbPEAiZnI4JMQryKcOBkSdKiQxlTXRxFJIQh41Skm4n5cc//vH81XW7cJQDOeRRXowopetksAIAAFecSURBVJXffUvwq+wMJeXBKbQbk5WnerSLUuLEWZ0KnDoKi1GlrEA+96MMhaS9UU7aV5VSFFvKOBdAeW2Rn2x1bx3dGhqXx7aPar9dzTlkvEA8o+WRkTEyxtkxYEx9Ie0xF+PHCD79q19Ng/jSiy+NwuaFDxhuG7y9Zzh1j+4ef+zTu0cfeXjw6r5Zjz/Q/stf/nz39NO/HAZ1/ZzEs896f/R3o+73ZjnvjD700AODg/4c1PoJCch8A5yxa+cYSM8xAdwH3sWhy04NB8C1eBw2/+R1VDZ9Iu4o1H48C7ia+5XnSkH/OkYPConbQh48jBNmQWBMsktmbMVHv8lHx5CFH3Qa3fjFL35x/qi2xS/daszJevbZ3w6durhosbJ+v24twmG2afxnx81j4PUTKetr6yx+1VMdO0EbteON0Xavw2QBrL3hVO49AdIv4WL6JHJrgH191rjx6MevNxh1YmSywOXikxYjkHSTMQ4dw8EJY/iAs8YYgTzKVFlWkZQVpUFh5ZET50deZRhYuwwMEqdK2SgV+fJINj90zKlzTglRHMrbtePcKWOX77HHHpuPl9QlT1UojpQTZZQQRy5IPvHSKTBlxKlDOrmUIAWtbm23gvZVlzZHiULt63reOEQ4E2yvK5K2zWN8GBq7ZxYOxsWOLT7JaQyN6RrLQ14bR1z21yNeeXn9EX5yyDeOeGy3wpjjJE7fPfjnXTk7IbjDsWKEBXyWN9zPLjWuMLxkqhOHtS8cFyevsnjiKIA66gIkAT8jW5uda6MgLXMyuz7kcwbMI/VV7OOmsmeJs/vuNzyrR/1cj8ZHcO4xOB7gIe4ZY2OOezgnLuPiaEzwLzzkWOEoTtm5w0d5pRlX+WuZPEpNvPeT8YaMBG17++31Vazru0cZ+tTO331Dn5KhrLbVe1RO/rfs0F3k3Vvz4zX3I0/ySUuc+03fkJkFiGuOaH6k3f2kLxJcb8egcWPRTt0xwnbCCEEmTuIzCfdNKvGUC4PFqWNATGQTkzIwiSkscZnUnCrKwg6dc/licEx0yoJMk52yoRSyW6b+KCllo7yyqhQoP3Wp17l65t/1HA6ddHUkXbscBfIZOPU7lyakH4Tch/zyOmpTdvxibPUHQ60MZeWdOkY6yjH9WPs0x8aCvqvYXm+RMaoBjBlecugEvMIZfBuZxnjbVRgcH+NqbNffvNytP8V0bhnFdy+U94UODKDHt8abnMnFuauy3vv058Q8asUPdYcrxl/+cIUc6XZecAg/OVb4jC8xqvJXVA4eGtX14ZF49wzmDfniyBDkqTyNU/flL395zhFO5z5OHnV+2hEeBZVbFYmfHBqhXjtyxPAv79TRXdFFGa+U1b/Rb3HsXUvb6ilH16MFk3M+hLCo8Bcn8FFQ3rjik3PjDXajOfYWOtrw8EPraQge4HP0Wr0X+d7RhjFvopu1wYdGeCZP8rqOw6hc5bF5oF71y09HW/xqY/RkoD/C2cbxQTt1xwgmiZDJKiQeEmcyxqGqeUywTFAKxc5YdiOcW+2ZnAyc8ia38iay3TkKhrNFuZjAgnNKRF2cOpOdLMHkF6du+cjSBvmjsOrORlardu98POFPIEmjGJXTnq1SdC5eoICqcqrnOSrnXJvUpz/Ecxo8KmGotcHqM8pKHvnTz9vzxn7o5yDn+qvGZ2yEnIOxZHyMCYNqXHAFd8gw9np+/uTD4MAoOHfgfAhx153rAxtOGnmvvfracNb/NP8ChV2J8Ban/ckvuyHkel8pu9A4H24DfqmTPHND23BcfvOGQTU3tFFcDFzlHq6mLKcthrX2AYiXLn/mrPrDVfNVOfUc9Tt1kQVnjaP13mF7HaTP9WlCBQ7qa080OHby4gS9ASkjX5wfaTiAE/RIuIRHxhKH6Bo7gK+88tLBuNrF9S6mn8FZu8e4uP7axH1zfL3GQhfJT8d6xcDvgHolga76zGc+u3vo4YfWF6172vbOhUOd6bErbokPaj9I49ThoWvtxyHtx2v1m4/AqfOhRPQkyJv8jeOHdupuMDJBhIoopIpM+Keeemr3ve99b/eTn/xkrjRN5DhhQgwFBZWVJANFgZnIceLkUYe6Kag4YMpIoySkkelIhp0uX+dx6BgmBqy+AM7J0x6KA9SlPdpCPmOcx7OO4sG9xRgqr24yBGnaSU4USVVS6Sdt1O70pTTt4th6J1D7KN8vfelL86tCj37dN5nKpNz2vHFtMB41ZJzqWBlTY41LXjZ3NBYCw2n8D2WsXRJcYlzwSPC1axwzxo98xopRFfCVsQNlcQO3la2vCHishZdkqRfH8/6oPHZ1Pa5Xt7q0pd7XNKqjHP6aX/grTlogf82XOVI5HQczc9oc9T6WNjiHysuEQB31+iwgnBJg3/1nrCD6MX1nvOivX/7yl1OnuTbOHC99brxSVjlxWaxGL+KU8+jTtfh9YYzhO4ODSzeqA3AbF+V3XA7eqo/MzAHXHL4HPuX37z4zOaDsvJcRcMkc0j5csUPnXJw0bdUeu9l269JPjvLEodP+tMk5WRxSulJ5Dh0OalscV3IEUKZxvNBO3YeAEB72kb6mB8mXiVchjoFhbDhy//Zv/zaDF3QZAArDhJYvTo0JaLIyVK5NZMomj04pIumUlInqnCJh3GK4tCPKgWwOpZ0VgRwKQLvUTyFGduIc5VGW0lCXoG51UGzqiJwYO20Vr1yMo3PBuRAkLulAYWlPdoEYaHHuze7cP/zDP8xHr4y5drlHyBg41vOzjvRv+iLnuc54bPsqY5Vx2Zbj1HC+7JJw6uTFDTwM52KkXK9HV+v9NsHYiXfEc9X4nTo89Rthr79+6dfR8pKPg/jHeJKTHThzQB71ye86HwExqsqmXdWoZuGhri13Iyt9IW8tE+PuCOaB907l0T4LEDx1Xvs3/SiQH9Q8JxHuJf2V+0t8vbfk07/ygrEBcXRR3pfTnxx88eZ6QvpOiO6iI12ThVPRDeAcJzhhWZDKV4OydB+nCA/pIb/BSPZbb62PvYwtPbc+/vEV/uG7d/hN/l133T14ef906h586MH52HW+OjDuIeWFcMlX3nHebOWNnpvHi3ED2pZj+tc9abf2aa++0m9kepqCf3SlOSMfRB7UMWocD7RT9yHBxAnZt6SvkyvnyWPCRPlk8pm8jN6TTz65++Y3v7n70Y9+tPvVr351cUXF2aNIGAkTT1kKgiGI8+ZIAcjL2ZFuV47BUMa1POJiYMRrV9phxakd6o1yoizjLIoTxMmzjOuhkmS8GFPX7lGgTJSVrzp0gbwJ8ktP/yRdfvExmNrJmbOj6V7V4VGv95O+9rWv7b761a/Oa/0TOeBe941ZPT9rSP9WTgrpk6Rv44yHfs+YigN54kgrx4mxMOF4c/Bwbxm1u2YZ5Y0rw+dxK8cOR/3NVbLIIe/2wXHXdiz+9NyfJgdfnT/+uhYbS8ZyoHBQm3CeM8excxQ4lAyY+u3i2aEzR7ZGjTxcd4/hJO5JC8LJ9JE84XD6JG3Sdn1hPjOs0jgOOKsd6pdHvJC2gOtAnpMM95L+rPon91iv06fOxcsfTpn39OS3v/3t3U9/+tPJLWn4Ip9+dx49adxxjX40BsbSuOCB/KkjTh1O0JdkaEN4CHQx/ffrX//7OH91yOWEvTPk0p/+ugR9aRG7Fhzjria/b7rp5tkW/ObUGX8BL2++5fB3FfHOPWZuiSfH/eWd0tk/I15ckHsQ5Ek+suh171/bscRpdXr0j3+eaISjkQORFdTzxo1DO3UfAkLuOgmuNBEy4ZLXZM1q00+K/Ou//uvuO9/5zjR+jJAVlEnHOWGkKCPG0eSkwGLEpDEIJikFpg5KwMQV5JNGJmVFqZjAykaZyZ82iocosyiaKBnyxMkLzqVpt1Uzh0s+oDjTjqmQRhnHlK/n4Kje2i79pE73TJHbyeT8qkseuywcuf/0n/7TVFAepVmB6pPcS8YkY5Ej1POzBv2nf0Gfpy/EOzc+0h2rkWC0jMUPf/jDOR52lOPc4yBOKi84Nw44hycMIo6QFQOaNsjnmtELn+Wr3JFXefPB3MmOsZB4Rhvn8Cdtdn/kMe5kq4MzlXfptJXsLGQyd8hwFE8OOIrTntxn4tUD6o2hJIsjZ6HmUbS2mtcWH34aKLtCkROQJ5CVtG2ek4Z6H+nPnCe4TnDv0Qf0ZRZ0Xk/h0P3gBz+YfUv/4CQn37iEh8riVV38Gg9y6FL5cA4H5JWH7qAnlVM/5Jxus5jN4tlY4gb+J8ijDud0Nj5qF36FhxnT3Lt7w2Vls6B2HyA98zCIbgTp0hyFcDY60+J3/jzQuHavOEdfeqJBf4rTnvQ15LpCWxs3Hu3UfUjYR/BMUsgEE0C8yQYmoAlPwXPoKCiG0cSn4POeAwcl79uYwBQFhUIhKe+a3BgriogiMxkpB8bJRHZNBseO0mJsxGlHVRRkSSODTOeOQEmoLwZUe6rBS12OZFOe0rTDkWx9EeUD6SsQl/4RLx+5lF1Wmfm9KPHuxaNWhlHwsrGXkSln90gJR75jPQ/q+VmHvqjjImSsjKejfsdRY2GXxCLELgke4yV+GMOUNwbhEj6Qx2Bld40BwVnpcf7wlJHB54xhAmgDI4kTAnk4FoMfhww/zRHtkqZd5KUt6sET9WqXMmQLMdTKSMtRG/RD4iDtEl/TMl8Yf06IwGjrSzy1ALFoY1Tda4wpRGagTLBNO2nQP1DvQ79B7UtwLb++NJYe43t39oknnpgLO/1p/OgCR2MuDgfkV44s454x19eAN/JJ1/fhKe5x+qNLlU17HIXoQUftU2+cMQHfXIdLiXctrXJUeXmTT57oVmmps7YBpDvXdkdl3C85OM/JNS/pS3qZLrfYZVfoS/zDPYsb941jgj4nz7GOUT1v3Fi0U/cRIhPBpBBMSiHxJmwmsUlnlelxq90OE9qWv9UTB8VjIQ6dSZd3gshkEK3+7FI4mswUD2UlryPlpR5GziqWgqPUpEdRmcCUAMSgaKM0Ci2r2hhXSoTCoDSz6ozhA9fuS13KUo5RTlES6ZMoD8G5ePkE6Y7KUoCMopXmz372s6mgxHsP6j/8h/+w+4//8T/ODyI4v3ZdtNX9kQep46hw1rHtC/3u3JhU4AcjhE8MBd7aJbEgYWg5WQJuGH/9H0Mp4CP+4oU0Ri1jKa4+/sS1OHWgPeIZpcwdRis7IDgc3jFezskVOH3qUZ97C+8iz7X8aTdZ8pmLyqtPSDsg/ITISz7x5oTy5JmjFiKCNptXFmy4+/d///dznpvb+ogcfUOm4FwQ7zpIO04i3E/6zn0Yh8TlPh1zLRgf+saOkwWEBbAdYnGcY/qSDuCw4I4xz0+Y0B/k6984bPobt9RtrHBaPmOPoxbVWRjiSG2jMVaHawiHpFXu4GF0vbyO+KQeel/7cFK88vSq/PKQE/munaevIDxLHvGulQ/nzFE6098Fd3+cXs7cP/7jP07e+W1E9kU/0PG5T/VErvMcc944Hmin7jojpK+oxE+6ySeAOBOUgqJsvv/97+/+1//6X9MoUgCUyN/93d/t/vN//s9z8rk20RJMPBOT8TMZKR5gKCg7ioKRM7kpHc4bh5ASo8zijOVxlXZRdBSK/ILz2k7tivNGwZHnUVV2++Rn6MmLQgL9oP3aqB4yhZynn6IIBWWlS6MU3ReFpH+syilB7fVCL4NIOeVdEPXEIYhsUBckzrGmn1WkX8B5xs141jEUXBtb/OEcGQuLELslDJSVvt0mRhXX8AbH8JEzLg/uxqhmp0QgOwZbHfJwzLOQwTG8BNzAl3DIOcTg4hAZjnGotFm+GF5c1aa8KM6oildOmrZUPpKrvhpqvcqCOCH1uh99ZRHCmTM/OHNep7AIEZybx+ZSdklAnft4mnQ4yRzWdveSe8j95v7Sz0k3FvrPovcb3/jGXEgYO5zSh3iXD6L0JacMt8gzFtnNNe7kGjdlBfmyUM7i1zjiYXaPq6NDpoAb4vCTDJzOOa6pBxfwix4Lp8RLT5q5oZx2k5l86gLH9IV6XeMqnopPe5QhUz/RmRxf3MNDsjlwOMeZ89g1u3PuM7IFMlO364yBY84bxwPt1H0ECOkzKbaI8bKC8tjKl61eWDWROEoUFCeFgjIRM+EoFYEyiLLJjkcMXmRz6hxNcnkZWXnJM0nl46gJjJh84skmi0LTHgqGMsrjzuwGZqUrkEmJKeeeo3CqcebYpT/cS/IJ6okSybn2UMScVO8ecRzyzgpZlBPHVz/Z7dBv7o+C1g4yUlcCVAV11pHxqEic47afGAsGz6MuuyO4a1EiXx4h4mw+SsFV48ho4VndBZEWAxgnHOeMubzGDxdxSzoeyZM2OdZz6WTJg5uuycBzdabecAs3Y/wEvFJP0rUFz4WK1CmfPkqQT1zqdK/6Bnc5dRwJSD9ZjJjndVfZ/eJnhfrC2RqSlvOTCu0P54L0Z2As6CD60kIC9+gDekvf0QX61I49vtABxjL6Kc6WsVGGLGOOaziAM8rQH3ij/uiv8CTtoVuMR8aJTPcQbqaMfGSlLcY2+cnDN8C18FLbtSG6F+r4igvf5BGcy0MGmXgW3uW9OW2z4OX00pk2CvSVvtM/2pl7Sn2pv8ZB7rtxfNBO3YeITDDBeWAiuDZRTD4TjYL67ne/O3fpOHTK5FGMiWcFZYJnEkWu68gzWU1IQV67VJQIA8YBstqkvCgkBk86g0t5AGNr5ZoXd6OIBO1Uh7JkUabaqt3KuRcy1WtlHMPEoAIFIzDu0jliabv7iIJypJwg/aZudVBOHhtwIuz2AOfNhxB257wLQlmRHcc2/RWZrqNw039XA+0AZU4jcn8V6aOMCUMUDjBU2TH93//7f1/kgvHmyFn5c1JiKIwJnhn/LCDwURnGFKQZN0d51SevfPjI+OEUPhrbjKNjjKT2uY4c8THkmW/kqJNswTUo577MF8ZeG8IPcvUBGZUz2gHShdRBjvz6ypzjyHE88iWmfvLOJ+7+1//6X6eBNRe1VZvVkf5PgH1xFfviThL0YaAPap8GdIEFJX35L//yL9Nhkc4hzmsXzo2/8uTQgzhAP+lnesK1chwf44NnzpWRH2ftDDtyxPDdIpbu0QaQD2/CifS/sccj8jj07gEnycrHN2SqHxejl8MvvLJjhg81DrQv/SRNXeSoW1vEkaedHDk7mXhnDqkX13COzrQ75x71hXsJr+o9kQ+uxafu5G0cL7RTd52xJXmuTYRMAoHSN8k4KpTT17/+9an0TU6G0ErToysG0uQ2oUwuxwTKX4jzYjIrry4Kg9NmwpInMIYcK8qLEjPx5TWh5c1XoUDRUEbamFVkjGkUBgfQuTxRdhQfg0guw6XtcfCU106KNY4kyOveHHNNwZFDKVJMHhlQTurRBg4Dg+iRtHMrTXWpU7o+jkx11riqpMRdCWkXXE3+k4Z6fxXiYzTSj3FScNXjrm9961vTscNDTorxsAjxS/TGQn8JDBoOMCqcegEP8BVnzAN8wjuGQ14cwV+c1A758ooAZ0xcxjZtE1xrM97iC+Oq/XiI45GpHvOQgSZPW5SXl4Gzi0aWa/egDiF9kvrSP4lPmrZagOgnCzXtcN/mtq8Lhfxt18ytzOfIS/8lBPU87YMafxKh/e479w7pC843jniS4TG/ozE2phZ09IFdJ/0Zp8SxBki8I6cJH1yTlcexdBpu4KF0dXASk8/Ycs7xVTuNG85op/biE05b/GonHUYmbhhf9eIC2eaEa+XIw0eypLsX8qWFawmB9PSbtll04xvuWQSTaa55v9D81E95NSULqejmIJxKSH+BusXV/I3jg3bqPgQgfJDzTBLgrFAeJp4dDo+tvBdGMXBOKH0rqDgqJlwgDznkZaK5NqEz6SmEBIbVpGXEXMtPWVFIlIfAmJFbjSiZjBBFlMdkdfchExu0hcKtMuUnV57afu2kxCgUbVGWLAGqLE6iPrKbo7+UpeQo7rwAnXdm4jTqk0D+9E9VQK4Tl3u4HJLnavKeNOjvfUh8jjEYxoSD7YV0RoNxYxjsKluEcFI4Q+JAnzFixgYXcdBYSXduvPCJo8aY4o75AdLxH1eUxxEGSsAPhhNwl5x6L+SkrYwcHqcdcS4dMye0UzvU7VyaHR2y3XugDu1wFKTlKB7v7XSbz7hrR8l9qdd7cvmyUD9xfN2b+aYNdT7nXpwL23hIWsX2+qSh3l/6ld6hg/SlR612nSxMxRsjizq6II9boyOF9GvtWzIF55wdOs/RGAFeGUccw3ntwBOcxeFwQj48k0dbxMmrHscsSAXzJHpROVyRjzzjnzmRsnQ2XYf/kDaD9ECcus0JCxiOJN7hH85rN97lUWvem3O/0rKQ0BdVLqQPcw7yCK61tXH80E7dh4Q6SerEYDgoKMYmO3QcFpObovfYyuQzETPJKaRMoigUcjKp1ENJCGDVZ7JGEchHPkMmkJtdMEpAe8gTz9DESaIs7I7ksQSlRCFROJQCpRNFp30UFuPMqMlPqVB4oB3a6UiJKpt2q1u8c3VqT4yiHSHy3AMHzirzv/yX/zL7ihJ3P9qzNerOtSkB0of6xnnNcyVcTZ7Tgm0/GhuONh7YefBTJRYjxhdPOCoxGMYWH0C5OFKOEC6KM27ZXZWX4WOYBLyRl5G2qyAf44cr4SRDljrkFfAAj/DPYzm7JI7mGJnyq5czkF0SHFYO99yTc/WZg+Zb+JngOlzSP+qzgDE3tD0f8aiXPLL0De4KdjQzx9x72h9OVl4mXqjI9VHxJxW5d/etnzMm9KVdYQFP9JtHrBZ3nGSOSpwyY1T7zXgK4sBYCa7pMbtwAp2UJwgcOk8zjCW9R45x5IQbO+fhGW7JT/+RGb4rJ17AWYEuc+2e5CeXc4WHHsvieNqrbUJF7kE/gXlJloULp9fOnEUw/a5sHkc7Vt5lMQPaQJ5+cy5ecB6El0JNq3kaxwMfG4N0qXveuG7IJIBMHIaFo8KZo6A4MAwMpe8nDEw6ikWgHJSLAhIokgTxMZqMjzgT04R1pBBNeud1mMUzihw6R22gBCgSjhNjFqVlt0M+xooyIo/iYRApOHXJp3wMchQXpaxtnC/5KRP3YGXNKYux1DYyKD0KkoJyri6KSXlKW9A2ClgbyNbm9K0QJVPPg+RRJudb5XXWoA8q6rWxMQaMqN0GP1XC0OEL3hkLfGEscIGzlP6VHlmusxjBWVwx9iAfZ8h4qwPXcIBBxC1jbQfQvDDeeCUfY4sneMMpwxGBYbSoYWwZuP/zf/7Pxff2lDevyNJ2ebWbg4AD2qFuMvHOAoss7RfAPbmPeq6t2Z1TXv+IJ1ubzGvctYOZ+tw37pEhqD8hqNfyyJ/zWiZxUMufROS+8MMC0dgZR4sI/YuPnDm79XiHH/RKdIF+J8M1uCYr/U334aB4fBXnXDxecrQ4ScZRffhOZytPT9uRzk4XXWfhKdCTynLOcEvQLtyQxsE3j3CDfG3CA1zEQ9xwX9qiPunmFu6I0ydpa8Zfm8nWRgHHga4lS9k8jk4fkZEA4Q2ow3XSUw/U/JVjJ51vpxG9U3edUScJIH0lPsXBcNlBsJo3WSgmyp/CZ0Q4LJRIyjmnsFyb7MpEgUmLwoKU0Q7pDJQ4eRhJikxQB2NosjO4FAQlmhWka0qA8qJ4tCuG2T1QPPK5Fk9OHD2KLUpEmrLqirPJYZQnshhqyomhpsRday9ll3cLOYIUlbZUBVX7FhK3L4Bj+grq+VnDlqvGI0qb4WOQOP3eZWRUPfYyXsaPsbAQYeQYJHxKX4aTkL6XRj7+xsiGj4xb5aVr7cAxRhAv1QvGnmOGP2RoJ84K2iufevAX90H9qZtMeXGMEZRfXWThVPrA/DIvxYE4aUknH/85jzibR17kuy873nibD0YYeW2Wpq44iUH6KP1VQ9LreVDPYXt90pD2x2HxuNVf09G/+seuLd7pX/ohfao/t32aMTPuENnkGAM8AzzBI6Cv6DwBz/AR8IRD6WjcyUpenCRPXdqNV/gVbuG1PNpq7sSpl59M+QXtEJTRHrqUTg3vpMmvfvMiO4nmqPzaS0find1z/cSuiNcG7U0fOCaAPgn/cgxq3DY0jh/aqbvOMCGPIrs0k5JT5z06O3aUgolu0pt0nB9x8sYomZBk5ppCqCEOnnQKLIqhTj55KD+TU17X6qI4THppyjBSeQxGQWkLRcqZEigm+RhGOyWUl3zaLo28mldwHmUmLydP0FbKiTH0eIWSIle7OA0eG/hCy4qc40BGFDikn7VHgMRtUfuiXp9FpK8caz/EeOhfRsb4Wnh43IqvnCaOjketHucwrMa3OnTK4kKMVsZGMN6CtDhxkHjlcBFf8AjwAT/wUv04ZOcBJ9WtPo6UnRV58MmOm7q1Kzt3ynHQ4gTmUZigvPq1UTnn5HLElBOnnHmVOaZ/1GcHxjzm2EnTdk6cF9I9GrQjndcUqlFVF6T/qyFNXD3PdbCN25fnOCP3fxSMoceJnmbgn2sLCH3qSC/pT2McHZj7D9cc67k+Vib8DDK+8pBjrPCQQxX+KCMPnhlzvFEfnuJJdBzgF0dLXvoe73CVDsNbMpXTdm3DP3wiXxvDU2XkU4/r5KOb8c07reaoNHPRvKQz00d4Z46lbwTyE2rc9hwSl+vGyUA7ddcZdQJQEnViuDbJrUAZApPeSoqhjJNTV4Imo0nm2sQVl50DBiQynScu8QI4UkjKOaccBRBv0qub8qBsKDPKhpw4eI4UH4eKovMYIqtkYGwpF3ndE4XnXshxb5SZ+6CU1E2hSq8GUby8duY4cgLjSFnWnTn3u+1XIajnFUfFn1WkDwPj6zqcM+Yee/m5Ersk0u062QVgmIwJ7sTJVrYaBOOLQzkac+nyxrA6l8bRj0ETjze4xSjFqAJHDFfwDOfUzZDiVwwYHplf8sivfvHVoMqb3RV1b3ftgDOHe9ro3kEbzUXy8/6ShYh2k61/6kLEnFK3e0rf7Au13yqSfpaQ/qcns0tsNwoHcILDZUyMn7GPLhHoiHAR0n/6V5pxAOOJdwIkf7jp2rkgjzGk9ziS5IizeMAxXFC3duGYIK/2ahteyUMn4o/ydGz4HV3qXMjCFchxjaMcRbrVqwfZFSbPo+C8Z0xf4mF4lzmXfria0Dj5aKfuI0A1oCYig8k4mewmHYVACcgjnUJzjLGjhOQzSSkUSoRMhgekSwsopkxo+RyFyIwCVF6QVxnn2kFhUizkMnSMHiPKKRNH0VBAlFF2INRDLqMnr6CsOsl3TbGRRU5Ws87Va7XLobMDZJcuykk7lNc36kjYp4DE7YuHo+LPKmpfpT/DE2PMYHG4PfoyVsbZox3jzrgJDAfDZ9yVzzhFZo7i8C2cJD9p+OzaOR6FuzjBuQsflScHX3Ap71yKk0e7siAhj1z8Y1Sdk4lL2s1YCslPtvvLPNRG+fHbEYfVaYck71mZu2ST590luyMeeTnP+1SZW/oo96u95DvWsA+XSzvN0E+cc33tkb8nG3F69Hf6cds/4VHi9bO+T3+DdHwV5E9eAQ/wD6JnAW/CQwFP4vDRdwK9Srby8sQJjG6UF1/ljV5Up3TyOHkWEc7Fk6debefM6QuBDiVLeywc7M4JzvVP5V2972B73Th9aKfuOsMErnAtmEwmmQnpHSETleE0SU1sk5RSoWhMaAZDoAjEm6gUCaVAhkkbBRBl4lwe54JzyiNtiEMnX4yZNomjROXhsHGmstpUFwPKAbMbZ4WqXgrEKtFKMwZVndqv3Qyge3TUBjKy88exE9yberz7YZeDQ+fTe8pN+9JnEIUdSIPcG4hL/BZHxZ811L6C9F8MgHN9bdzspHqXThxOMBg4w9gY8/AVd5QPB8ExAQ/DNbLwsI5n8sSIgfTEMY7qZ/jUYQ7gIseKkyfOLi8nDB9xUX3qCd/i3KXt4S3+4ZvyznFbuwRx2qYsg5oPNPCaLG3CWY9a7c5xesWZq6Cs+xFyv+5J/DYk/764swb3jFPG2GsZdI8xEoytNOOOB/pWnwri9HM4lDTyxMeRMnaCc+nJjzPGTl66ST24JQ5v8N/4ZmfNooZMPIw+VwZf89EODimjDosjPHI/OMm5w1HycVte7RFvEaGN7sk8tAlgTpJDNn2JdxYSHr2qU/tzv7mvOscq6nXywDZf4+ShnbrrjEyKOpkyuRKAsmBAOGcmLqXA8TGRTc44bJRLHCBlTdZM3Bg+SkEdAlAU5MjPYUud6kpQTrx8FFPykaX+KLE8JsgKmWKixDhojJ280jx24OQJlEw+aiBPPs6g+9A2+fO4yi+bU05WmvK779xf+k4QV9ueewXtSt59kNbYD30npO+c4wQu2iHxxSsu5EV/fW8M8QBvjAcuKyc+zgtkzMhm7KrBBfmkZ3ySN22ILBzi5OMNx0tIWxh2fGQotQkYR04b4xcOZo4xjILFlMWVerKzQqZrc8294XZ2LAXyxeG4nTmPvDhz6sHb3JtjeOreyHSs97qF+H3hrCH3rP/jBBk344dnxip8i3PHAXLU38ZaujQy9L04aQIuOxoj8cbTNf2XoEzGTJ7IFEcmXuKjRS/OaJP2aK+20o24ZbzxCl/oUHk5pdqgHjoxnMRH9+GaM4vP5qAgTRvwDO/y3hwdqu7cm/oEbcncuVYuXW2+xvFFO3UfAkymOqESB64pCKs8SoFyAMaJ80M5MSoQ40CZMJgxNmTF+JHn3NHEJjsT2jEKTDpZIJ48iiWKD+Sl5OSLkqBMKA7tjEKMIqVsnKsr751QXhy8rGYpsihGho/B9fK4FSbFtP1CS53amzaDY8K+a9heB/vizjL0h/EKdyrqNaPEWfL+Dn7gVcYSf8JFgQGNEQwvE8LJWp/yIK80SF5H6eFk5oojbjjiUeYOGbisvThpDimPx3adcdGRjLRJfnkZYUf3AMoxtAwpeeZkdtOl4bfHq7jrVYH88LV2aJuQe3Ss9+vc/TUuD+MD+qzqvOgp1wLdZezBOQ7Kr1wQWfIJxidjkLGBcC4hY5cyqYd8dQE+CXhoseEc58jCGzzSTvJwlg41f+g/epG+qzrVvZGPe8rin3pxHe+8kuIxa35wHa/VmfaRITjXhnoP9V4vh6vN1zjeaKfuOiOKBDKxIMrGxDORTeg86jQ55WNgsjKjpCgJCkN+19myJ4scdSWYvJRHVp5RUDF8QAGIozw4YxSla+WVZbCjFMRTNK7Vrx2UkaCt2pJHCQwpUFQUEIfOfWXHJE6ecw4dZ06gqHL/aTfZ6hSca4P2QO4VpF1NaLwf4Ub6WEi/pu+NKS7aReD8uDb24YjyuIgHeAvSjCFIZwBxDn/wK/WkbnHhsbiabtyVJVN5cTHsuIJrHCq8lMf8YAxxkiMmL4Nr19guYx7LMq7qcT/uyz26B9fuI04cWY7itdHOM6NqZ87R7ov5S5Z7kUc7XIezguuEo3C5tLME/aXv9Ef61NhzbIy/8coOlrzSojvpNOMYR0oaGeFT+OYclMFPIekZB7xTtzjQJvIF8sQbazyMHqf38qSBbtXOuiOMd+ZPnmTkaLcNh8nEYXxTXlvI48B5xO9PytGZeKw+dactaS+IA/Hick+OVwqN04F26j4E1IlCYQiZgIJ4ikK8yW5SxxlypJBMbMor72mI4wBRTK4pOAoMYjDFM7QmsziKB2r9gfzyUA6OlKM6orwEhlEZeaRrK8NIOWmndgOlRYl5dOC+KDZ51S9YoSrDuaPEKKY4c1FGaVuUUiBdqH0n1HtJGUdpjctDP6Wv0l/bPjSOEB65jqGyExFnTQBxjGqVXWXG8DiSmXHP/EiAjLU8aQte1wUNGQwqnjFyOMaJE88545TZaTRPcFk7zS/G1M894KFzXCSDXO2X371oM87aSWZQvSLg68LtrnLuEdKX2p77zb3k/uRJvqvBteQ96XCv+kqfChljusJYZIHKEaMbja+xpZ+Mvf7GFY6R8ccXMvHXeIA8zpWp4yMuY6Ne9ZNNBj3rHOQjL+WNqXT1SsvC1oIWR3DR+3BeZdAmbac3cZbTFr2IV8qIy+LXAiKPWqUrp171pO2OQvosCG9yhHreOL1op+4jxHZSRZkwOJSSiW7iMjLSOFUUFCPj3KQVHzkUTYJ0IK8GZWJQBCCD4lIvBRXlIC8lFoPuWjxFIsgnKKONaStFxSBSWuRSbBQU+a61g0J2j/JTduKFfYqmxmmD6wSo5xVHxTcuhT6FbX+Jr2kZZ+PmHDcsHPAxnMQH3FDOtfTwMfIFPHIM9wDPKieTTxAvPTId1YFLylc+usa1PJZ1rbw24qRFB8OrDM7iJgePARUYYeXw0n2ah3b38oqAnbk8atUf5GijutP2bXAv6U/XQT2/GpBzFhGuGG/jYtzokATpW/2XMo7ZgcsxOm07NolTD4gL/5RVTn7p4o2988iUR5BHGn7gD0cUJ5Uh0yKdLrdo0FYycI6uzKLEPXLycM/Cw3vGFh/4itt4ra0JoN4ctyHxFdvrxulDO3XXGZk0JnImV0LiwaQ04SkGkzXKysSmEBxNfAaNYbKNz3GqeWNgGS2KLUY4davD0XUUkHP1yitQROKkkScoo27lHdXpqI7sDqqfAqJwII+u5KOkKCN5yCBTnZRc+sFRXK7TL7Btt6PrbQj2xTX2o/Zz7bMcGSt5jDlDEgPF6Bg/6XjoZW5GyvjgKi6RgYvi8cT4hudkZhzJdk4W4Ezlm2OcOXJisJXTBpyVB2elaYO4LCY4XxwB6XZzhOx4y+eesiuOw3ZGElwzqHbl7JJ4d86jV7LVrX2Q/nJvCeIqd92fIE5Inn3hKFwu7bQifRLO6DdcxDNjZnyNBz5wkuhGQRk8pHeMs763ENkuisXjTMbGmKqjctI5kGncsxCVD/CSPsSxyFCnfHSwtjpqr0AOPZ7fWSTfPZhX7i3lsnOHi+ade1FvOAQ5kpGQ9AT1QY7B9jr3GWzTGycP7dRdZ2SS1IkFzhPkoTyiQJLXNeVggpvoMTgmtzwMZt75sfKjwKIQKJf62IGsKCBQHmJYsrpVDqpykEcgPwaYQZRX2cTLQzky8h7LMZ6UmcdaVpsx9ELq1S5H9QipN/mEIPlSVr7EJ9++uMblkT4LJ1xnXNLXiXdurBkXY4uT2bEy9nknjeGUP84P4CGeOpKjPscY2BjC2o7kwTeIoQznXAMuCtqQcsmrDYJ5o73iGGGPj80fjkDyuiftjQMrvwWJ4Nx9xqgGztPO3NcWidefQfpzHyJrG84S9E/VD5Bz4+wYHhqXjLGxxDGvf9B/uCiv8ZUf37JLhjM1LXpMPdKiE+WRhnfkyxPu0Z14rb3iBVxOfuWjg3ErvJKurDkjnrPHgRMffR1ZCdIqF3IE9QfaW/sPUq6GLa6U3jh5aKfuQ0ImyNVOmqSZnDF2FBeFYJueEhBP6VAoDGmMY8pSfJQGA8YoOqckyEweR2XkFSiBpAuUiLqjwOSJooMoHTLIp0B9wk+hem+EouXUCRRnrTfn6tu2qaYHrmu+4Ki827jG0dBX276tfZijcZYPL7JbEk7iiHRcw0kBn8TFQLmWzsiFr+SFR2S4hvAxhinpcehcS8M7QX5QPsZXntQdgxrHzG6ygLPuwy6JIK90MnKPmXPipdd+Oeo8xxpybzWucdhfFYnLEVeCcMr4Zqyqg+dcOj3FgTPGlSMZw3BHgNThKKRu4yYkPnHRh3joOm0hP4i+FJd24hK9nHcBtdmC3bty8oD8ZGqDkDYEadsW23xVRuPsoZ2664wrTaakZ+JRDkGdmFUhUACMj9WeOAbSzphVKUNK0TBoMUAUWoyX/Kmroior5eQRKE0KiDzGOI+/yK1KR7ydQ0qKQyf48pAR9VWXR1jaLn+MdO47MiDxQfIENQ32lTsqT0XuFfalb3Gt+U8K3EtCsI2r59UoZncjjl2cO3kY0nCSQcMhvCUHj8Q7Ak6SFwMtj/5WTsAXeeKgJR9e4J3AKCsnXZq2yaes+aFN4rObo63qt1sjiLPjaE4BWeSTkXqFytUttvGut2Eb3zhE7ZeEzP3op4TtOBgbY46Ldrzy6FxeXOM4RT/iIp7iI51o/OktfMCTyA2X0gZcwjV5yIXwMwsIgXzpOElXRiZZ0slTRr12iu0Ya7fdYE6d+5An9VakX4LtuZBy27yNs4l26m4gMgm3IRM8gXKIkWSM8l6Ja4qJorBb5lx+ikQZsuzocfAoJ4pHGoUU2RQZ2UAZgXLyRpmlDY6uKS4yPQbmzPnFc4HS0rY4dXY9lIHUB7nPo1DTcr4vDpxvwz5cKX2La81/GpH7j3Nj7ME5PhjfPEJydM2IxqjiAyMY40sOhyuvD0gjn9zwDBjAHIUYUnmcAx5z/La8TF5x4TqYG+ZIvt5lTPHUu3WQexUuh/RB8l0pf+PaUPu39q34mmZ88SmLWVzguOfRu7HPmAvGHC/ouiwALErpMZwkh1x1hHfhET0YrqYuR7KUy0ID/5QhW5r8ykkzFzhz+TFl88ErKjioPfIKFYnbxl8LrrVs+vhq8UHa1vhw0E7dDUCdCPvOtxMlBooyyU6JnTvKi3KhOCgtuyWUVJy7pFlBUizZwaAMyZIH1BelKT0KTT71CvKSRQYF5UV5fzbJL+3700mcR+3xKb4fyGQ0Y1DJr3XV4xY1veapyuaosh8mUv+NqPtGI9wQMi7GM3y0C4KTjuKA08Zo4gtjhwvKkJEdDTzFS1zD1aSnHpCGd+Kki49hjUycJS+LELwVpCkfo8qY4q05gp92Sjh1kQs5Qj3fB+lXytO4NqRP0685GldIWh0z53GyLCw4d/gY501ZnDPuebKhLF6FX7gojzSQHh6lTnWEV+GZ81pOfeKh6kuLHB9J+LvBFjUWQb5ujVOXeoLUSX6uj8JfmnY98GHLb1w72qm7QdhOBkpCXOIpGyHxJreJT7FQXJw6iiHKi+HySCFGSxkGV34Kh9PH8aKAyMrqMPWAeIooRpThVD7x+RCDcfSXBp566qkZxMn3la985eLfb6VYI5+ic17v8aiwD8pVJN9R8deCKuNy9SffX1LHSYV7Dj9wKAYG9INrY8u5yi4yJ8m5svgo4J1r/GV4lYmR5fhJi4NWZUOtW3ll8TJypHHoyEsd4ayyedzGkJobdkvUy6Hz3qf2yq9O5ev4Oq/X+3Cl9MZfjvTtdkyMbeLoJdcZc3otPPQltEeyuIIHxl/gaMkrXjk8yaPacA23pOUo4FbqFCDtUEY6HpOXBQvueZJi4Svgn3rwL797qM3Kb+9zGy4XfxSulP5B8WHLb1w72qm7gaiTMpO6BnEJAcMD0ikRCoED5RGYR7J5x4kxjQGjZGIIKSNGlqKhXMiJ80ae6ygxoJzIoJw8OrAz96Mf/WgeyVCfvwzh5x++9rWvzdUnh5MyTFujDIPc39UgMrbYV17cUfmPQjXkOW5l1OurbfdJw1H9iXv4IxjTcASPki44l2YhYccWFwXn4vPok/EkSxkcc8TD7SNZUC55GEtBOicuRjVjk7zaGKPKkKtPvbhrIWJBoowfFc7fG1ZWHZB7ckw7cn5UaHy4SD9vxwWMZeJxwnmu6btwkU7CTXnoMs4dvgEdKg1vLDLoRw4Z0I3kSVOWbnWekPrj/OGSPBxHvPM046c//enuhz/84dTHyuCdv3vtqYa2ZUGT+8o9JgTb+KsJ14p9Mi4XGscP7dTdYFSHAeq1SVMne9LqpKJIKKQ8crBLEoeK0qLAHLOTAY6MXkLSopSElGcUKSPvzFFOAoUo3SqYcaSg/ECrRwmUZ3ZRajtT7zbuL0HKVhn74q4WylyuXNKvlO+kY9+9GTNI2vY6fSIYcwaKkeTs46QQg5kFgsBoMn7yg3Nxgnx4j4/S1Zl5EEMqOK/1ykMO48uh4yjGmfvFL34xv85WxgLIjrKdOkY/qPdSw1G4XFrjL0c4VrEdjy0PwwUcEFzjBe4l0I10E/0mnd7jfOGKa7xxzDkuSsdH9SlHZnRb1ZXyy0dn4h2ueYrxs5/9bD529ZTDnKAj8zdc8c9TFzJyH1scFd9oHIV26m4wqnKiTFzXuEzqxLuOgXPtnJJhSCmtOHeUhTS7aRwzq087HHEClae0OH15PEbhMY7aQZnZXfEOiF05K00OHSNJrh9k9WdsBArKtfqVj/Kr7aztFyBH8ZDroOavoeKouGvBVsb2vIbTju294oJzY4o/GRPjC5woMNYxTuEjLnoUJuCGNA6d3TK8wz9cDO8YROmMLFm4KsTYqls9AqjbubLyaR/ekhvDmtcEHKX5SpJR5dR5RGcnpt6DNl5taFx/GOPoA0g/136v6cYMN4ToHOk44xwvHHEMH+2MeW0FH/PFdh6JKicfTuCSXTv6E2/IwGlp2b0jW52cQ7I8HSEvC+Annnhi6s/wzg9Z05eOnDvzIvMI9nEqcbnnfXluJOpYXA2OW/tPIz42BuXaRqVxXaH768TNcGzJn3jKK9jmdU0ZZZciL+dyxPKJPzCklJudNg4gBRilZxeDkePoKSvYmWNs7cJ5ByR/OzM/I6AsBacdjLFA6UXZOt/ez/b6SnBv+8ocFb8P6a+KlK8yar5rbedpg/HTH0LGUgA8SVzGXD7xjq6dZ/HAmcNFnGJIGcA4dgwcPlmMcNKUxyu7G3mEFiOYNjGykc8oM56MK77mHSZGWX5G3J/6EvAXj8klg6xw4KyP942Gsch4QI7i6jEw/iAfDkoP/8JJ+k2cgAt4QhfaRePse0SKl9JxEQ/pQfpOfrLpN9fivauXhTHZOGcBHN6Rid/qph/tyHl/zmNXssnCOzzf3ucWic99H5XvpMB9nPR7OO5op+4G46juR/yk5SiOkgFxgrg6SZxTNNn1sNqkbBhSCodzJ85qk8Kxao1RpmQ4ecpmBUsBkkmhMYget3LosvuSVWuQ9kTB1rYHyVOxzZdr2CcjkJZ4x6PyJn6bftQ1VBlHxW9xubSTBvccvgW1H8C1gAOC+1cm+SKDwcQl3GMA7WZ4JIqTFiGAYziJWwwfDjly7MThqiPOha9xGLNLguuMqnM8lpchZVBx1+5cdrKlcRK1DXIPjRuH8GbfPArXIOlH8VN68svjusZ5VMrhp+M4dbho0cFBwysOv0UunmTRKmS3j2OHN/iMa5zCLFTwDo/CO3qTzswOIcThDPbdLyS+3tdJxmm5j+OMdupuIHR9lFIlufM6meWJwaxx27KOyWfHjnPnPI8ROHY/+clPdk8++eS8plgYTME5kB0jSTlRYJSSP27+V3/1V3OHg2Ky0syuSep0TtGRIS3titF0XUMgf5D4xNW0YJsHIjNx22vHmpZj7cNtnuQTJ59j4pMGV3N+EuF+w6GMsWsBX4TEgTyJ01/i05+Vv7jJAHK+7JZ4vO8xFYPKqcsuMOMKZMa5YyTlsVPCMON2HDqGmTxGWn4OnB0Sj7s4dHZZxGsTfmoTeHymbfWegrQ/SFria97Gh486HnUsonsyjo54Jhhn4y0+XAX5LXzt2nHoLDRw0mN78cpl144zRxa5dJ/dNwsK5SxMOHWebuCsNB+P0Zces+Kh+LQ3PBO2PNpe13jBdeKuBpH3QXAt9V0JtT3XU27jEO3U3WDU7nee62oEE+d6mx8SL9QyFJ1ryogBpKgoH0ZPoLyyOuXAycfo2cngzFFOjKj35axMKTYOnZUrhRSkzihVqM5SAmwdvHo/V4PICWofCLnnmi99s81bcbk82ixIi7Nay+d6G1ePJxW1T3IE/ZzrcMG94m3SBHGOjKm0pNuds3gQ8JBhxEmvDdjRYzjxze6d3TlGUT121/JojDG28xxOk0U2ruKsxQgOcwJxOoZdG5xD2phz6XXMxFXUvFDzNq4far9v+3ibZswF47odLzhqzJTh0HPO6EdOGT55B9MCwUJDPJ2Hb3lkSkeqC9/sOltU4BOecuQsInAP5yxElEud9Zjzfdima7twuTLXC9v+vZ6o8j6KezmLaKfuGCETFyiNfThquPbFizNxKK84JRw4xtBOnVWpXRJGkXJiTCkiq0vKyWrTrgmjmEdVQl11BlWxCqlPvijbtAPExRmQVoMyCfJXmeAcahtq2cA5Z4KzKk19MeyutSf1COQnLm1zTUbqptClQz0K2uVIdo0/6cj9pH8F/SJA+gpy/ykT6ENp+kia/oxBtdvGmWNEOXd2lF1D3v90xDvIY3+7c3gcRxB3/Uq/n4rw3pxzjmFdhKQNtZ3hE4i/HGq6srnOea4rt0D6UUha8tdr57lO322RcajlhVxDrnMe1Hs/TqhtTLsrkl7vN/1T0+o9Jz6oHJaWnV+7yHbtBAsOC5DoEfnlDYfwyiPa/HUIi2A608KCrhCib/ahxtf2C+SnnlpvzpMOKVORe88RkkdcyjhPHrJznb6BtK22I3FB0qC2K/KEpNe4xvVFO3UnGBm6o4Ywk4YyYkTjkJh8DKr3j6K8nFNelJFVpuDRAwPKmKojk3zr2IhPWp3sCaANaYd0MhjmlI9DFVCE8lG0ccTymEx8jqmL0lWe3Fq3exKcU77uhzz1pT1kCa5TN0dAHLkcj8hXVrw86kpbhLRHPtfg+qwiY7AP4vWTvs01g8qx8wj1Bz/4wVxs2F32fpNxs+OhPzMmdlbyziejaofED2AzrHZWOILGKWOTMYG0Le2Ttk0PxO/LJy5p7iXj7zo8F5K3opZNWtqYss7JTbp7qfnTDvnFuVbOdeUqJD3nuU7/nBWkPx31k/vXT+CaDqBn7MJ5iuFVFYtfOtJiA+ek24HDOXrS1/8WEnaFs+AgM/phHwcyBuqEjEXiBOXECWm3fGl70sW5jsyMp2Pqrkie5IeUqXLVI4D7cV71YOJSVt/V/IH0bTudq8cx5RvXB+3UnWBsh27fUJowJppgEjmamOIZRkYzgQPFEDKIQnY4lIts5aqSqRPTtSOYvIFzO4QUpUcVFJ9HFXZWqmyocnIeRHbitnlquva5H46BRyrabAUtAAWkTVbldnqcawvHz+6O92C0k0w7QhS83Uz59Iv2W5l7+VmZqqwoNLIgbTqL0B8ZmyDjlXjHcDI7d7jIgHoElo8e7C5z+qTrWw4ejuZrbMaVkbWrnEdedfEBqRu27QrEp0w1cOJdC9LFZ4zrXIDIcMx5DckjQI3LMeXITHrmrbhaftsOEJd84iFlBPeEp5F9VlD7QEj/Zmz1lb5xnoVDdpDx0c6weNzziD/vzdlNps+UJzP9G/kV6q1QRn05T3rGMOdpZziQulxrU9JwP/diDgCZ4XGCvJFJV9KJrrU7AdImaWlPZLjOOTmCc2XVl3aC8kFkOdb4xgdHO3UnGPuGbl9cJmWUleucm8iMRY4mI6eFYgiUjVwTMMqBnEzMOnnBeSYr2RwiDpTHGRwhhjiPKCI7xwpy02ZtO0oBJD5tdS+cg7wbox4vywvAOeMseH8m7xW6Z7uSnDmrbopb/cpT5pxScjlx7oFS5/zZSUrbtSPOxFFtPSvYjut2jECcsY1BcC2NA5evtu2SeGeOg87I4qf+tyNnh4RD5z0742b88DNGaTsGte6KxNc07TH+5KWd0qtM6bVc5oC6xWUe1FDjUxavIiPtTgjSP+oMUqbKkR4Z4mobwHXuq8o6C8j4BLWP0pf6xLX+Fmchav7jIx3AAbJwMPfzfifdoc/jGKVvhfR7ReqCWlcWNp4u2PGja3CaTiEr8p2Hn4JxJ0da5V50tSA+CE/A/Vg0mVvy5F1WZdWR9njv2jnIl8Wt9qmLDjVvs0EgXT8J7sP9BLkHx3390/jL0U7dCUMdru1kSNr2aMI5z2QXTFjxUQbJSyYFUvMKySM9yiFpmZjyBM4zaSkizly+TvRY19e0HCcTnwzKTD5KBCJXetpZoQ2pV155av3kUMDeGeQQUDz+8oV6lbE7x2HwA6HO5afIKCN12dGjsPSTdovXL1bjdjM5EBwLeTh12pP7TdvOIowFZFz2QXzS9nFGnyvPgDASnLk4dhxxBgKHskticWB8wwOInGo4klbbCCknGHtccC7dWFY5joI8QtLI2JZzTF2BuORT1hH3GU3xysU5JTdzImUCafKQobw0IUZXfDiZ87Q1eSHtPAvIGEHGEvSFNNfiXetTXOCsOepXIeOh76XRT/o1Y53xjqwEyLEidQO5HCMLYLqJc2Unms7hEKlHW5LfkcyMq3Nx9R5dZ6xrPvcH0nAviyY6ziLJgkk+rzdwai3I81QDzEG74hZV9B/Q8WRwfjmInDlOL1nmK/2atpBd+6hx/dBO3QlDHa7tZEhaPSbIa1LHOEQRJV+Ui4lWFUTSE0BZcB0ZjmQ7CuTlnCKipOyKeUeFIfar/ia8uiiOvPRuxUiOOhg3u2F5rOERCIVHuYqjJOThcFEiHACQlse72emhhP/hH/5hOnbkx1n4zne+M88pZx+GZEeRQqJUKTk7dVFOeWGfMZRGsWeVDvok/QfOzxLCkdx/rivEJd4xPDHG4WFgrIy38WVcGCB9bdyNjzHW/5EB6X8hspJWZQfi1MNg4wIO4qRHauEY4LGgfnUoF567rueZC9vxV15cyrs3iw8GkaF1L5xVdSqP23n8L5884vHQosgjZ/VqN+7Kq6+U0zecAgGf8TX1ap9ycR7PCjJmGavECRmv5HHUZ6C/jB2OOMorLY41RE4gT+pIH+caUk/iyDXO9Jy/SGHcvCOaJxpATtofmeRoH5C11c/JF+5Jdy7d0ZzyU1dedcA/C1/vCSpr142T5h1X+hn/6FZHbcBV7SPzxz/+8cxPrn7h+HH4pAvZ/SM37cp54/qh/0zYCUMmwOUmQs1j4uU8kxvqhIpyccykcy5A8tWQ+HqEpEceODJIjI5gonOSGBrKiBGiyLz75lwco0rZKMtAURZWk/lhzzhWSU9+xs05GZSKla+gjMcllEvkaxPHjkzQLnnVFdmMrjgGlKLLowSBI5iXot2z/ELtW+Es4nL3XdP0V7At4xofjbW+1vcMgx1SDp1r8fofyFImYRsHOULi0waGCj8ZMTsSxpiRUz8kXy0Tea6r0Uy9SQNpkHpdx2HFbdwVj6d4ZQ7hYna5LTZcZxFDLhn4bO5kJ5Mc96Id2s8BJC/1RyekrWnnWUF0k/uv955xyXntG3nTX/jGyXJ0DeRlzLdytnEVKRNYUBhn44l/FhZ4Lg+uGH9pOJH3fI23e8ID3Mij4jwupuvEky2N/LxygifK4bvgHulIHITw0+KYHHNBOq4rD+qWpk14lt/2q/MUB/VZ7YsaGtcP7dSdQBw1CWp8zikNcG3CQhRU8pjUVdFFQUHKJX9CrqOUagAyI0cc5RLFwXnKu2iUCkPEaFEMjJA05SiNOFnK26mhKDweYNzljVKNos17H1bU5Dvn7GkvZeSRAdnykcepo7Rci9cGbaeIHJUlK+9vkaOehDh0UapkaFP656ziqHuv8foqvAv0WzWmIE4/MxjG3FGIYy8vGQlbSE+o11Dz4yJDyOjhBI4xrOrRzoCBFOQHMhi5PJpznpBr5cMR5QTlyMFtixpc5aR69O/+lMNRaYJ8cXDFyx85DCqnjnxtNk/wPw5d5oq82uE8RvasIPfu6L7DswQ8EyDn8tYQLgopLz5ypVeZQuRVyLuFvBwvTpuxttNaP8CgB+sTD+ONq7hgjMmUxy6f107kDU8EDp0yXoGRxhnEF2WVo2u1k0MmkKecfOaFa9zitCmXRTeeyqfNdhft9MWp03ZBHfpr2z9BPW98MLRTd8pQJ4xgEpl4wjY9igjko6gCE7AqPfnkN5kdocqqSH3iM4kZSUrFytIk52AxNFEYFBlHygcUeZ+DQlKGwog8j249JqVcGDdxWYGS4ZyhY7AoFU6aOuSjINXrPt0HJcZYahOnjgFkyBlVikudFJeyrpXN/YB+2NcXSa/nZw1H3fe++PRTQo3LeT0ag4TAWEHyhIMZr8QHyV/LccpwIbsYFhceNeElTuEWo/ijH/1oGlaPq1wziMqryyLBoyqPojhayuAgubimLKPqkb40BhEsdpwzfuYA5821NpkHDCZOM5Z4mMVGnDrp8ucnXTyWjWNnruB2dUTq3D4ryP0K4QU9IOjDpDlPSL7M9ZonZV3LV/u0BmmBcvUYuYJ8dBUuGHO8y9fcxhmHOHPG2ljSVeTggnY44hRHj47FA/zFKe2gL/HAkTz8wRn8UBbn5cN7HNOmLH5xWb10MWinMniqDeSRRT9bdNPt0hJwV/8E6ZvteeOD49LlQ+PUwYTLpMnEEWfCQuKjvLb5hCg9qPnAMfkqxMsbhZY8qVd8Jjn5FAxQQJROHEyKQlBWfmmUUN45oljs9DGsZFMg8tU2p+60Sb60g7Kh6Dwm4MxRSAKjSCGqjywKjyJzrqxjDakr/XFW4f6FyyF5rhSCjNU2vvZzeBk4T1yNrwgv6tgJrvEx46p+PLP48H6mxUOMWh6FcdIYU+fypTxjx6ljDBOnXB6DWezgd21voG5pygnOySMrvLPTx+iqw9zh9OFuHNI4dXhOfu7XPTmeNWSMwf2n34XEpV/qWCSPuOSJrASo51tEbo5B5FWeG2vXzqUZc5wz1tphnDltnD75cA4H6UK84PB5HznOPSeLTNyjyzhrOcetyoe0Rd25b9fycyy1A584fnhGR5Ihv/g4dHS4spGZ0Phw0U7dKUYmJ0QhgTgTH2q8/JnIjq7lqzI4TIL0Wk4eRwHkrbID+WKcokzkA3GcMytCCkQ+DhcHjqIgK0ZNGoXEOFJo4uRlxCgZSBsiP21O/epm8CgnuyM+3vC3Qr0/R1lml0Z+K+AYc/VqH4Oqf7b3nz7Y3nvj/ciY5DzHnOvX9G3igm1f1/I4us+obJH4pG3zC8YfL+3g4Rr5jCaDJj9Da8fOKwTy4IQdCyE7JThp90QZnHJP4ZF5oB5yU3+AYxw2ec0LRhvn8ZcBZTwjw7m5kvmiTnUL+kMd6c/ar2cJGdPct/7GE0H/p08yFrmufJKWdHHSQN4geY5C0mu+6Fr1RTdG17rOONNznLX8LJQ2cLZwA0+Md/iZj31wwQIiCw98zkIj/RFdlgC5b23ARW2AfPmaV2Gkb8uCezB/qh3Zl69x/XCpBmmcKphoUQqQSeR6azwg+SB5qhITyIji2YaUST4TmdJwjEwGyuOn//k//+fuv//3/z4fVVk1MnSUhsdaX//61+djBobL7hnllUepvtL653/+592//Mu/TDmUE5BBqVFuztMWComSYwDFQY2PsaWk7NZx8hhHQXxeVCb3W9/61u6f/umfdv/jf/yP3Te/+c35XgolSm4C2VHyUZKN/Uh/JWR8wqeMkxAeb8skP7hOPhw9qv8jJ5BH/pQJv9ULjBIDiFfO7ZIwZnjJoOFl3SWxsPC4Hne9Y4S7ZHLGPLJlVDmCuIPzZJonMX6Qe+GgaYd8FhThtjaon+OIxyB+uyMHjumL5BGqbjhLcM/6KPeefkqfC2DMkif8APkEqP26lRm59RySJ1Au4wGpN/ISXJODK/iYhaly0WdCbac0eekvCxI8oufwh66TV77UVdvp3nBSHnLpQl+7+gUBH41lJ1A8R1N71MNxxNP0TTid+2t8uOh36k45TNQca6hx9XzftWDSJ74eg+QxiSmBTGiIIjLpKRiTW6DIOEyUDKVAhnxAiTCGFIcj54uCgSgycXm0FKXomqGlaKxUxVN46rGq5agpr00CmQynHRWOnXqj4MBRviiknKs7j7ac1/zpK3CdtLOIeu/b823YYl+ebbhSvjoWkPgg5474yfHinOEppwyXcIITlp3aPNISz4hJs4Nhdywc5PThmvrrLh9+41DmSr4OJMOcIQPncVZeRlib1AOcxbwzh9/q0ib14zKOa5d24Hng/tQX/qYfcv9nDdt7z/k2Ttjqg4R6DX/JvDdGyevcWMYBwwccyC6tMbaAEI+f4uUVH71Hl+GbccZn5byj50kDXpMXXpBDP+KMeLJxA6/EgXrIx0+cpCM9zXBUl8WvepTVdhzk0KVeceohV/nc677QuD5op+4MYN8ESjgqPdheQ81XA1AmlEaUVYyXI2PDeWPIOFGUhxUjB8w1gyaPdErFLgfjxehJo0QoL0F+5RhX+RPP6CnnSMkpp7x8nDBKLO2JMyieDM6ZeCFtp7TIYKDlE9SbNrsfCgtqXySQcdaRvrga1L4L6vXl0oLEbeONe1DzJB8HiuETGDKGy7gzRoyaeIYUB/CCseJwMWhkiHc05vinHJmcwezk4SieKc8A4qg6PBozZ6TZfUtZstXNUCrrkZePIcjHWfOF4VSeMcdVfBSqAXft/oXcL9T7PwvY3u+++0/cUSG42viELYyF8cm4OMcvY8mpiyPGOcpi2PjiBE5ZKBhzXPLKCF0qXRmcwU2y5MdVfIoDhhs4RjfSZeqWhyx6Gfe1OfnNB9yk8/ATZ+VNOe2XJwsYQf2ucTTBPWz7JaFxfdA/Ptz4wIhiyuR0HlplslIilEoUizJxmgTn0igvZUx+8ZSUNPJSlhKhkKTLVxUVJyu7c4Jy8pOZOBCvDcpKi/PlSCYoJ5ArHyOsXNomkJf2QdruKDRuPDI2OULGJjwQcMjj0W9/+9vz8b+FgJDFQYwWHiivrDgGjhGMQWWMlctOhrwxwviSuvHGrhsHjdOH3xzD//bf/tuUqR7G2WsGPtCQ/8tf/vIMzsnBTY9z/YyF9/oYXkFbHLUrOy+ut9wkp/HRoPIvCPekCRx0PDHmHHnjY9xwEDfwx+4cnskvDVeML6dfHD7YKcMfccrJJ458PMdLcZw6C2d6V7r6OIc4A9kR5FjiGsfMDjZ+hX94ax7gOO47T9vUjd+OyoR/EB7W0PjgaKeu8YERxRRDI2xptVVezkFe5Ux2DpT4Ork5aLmOjORJfa5TVv7Ep65AXEJNcw3Kg/JQ86QOkF97Uw9s68kx540bizo+zo1LxtfYOjJOdkj8HImPHoxxjCYj55qRY3TlBUaWUWS48IFhI4M8ZTl2DCdnkMFTTt14Kj2PchlqCweGj9OmnHYp5x0lRly5fICRtjOq8nAKGXMGVTltJcMuDCPNuVOfNirnmNAc/Wig37cwVgmAA5y5OFFgjDhnFqzOjTfnzLhxsnBGOi6qAwfIwDXp0hwTTy4u4CDnDk84gOG0a2VAfBw3+k+dHDT8grRdPvIFTqO85Gsz/qe+gJwaEtf44GinrvGBkYkdA5HJiVqC+CDKS55KPXmSP2nyRnkEKSMtdUV+lQdxwiBtgm3+pKXuel3hOvXmXrdIHki+xvGCMdoXGCaPq7LbxpgZQwbJTggDKI6TxcjhJuMnzWMpfLOzxiAzbvIzaIykNAY1uyEMscBhdJSmfjI5YAwgHmUXmjOpjfIzqs7JVMYx710J8oK65VWmviaQeSWoZx+PGx8OjFuFsRDCwYxF1V11vMQnJC46Rpy8ce6cQ/LgUuTiHGzbA9qgjGNkuk4bcw7kSk9djikD0uXXpuQNyM/95tj44GinrvGBkcleJ6nJm7goHdfia76KlJF/mx5ZjlDlbBVLLR+ZkPikpT1Jp3wg11VGIK3KCI66x22+xkeLjNcW4hMC48bwCdmdUDY7DvjBYHHYHKVx3KQLZHGyIkOcHRKQRn6cQWmO4UjaIY5MCO/UJYByDCREprQ4d+JivMlJ+2JUQRn51CvesfHRIWOd8QsHKjL2FcmnXMpGVsYxaVt5QfKHC5C4lKnH8AqHEp86gBztEKI/IenBtj3buoIrlWtcGe3UNT4wUKhOPtehlXihxsFRk9lxn8KBlBFXlaEQxeJc+eQF+SMn8TkmTYhS2ual1JwL0up58tY213Y0biy2Y1mRtCDjmWDcwTiGU+KNr2N4AK4h15xCZaqhA0YSatqWt0L4LE/qS3otI0QmMO7aLSibPBW1PqHx0SJcAWMRVE5tx0zalmOuU76OZeUGpFzSU066uMgWXItPGTySN05dykLqqG2oeZxD4iI/SHqQOiHnNX/j6tBOXeMDIfTJBM21o7ganzhwjDJImSgFkJb4WkYQn7IQWeJjyGrZWkZwnbqEyEq+bdmkKyMt8du8kDjXrZBuPLbjczXIGGb8nFcHr8qKfMCTpHO0pDmvnIzD5dwuWuqovMy1EKdOqDt0ZMgrpG2Q8kBe6k0ZcoAsshsfPYxFReWE8TMuGcfEORo7+cKTxIO0Ot7gvCLX0vFT+XAq3Kgcq0d5I7u2odaV9NpOwf2IF5QJpEFkQD2Hmr9xdWinrvGBsaVQJmuwnbSZ7DEwNX/iBXljeKoMebbXiauyorgiI4rLdfJFjmtpkQW1DucJ0rfKSbhcnsaNg/HYh4zzFuFfeAORkXFOnmoE67gnj2PyQPIJ8qUNuAmuEyB5t6iGVT2OqRek1XOILCF1J63x0aKOTXiSsUhcOFE5Ji5jHchf+VPTQDnywpM4WakP0obwInHOaz5IvLzK7EPqk175X2Vt5e6Ttc3TuDLa6jQ+VGwnaiapeJMexOWackp8VTDSE0B8DYmrqGVSDuRzHaWzLVdlJj3XtU0VtY6av3HjcdRYZLwq6hhmTIWMac6TJ+ewzYMrAojbchvEi6uyxAlBjYfkTXxkhc9Q07fxte7GjUHGxhgkBLmuYwWJS8i41vgtkqeWA0fx23RwDTXuKG4lbgvtToBaBup5sI3bl6dxZRwyptH4gMgE3070fdfbQGkweoJryiArSiHIRHeM0qjp+/JuFRK4Fn85xSEt6Y7aI0RRQZW3raNxfHDUmNRxg5xnjOuY1rzhQiC98gLEhcOV384D50K4vK1nXzsi1xGSh+yKpKd+SPnGjYdxyFgL4Ybg2hjb5aq8Elc5kbzihDq+NV1clSUuAaTXeup1lQOpJ9dQ6xRc72u/+OTdh6RfLk/j8ujHr40PhNAnk3B7HSS+plNiURCURuA65cXnWtlaPnnEbfPUuOQJ9qUJVflUpA1Jr4oyocqv184bxw/b8QrEZ2wD18Y+aZD0mnebtkXScyQTlwQGsIKMKjdlKhJf66vtDF9rvtSZMrVs46OHcanHOuY5z3jVa8h10uo4V8gv3tjXfEHlSU3f5nee6wpxkHxQZab9iduHrcwgshtXj3bqGtcVodO+yShNkCZUZbWlYcpvFVqVscU2T1UiVX7KH5U/eZN+pTbU+HoOuW4cP9Txqqhjt+885Y5Kdw7b60C8gG8xuJEX7CsTJH/OIdeO4oTK55RJOqRM48ZjOyb1eqt/XMPWSUqZoOaXtk8fRm69dr7Nv4X0yK+ociCyUs/lkLLBlfI39qOdukaj0Wg0Go1TgKNd8Uaj0Wg0Go3GiUE7dY1Go9FoNBqnAO3UNRqNRqPRaJwCtFPXaDQajUajcQrQTl2j0Wg0Go3GKUA7dY1Go9FoNBqnAO3UNRqNRqPRaJwCtFPXaDQajUajcQrQTl2j0Wg0Go3GKUA7dY1Go9FoNBqnAO3UNRqNRqPRaJwCtFPXaDQajUajcQrQTl2j0Wg0Go3GKUA7dY1Go9FoNBqnAO3UNRqNRqPRaJwCtFPXaDQajUajcQrQTl2j0Wg0Go3GKUA7dY1Go9FoNBqnAO3UNRqNRqPRaJwCtFPXaDQajUajcQrQTl2j0Wg0Go3GKUA7dY1Go9FoNBqnAO3UNRqNRqPRaJwCtFPXaDQajUajcQrQTl2j0Wg0Go3GKUA7dY1Go9FoNBqnAO3UNRqNRqPRaJwCtFPXaDQajUajcQrQTl2j0Wg0Go3GKUA7dY1Go9FoNBqnAO3UNRqNRqPRaJwCtFPXaDQajUajcQrQTl2j0Wg0Go3GKUA7dY1Go9FoNBqnAO3UNRqNRqPRaJwCtFPXaDQajUajcQrQTl2j0Wg0Go3GKUA7dY1Go9FoNBqnAO3UNRqNRqPRaJwCtFPXaDQajUajcQrQTl2j0Wg0Go3GKUA7dY1Go9FoNBqnAO3UNRqNRqPRaJwCtFPXaDQajUajcQrQTl2j0Wg0Go3GKUA7dY1Go9FoNBqnAO3UNRqNRqPRaJwCtFPXaDQajUajcQrQTl2j0Wg0Go3GKUA7dY1Go9FoNBqnAO3UNRqNRqPRaJwCtFPXaDQajUajcQrQTl2j0Wg0Go3Gicdu9/8DxAifoq37UDQAAAAASUVORK5CYII=;" vertex="1" parent="1">
          <mxGeometry x="110" y="10" width="629" height="482" as="geometry" />
        </mxCell>
        <mxCell id="vUG8Hz4g9KgQDWd3f6Ud-2" value="DB" style="shape=cylinder3;whiteSpace=wrap;html=1;boundedLbl=1;backgroundOutline=1;size=15;" vertex="1" parent="1">
          <mxGeometry x="356.75" y="610" width="135.5" height="120" as="geometry" />
        </mxCell>
        <mxCell id="vUG8Hz4g9KgQDWd3f6Ud-5" value="" style="shape=flexArrow;endArrow=classic;html=1;rounded=0;exitX=0.493;exitY=0.913;exitDx=0;exitDy=0;exitPerimeter=0;" edge="1" parent="1" source="vUG8Hz4g9KgQDWd3f6Ud-1">
          <mxGeometry width="50" height="50" relative="1" as="geometry">
            <mxPoint x="390" y="430" as="sourcePoint" />
            <mxPoint x="420" y="580" as="targetPoint" />
          </mxGeometry>
        </mxCell>
        <mxCell id="vUG8Hz4g9KgQDWd3f6Ud-8" value="" style="shape=flexArrow;endArrow=classic;html=1;rounded=0;exitX=0.493;exitY=0.913;exitDx=0;exitDy=0;exitPerimeter=0;" edge="1" parent="1">
          <mxGeometry width="50" height="50" relative="1" as="geometry">
            <mxPoint x="580" y="450" as="sourcePoint" />
            <mxPoint x="480" y="600" as="targetPoint" />
          </mxGeometry>
        </mxCell>
        <mxCell id="vUG8Hz4g9KgQDWd3f6Ud-9" value="" style="shape=flexArrow;endArrow=classic;html=1;rounded=0;exitX=0.493;exitY=0.913;exitDx=0;exitDy=0;exitPerimeter=0;" edge="1" parent="1">
          <mxGeometry width="50" height="50" relative="1" as="geometry">
            <mxPoint x="260" y="440" as="sourcePoint" />
            <mxPoint x="360" y="590" as="targetPoint" />
          </mxGeometry>
        </mxCell>
      </root>
    </mxGraphModel>
  </diagram>
</mxfile>
